# Made in Blockbench 4.10.4
mtllib small_column.mtl

o cuboid
v 0.6875 2 0.6875
v 0.6875 2 -0.6875
v 0.5 0 0.5
v 0.5 0 -0.5
v -0.6875 2 0.6875
v -0.6875 2 -0.6875
v -0.5 0 0.5
v -0.5 0 -0.5
v 0.625 1 0.625
v 0.625 1 -0.625
v -0.625 1 -0.625
v -0.625 1 0.625
v 0.531726831799923 1.746185345600616 -0.531726831799923
v 0.531726831799923 1.746185345600616 0.531726831799923
v -0.531726831799923 1.746185345600616 0.531726831799923
v -0.531726831799923 1.746185345600616 -0.531726831799923
v 0.46874999999999994 2.3125 0.46874999999999994
v 0.46874999999999994 2.3125 -0.46874999999999994
v -0.46874999999999994 2.3125 0.46874999999999994
v -0.46874999999999994 2.3125 -0.46874999999999994
vt 0.140625 0.49609375
vt 0.15625 0.62206640625
vt 0 0.62206640625
vt 0.015625 0.49609375
vt 0.453125 0.77734375
vt 0.46875 0.90331640625
vt 0.3125 0.90331640625
vt 0.328125 0.77734375
vt 0.3125 0.5703125
vt 0.4296875 0.5703125
vt 0.4296875 0.6875
vt 0.3125 0.6875
vt 0.2890625 0.875
vt 0.2890625 1
vt 0.1640625 1
vt 0.1640625 0.875
vt 0.140625 0.77734375
vt 0.15625 0.90331640625
vt 0 0.90331640625
vt 0.015625 0.77734375
vt 0.296875 0.63671875
vt 0.3125 0.76269140625
vt 0.15625 0.76269140625
vt 0.171875 0.63671875
vt 0.46875 0.828125
vt 0.488221875 0.7890625
vt 0.621153125 0.7890625
vt 0.640625 0.828125
vt 0.4375 0.65625
vt 0.456971875 0.6171875
vt 0.589903125 0.6171875
vt 0.609375 0.65625
vt 0.4765625 0.953125
vt 0.496034375 0.9140625
vt 0.628965625 0.9140625
vt 0.6484375 0.953125
vt 0.46875 1
vt 0.488221875 0.9609375
vt 0.621153125 0.9609375
vt 0.640625 1
vt 0.15625 0.62206640625
vt 0.144590625 0.7160656249999999
vt 0.011659375 0.7160656249999999
vt 0 0.62206640625
vt 0.15625 0.90331640625
vt 0.144590625 0.9973156249999999
vt 0.011659375 0.9973156249999999
vt 0 0.90331640625
vt 0.46875 0.90331640625
vt 0.457090625 0.9973156249999999
vt 0.324159375 0.9973156249999999
vt 0.3125 0.90331640625
vt 0.3125 0.76269140625
vt 0.300840625 0.8566906249999999
vt 0.167909375 0.8566906249999999
vt 0.15625 0.76269140625
vt 0.46484375 0.765625
vt 0.34765625 0.765625
vt 0.3203125 0.71875
vt 0.4921875 0.71875
vt 0.30078125 0.5625
vt 0.18359375 0.5625
vt 0.15625 0.515625
vt 0.328125 0.515625
vt 0.56640625 0.578125
vt 0.44921875 0.578125
vt 0.421875 0.53125
vt 0.59375 0.53125
vt 0.58203125 0.7109375
vt 0.46484375 0.7109375
vt 0.4375 0.6640625
vt 0.609375 0.6640625
vn 0.9922778767136677 -0.12403473458920847 0
vn -0.9922778767136677 -0.12403473458920847 0
vn 0 1 0
vn 0 -1 0
vn 0 -0.12403473458920847 0.9922778767136677
vn 0 -0.12403473458920847 -0.9922778767136677
vn 0.8522878992456429 -0.5230729746406796 0
vn 0 -0.5230729746406796 -0.8522878992456429
vn -0.8522878992456429 -0.5230729746406796 0
vn 0 -0.5230729746406796 0.8522878992456429
vn 0.9922778767136676 0.1240347345892085 0
vn 0 0.1240347345892085 0.9922778767136676
vn -0.9922778767136676 0.1240347345892085 0
vn 0 0.1240347345892085 -0.9922778767136676
vn 0 0.5734623443633284 0.8192319205190404
vn 0.8192319205190404 0.5734623443633284 0
vn 0 0.5734623443633284 -0.8192319205190404
vn -0.8192319205190404 0.5734623443633284 0
usemtl m_f99ed703-d43c-6047-a001-883b893615ae
f 4/1/1 10/2/1 9/3/1
f 4/1/1 9/3/1 3/4/1
f 7/5/2 12/6/2 11/7/2
f 7/5/2 11/7/2 8/8/2
f 19/9/3 17/10/3 18/11/3
f 19/9/3 18/11/3 20/12/3
f 4/13/4 3/14/4 7/15/4
f 4/13/4 7/15/4 8/16/4
f 3/17/5 9/18/5 12/19/5
f 3/17/5 12/19/5 7/20/5
f 8/21/6 11/22/6 10/23/6
f 8/21/6 10/23/6 4/24/6
f 1/25/7 14/26/7 13/27/7
f 1/25/7 13/27/7 2/28/7
f 2/29/8 13/30/8 16/31/8
f 2/29/8 16/31/8 6/32/8
f 6/33/9 16/34/9 15/35/9
f 6/33/9 15/35/9 5/36/9
f 5/37/10 15/38/10 14/39/10
f 5/37/10 14/39/10 1/40/10
f 10/41/11 13/42/11 14/43/11
f 10/41/11 14/43/11 9/44/11
f 9/45/12 14/46/12 15/47/12
f 9/45/12 15/47/12 12/48/12
f 12/49/13 15/50/13 16/51/13
f 12/49/13 16/51/13 11/52/13
f 11/53/14 16/54/14 13/55/14
f 11/53/14 13/55/14 10/56/14
f 17/57/15 19/58/15 5/59/15
f 17/57/15 5/59/15 1/60/15
f 18/61/16 17/62/16 1/63/16
f 18/61/16 1/63/16 2/64/16
f 20/65/17 18/66/17 2/67/17
f 20/65/17 2/67/17 6/68/17
f 19/69/18 20/70/18 6/71/18
f 19/69/18 6/71/18 5/72/18