# Made in Blockbench 4.10.3
mtllib Wagon.mtl

o cuboid
v 0.4375 0.6875 0.5
v 0.4375 0.6875 -0.5
v 0.3125 0 0.4375
v 0.3125 0 -0.4375
v -0.4375 0.6875 0.5
v -0.4375 0.6875 -0.5
v -0.3125 0 0.4375
v -0.3125 0 -0.4375
v -0.3125 0.6875 -0.5
v -0.3125 0.6875 0.5
v -0.22321428571428573 0 0.4375
v -0.22321428571428573 0 -0.4375
v 0.3125 0.6875 -0.5
v 0.3125 0.6875 0.5
v 0.22321428571428573 0 0.4375
v 0.22321428571428573 0 -0.4375
v -0.4375 0.6875 -0.375
v -0.3125 0 -0.328125
v -0.22321428571428573 0 -0.328125
v 0.22321428571428573 0 -0.328125
v 0.3125 0 -0.328125
v 0.4375 0.6875 -0.375
v 0.3125 0.6875 -0.375
v -0.3125 0.6875 -0.375
v -0.4375 0.6875 0.375
v -0.3125 0 0.328125
v -0.22321428571428573 0 0.328125
v 0.22321428571428573 0 0.328125
v 0.3125 0 0.328125
v 0.4375 0.6875 0.375
v 0.3125 0.6875 0.375
v -0.3125 0.6875 0.375
v -0.3125 0.3125 -0.375
v 0.3125 0.3125 0.375
v -0.3125 0.3125 0.375
v 0.3125 0.3125 -0.375
vt 0.484375 0.79188125
vt 0.453125 0.79188125
vt 0.44140625 0.6171875
vt 0.46875 0.6171875
vt 0.25 0.8203125
vt 0.27734375 0.8203125
vt 0.265625 0.99500625
vt 0.234375 0.99500625
vt 0 1
vt 0 0.96875
vt 0.03125 0.96875
vt 0.03125 1
vt 0.475446875 0.375
vt 0.475446875 0.40234375
vt 0.453125 0.40234375
vt 0.453125 0.375
vt 0.03125 0.5546875
vt 0.053571875 0.5546875
vt 0.03125 0.7272703125
vt 0 0.7272703125
vt 0.4375 0.5866453125
vt 0.40625 0.5866453125
vt 0.383928125 0.4140625
vt 0.40625 0.4140625
vt 0.03125 1
vt 0.03125 0.96875
vt 0.1875 0.96875
vt 0.1875 1
vt 0.053571875 0.5546875
vt 0.165178125 0.5546875
vt 0.1875 0.7272703125
vt 0.03125 0.7272703125
vt 0.587053125 0.375
vt 0.587053125 0.40234375
vt 0.475446875 0.40234375
vt 0.475446875 0.375
vt 0.40625 0.5866453125
vt 0.25 0.5866453125
vt 0.272321875 0.4140625
vt 0.383928125 0.4140625
vt 0.1875 1
vt 0.1875 0.96875
vt 0.21875 0.96875
vt 0.21875 1
vt 0.21875 0.7272703125
vt 0.1875 0.7272703125
vt 0.165178125 0.5546875
vt 0.1875 0.5546875
vt 0.609375 0.375
vt 0.609375 0.40234375
vt 0.587053125 0.40234375
vt 0.587053125 0.375
vt 0.25 0.4140625
vt 0.272321875 0.4140625
vt 0.25 0.5866453125
vt 0.21875 0.5866453125
vt 0.27734375 0.8203125
vt 0.44140625 0.8203125
vt 0.453125 0.99500625
vt 0.265625 0.99500625
vt 0.475446875 0.40234375
vt 0.475446875 0.56640625
vt 0.453125 0.56640625
vt 0.453125 0.40234375
vt 0.587053125 0.40234375
vt 0.587053125 0.56640625
vt 0.475446875 0.56640625
vt 0.475446875 0.40234375
vt 0.609375 0.40234375
vt 0.609375 0.56640625
vt 0.587053125 0.56640625
vt 0.587053125 0.40234375
vt 0.453125 0.79188125
vt 0.265625 0.79188125
vt 0.27734375 0.6171875
vt 0.44140625 0.6171875
vt 0.1875 0.96875
vt 0.1875 0.78125
vt 0.21875 0.78125
vt 0.21875 0.96875
vt 0 0.53125
vt 0 0.34375
vt 0.15625 0.34375
vt 0.15625 0.53125
vt 0 0.96875
vt 0 0.78125
vt 0.03125 0.78125
vt 0.03125 0.96875
vt 0.484375 0.99500625
vt 0.453125 0.99500625
vt 0.44140625 0.8203125
vt 0.46875 0.8203125
vt 0.453125 0.59375
vt 0.453125 0.56640625
vt 0.475446875 0.56640625
vt 0.475446875 0.59375
vt 0.475446875 0.59375
vt 0.475446875 0.56640625
vt 0.587053125 0.56640625
vt 0.587053125 0.59375
vt 0.587053125 0.59375
vt 0.587053125 0.56640625
vt 0.609375 0.56640625
vt 0.609375 0.59375
vt 0.25 0.6171875
vt 0.27734375 0.6171875
vt 0.265625 0.79188125
vt 0.234375 0.79188125
vt 0.21875 0.75
vt 0.21875 0.78125
vt 0.1875 0.78125
vt 0.1875 0.75
vt 0.1875 0.75
vt 0.1875 0.78125
vt 0.03125 0.78125
vt 0.03125 0.75
vt 0.03125 0.75
vt 0.03125 0.78125
vt 0 0.78125
vt 0 0.75
vt 0.5 0.90625
vt 0.6875 0.90625
vt 0.6875 1
vt 0.5 1
vt 0.5 0.6875
vt 0.65625 0.6875
vt 0.65625 0.78125
vt 0.5 0.78125
vt 0.5 0.796875
vt 0.6875 0.796875
vt 0.6875 0.890625
vt 0.5 0.890625
vt 0.171875 0.296875
vt 0.328125 0.296875
vt 0.328125 0.390625
vt 0.171875 0.390625
vn 0.9838699100999074 -0.17888543819998318 0
vn -0.9838699100999075 -0.1788854381999832 0
vn 0 1 0
vn 0 -1 0
vn 0 -0.09053574604251853 0.9958932064677039
vn 0 -0.09053574604251853 -0.9958932064677039
vn 0 1 0
vn 0 -0.09053574604251853 0.9958932064677039
vn 0 -1 0
vn 0 -0.09053574604251853 -0.9958932064677039
vn 0 1 0
vn 0 -0.09053574604251853 0.9958932064677039
vn 0 -1 0
vn 0 -0.09053574604251853 -0.9958932064677039
vn -0.9838699100999075 -0.17888543819998318 0
vn 0 -1 0
vn 0 -1 0
vn 0 -1 0
vn 0.9838699100999075 -0.17888543819998318 0
vn 0 1 0
vn 0 1 0
vn 0 1 0
vn -0.9838699100999074 -0.17888543819998318 0
vn 0 -1 0
vn 0 -1 0
vn 0 -1 0
vn 0.9838699100999075 -0.1788854381999832 0
vn 0 1 0
vn 0 1 0
vn 0 1 0
vn 1 0 0
vn 0 0 -1
vn -1 0 0
vn 0 0 1
usemtl m_e3f6c0a8-99ed-9a25-279c-08009a9451ef
f 2/1/1 22/2/1 21/3/1
f 2/1/1 21/3/1 4/4/1
f 8/5/2 18/6/2 17/7/2
f 8/5/2 17/7/2 6/8/2
f 6/9/3 17/10/3 24/11/3
f 6/9/3 24/11/3 9/12/3
f 12/13/4 19/14/4 18/15/4
f 12/13/4 18/15/4 8/16/4
f 7/17/5 11/18/5 10/19/5
f 7/17/5 10/19/5 5/20/5
f 6/21/6 9/22/6 12/23/6
f 6/21/6 12/23/6 8/24/6
f 9/25/7 24/26/7 23/27/7
f 9/25/7 23/27/7 13/28/7
f 11/29/8 15/30/8 14/31/8
f 11/29/8 14/31/8 10/32/8
f 16/33/9 20/34/9 19/35/9
f 16/33/9 19/35/9 12/36/9
f 9/37/10 13/38/10 16/39/10
f 9/37/10 16/39/10 12/40/10
f 13/41/11 23/42/11 22/43/11
f 13/41/11 22/43/11 2/44/11
f 1/45/12 14/46/12 15/47/12
f 1/45/12 15/47/12 3/48/12
f 4/49/13 21/50/13 20/51/13
f 4/49/13 20/51/13 16/52/13
f 4/53/14 16/54/14 13/55/14
f 4/53/14 13/55/14 2/56/14
f 18/57/15 26/58/15 25/59/15
f 18/57/15 25/59/15 17/60/15
f 19/61/16 27/62/16 26/63/16
f 19/61/16 26/63/16 18/64/16
f 20/65/17 28/66/17 27/67/17
f 20/65/17 27/67/17 19/68/17
f 21/69/18 29/70/18 28/71/18
f 21/69/18 28/71/18 20/72/18
f 22/73/19 30/74/19 29/75/19
f 22/73/19 29/75/19 21/76/19
f 23/77/20 31/78/20 30/79/20
f 23/77/20 30/79/20 22/80/20
f 33/81/21 35/82/21 34/83/21
f 33/81/21 34/83/21 36/84/21
f 17/85/22 25/86/22 32/87/22
f 17/85/22 32/87/22 24/88/22
f 5/89/23 25/90/23 26/91/23
f 5/89/23 26/91/23 7/92/23
f 7/93/24 26/94/24 27/95/24
f 7/93/24 27/95/24 11/96/24
f 11/97/25 27/98/25 28/99/25
f 11/97/25 28/99/25 15/100/25
f 15/101/26 28/102/26 29/103/26
f 15/101/26 29/103/26 3/104/26
f 3/105/27 29/106/27 30/107/27
f 3/105/27 30/107/27 1/108/27
f 1/109/28 30/110/28 31/111/28
f 1/109/28 31/111/28 14/112/28
f 14/113/29 31/114/29 32/115/29
f 14/113/29 32/115/29 10/116/29
f 10/117/30 32/118/30 25/119/30
f 10/117/30 25/119/30 5/120/30
f 35/121/31 33/122/31 24/123/31
f 35/121/31 24/123/31 32/124/31
f 34/125/32 35/126/32 32/127/32
f 34/125/32 32/127/32 31/128/32
f 36/129/33 34/130/33 31/131/33
f 36/129/33 31/131/33 23/132/33
f 33/133/34 36/134/34 23/135/34
f 33/133/34 23/135/34 24/136/34