# Made in Blockbench 4.10.3
mtllib throne_hall_wall.mtl

o cuboid
v 0.5 3 0.5
v 0.5 3 -0.5
v 0.5 0 0.5
v 0.5 0 -0.5
v -0.5 3 0.5
v -0.5 3 -0.5
v -0.5 0 0.5
v -0.5 0 -0.5
vt 1 1
vt 0 1
vt 0 0
vt 1 0
vt 1 0
vt 1 1
vt 0 1
vt 0 0
vt 0 0.6666666666666667
vt 1 0.6666666666666667
vt 1 1
vt 0 1
vt 1 0.6666666666666667
vt 1 1
vt 0 1
vt 0 0.6666666666666667
vt 1 0
vt 1 1
vt 0 1
vt 0 0
vt 1 1
vt 0 1
vt 0 0
vt 1 0
vn 1 0 0
vn -1 0 0
vn 0 1 0
vn 0 -1 0
vn 0 0 1
vn 0 0 -1
usemtl m_73ec1cff-a158-679f-208a-10d9080971a0
f 2/1/1 1/2/1 3/3/1
f 2/1/1 3/3/1 4/4/1
f 7/5/2 5/6/2 6/7/2
f 7/5/2 6/7/2 8/8/2
f 5/9/3 1/10/3 2/11/3
f 5/9/3 2/11/3 6/12/3
f 4/13/4 3/14/4 7/15/4
f 4/13/4 7/15/4 8/16/4
f 3/17/5 1/18/5 5/19/5
f 3/17/5 5/19/5 7/20/5
f 6/21/6 2/22/6 4/23/6
f 6/21/6 4/23/6 8/24/6