# Made in Blockbench 4.10.3
mtllib Cave_wall_test_1.mtl

o cuboid
v 0.5 1 0.5
v 0.5 1 -0.5
v 0.5 0 0.5
v 0.5 0 -0.5
v -0.5 1 0.5
v -0.5 1 -0.5
v -0.5 0 0.5
v -0.5 0 -0.5
v -0.5 1 0
v -0.5 0 0
v 0.5 0 0
v 0.5 1 0
v 0 1 -0.5
v 0 1.0625 0
v 0 1 0.5
v 0 0 0.5
v 0 0 0
v 0 0 -0.5
v -0.5 0.5 -0.5
v -0.5625 0.5 0
v -0.5 0.5 0.5
v 0 0.5 0.5625
v 0.5 0.5 0.5
v 0.5625 0.5 0
v 0.5 0.5 -0.5
v 0 0.5 -0.5625
vt 1 0
vt 1 0.5
vt 0.5 0.5
vt 0.5 0
vt 0.5 0
vt 0.5 0.5
vt 0 0.5
vt 0 0
vt 0.5085752216239922 0.9999264601659921
vt 0.5 0.4999999999999999
vt 0.9999264601659922 0.49142477837600773
vt 0.9999264601659924 0.9913499549997943
vt 0 0
vt 0.5 0
vt 0.5 0.5
vt 0 0.5
vt 0.5 0
vt 0.5 0.5
vt 0 0.5
vt 0 0
vt 1 0
vt 1 0.5
vt 0.5 0.5
vt 0.5 0
vt 1 0
vt 1 0.5
vt 0.5 0.5
vt 0.5 0
vt 0 0.5
vt 0.5 0.5
vt 0.5 1
vt 0 1
vt 0.5 0
vt 0.5 0.5
vt 0 0.5
vt 0 0
vt 0.008650045000205608 0.9999264601659924
vt 0.00007353983400770758 0.508575221623992
vt 0.5 0.4999999999999999
vt 0.5085752216239922 0.9999264601659921
vt 0.9913499549997943 0.00007353983400737452
vt 0.9999264601659922 0.49142477837600773
vt 0.5 0.4999999999999999
vt 0.4914247783760079 0.00007353983400759656
vt 0.4914247783760079 0.00007353983400759656
vt 0.5 0.4999999999999999
vt 0.00007353983400770758 0.508575221623992
vt 0.00007353983400748554 0.008650045000205608
vt 1 0
vt 1 0.5
vt 0.5 0.5
vt 0.5 0
vt 1 1
vt 0.5 1
vt 0.5 0.5
vt 1 0.5
vt 1 0.5
vt 0.5 0.5
vt 0.5 0
vt 1 0
vt 0.5 0
vt 0.5 0.5
vt 0 0.5
vt 0 0
vt 0 1
vt 0 0.5
vt 0.5 0.5
vt 0.5 1
vt 0.5 1
vt 0.5 0.5
vt 1 0.5
vt 1 1
vt 0 1
vt 0 0.5
vt 0.5 0.5
vt 0.5 1
vt 0.5 1
vt 0.5 0.5
vt 1 0.5
vt 1 1
vt 0 1
vt 0 0.5
vt 0.5 0.5
vt 0.5 1
vt 0.5 1
vt 0.5 0.5
vt 1 0.5
vt 1 1
vt 0 1
vt 0 0.5
vt 0.5 0.5
vt 0.5 1
vt 0.5 1
vt 0.5 0.5
vt 1 0.5
vt 1 1
vn 0.9922778767136677 0 -0.12403473458920847
vn -0.984731927834662 -0.12309149097933275 -0.12309149097933275
vn -0.12309149097933275 0.984731927834662 -0.12309149097933275
vn 0 -1 0
vn -0.12309149097933275 -0.12309149097933275 0.984731927834662
vn -0.12403473458920847 0 -0.9922778767136677
vn -0.9922778767136677 0 0.12403473458920847
vn 0 -1 0
vn 0.984731927834662 -0.12309149097933275 0.12309149097933275
vn 0 0.9922778767136677 0.12403473458920847
vn 0 0.9922778767136677 -0.12403473458920847
vn 0.12309149097933275 0.984731927834662 0.12309149097933275
vn 0.12403473458920847 0 0.9922778767136677
vn 0 -1 0
vn 0 -1 0
vn 0.12309149097933275 -0.12309149097933275 -0.984731927834662
vn -0.9922778767136677 0 -0.12403473458920847
vn -0.984731927834662 0.12309149097933275 0.12309149097933275
vn -0.12403473458920847 0 0.9922778767136677
vn 0.12309149097933275 0.12309149097933275 0.984731927834662
vn 0.9922778767136677 0 0.12403473458920847
vn 0.984731927834662 0.12309149097933275 -0.12309149097933275
vn 0.12403473458920847 0 -0.9922778767136677
vn -0.12309149097933275 0.12309149097933275 -0.984731927834662
usemtl m_f125d2c2-705f-f92e-880e-27b88f516a16
f 4/1/1 25/2/1 24/3/1
f 4/1/1 24/3/1 11/4/1
f 10/5/2 20/6/2 19/7/2
f 10/5/2 19/7/2 8/8/2
usemtl m_723c7048-d9a4-834a-6e87-30cf558ff384
f 9/9/3 14/10/3 13/11/3
f 9/9/3 13/11/3 6/12/3
usemtl m_22588031-5a73-9223-939c-777418a41ed9
f 8/13/4 18/14/4 17/15/4
f 8/13/4 17/15/4 10/16/4
usemtl m_f125d2c2-705f-f92e-880e-27b88f516a16
f 16/17/5 22/18/5 21/19/5
f 16/17/5 21/19/5 7/20/5
f 8/21/6 19/22/6 26/23/6
f 8/21/6 26/23/6 18/24/6
f 7/25/7 21/26/7 20/27/7
f 7/25/7 20/27/7 10/28/7
usemtl m_22588031-5a73-9223-939c-777418a41ed9
f 10/29/8 17/30/8 16/31/8
f 10/29/8 16/31/8 7/32/8
usemtl m_f125d2c2-705f-f92e-880e-27b88f516a16
f 11/33/9 24/34/9 23/35/9
f 11/33/9 23/35/9 3/36/9
usemtl m_723c7048-d9a4-834a-6e87-30cf558ff384
f 5/37/10 15/38/10 14/39/10
f 5/37/10 14/39/10 9/40/10
f 2/41/11 13/42/11 14/43/11
f 2/41/11 14/43/11 12/44/11
f 12/45/12 14/46/12 15/47/12
f 12/45/12 15/47/12 1/48/12
usemtl m_f125d2c2-705f-f92e-880e-27b88f516a16
f 3/49/13 23/50/13 22/51/13
f 3/49/13 22/51/13 16/52/13
usemtl m_22588031-5a73-9223-939c-777418a41ed9
f 3/53/14 16/54/14 17/55/14
f 3/53/14 17/55/14 11/56/14
f 11/57/15 17/58/15 18/59/15
f 11/57/15 18/59/15 4/60/15
usemtl m_f125d2c2-705f-f92e-880e-27b88f516a16
f 18/61/16 26/62/16 25/63/16
f 18/61/16 25/63/16 4/64/16
f 6/65/17 19/66/17 20/67/17
f 6/65/17 20/67/17 9/68/17
f 9/69/18 20/70/18 21/71/18
f 9/69/18 21/71/18 5/72/18
f 5/73/19 21/74/19 22/75/19
f 5/73/19 22/75/19 15/76/19
f 15/77/20 22/78/20 23/79/20
f 15/77/20 23/79/20 1/80/20
f 1/81/21 23/82/21 24/83/21
f 1/81/21 24/83/21 12/84/21
f 12/85/22 24/86/22 25/87/22
f 12/85/22 25/87/22 2/88/22
f 2/89/23 25/90/23 26/91/23
f 2/89/23 26/91/23 13/92/23
f 13/93/24 26/94/24 19/95/24
f 13/93/24 19/95/24 6/96/24