# Made in Blockbench 4.10.3
mtllib wooden_pillar.mtl

o cuboid
v 0.125 1 -0.25
v 0.125 1 -0.5
v 0.14375 0 -0.23125
v 0.14375 0 -0.51875
v -0.125 1 -0.25
v -0.125 1 -0.5
v -0.14375 0 -0.23125
v -0.14375 0 -0.51875
v 0.125 0.125 -0.25
v 0.125 0.125 -0.5
v -0.125 0.125 -0.5
v -0.125 0.125 -0.25
v 0.11875 0.625 -0.25625
v 0.11875 0.625 -0.49375
v -0.11875 0.625 -0.49375
v -0.11875 0.625 -0.25625
v 0.11875 0.8125 -0.25625
v 0.11875 0.8125 -0.49375
v -0.11875 0.8125 -0.49375
v -0.11875 0.8125 -0.25625
v 0.11875 0.75 -0.006249999999999978
v -0.11875 0.8125 -0.006249999999999978
v 0.11875 0.8125 -0.006249999999999978
v -0.11875 0.75 -0.006249999999999978
vt 0.26093750000000004 0.499228125
vt 0.2515625 0.5624281250000001
vt 0.12656249999999997 0.5624281250000001
vt 0.11718749999999999 0.499228125
vt 0.4609375 0.499228125
vt 0.4515625 0.5624281250000001
vt 0.3265625 0.5624281250000001
vt 0.31718749999999996 0.499228125
vt 0.625 0.875
vt 0.75 0.875
vt 0.75 1
vt 0.625 1
vt 0.34375 0.28125
vt 0.34375 0.4375
vt 0.1875 0.4375
vt 0.1875 0.28125
vt 0.15 0.12428125000000001
vt 0.140625 0.18747812499999994
vt 0.015625 0.18747812499999994
vt 0.0062500000000000056 0.12428125000000001
vt 0.65 0.280484375
vt 0.640625 0.34368125000000005
vt 0.515625 0.34368125000000005
vt 0.50625 0.280484375
vt 0.2515625 0.5624281250000001
vt 0.2484375 0.81245
vt 0.12968749999999996 0.81245
vt 0.12656249999999997 0.5624281250000001
vt 0.640625 0.34368125000000005
vt 0.6375 0.5937
vt 0.51875 0.5937
vt 0.515625 0.34368125000000005
vt 0.4515625 0.5624281250000001
vt 0.44843750000000004 0.81245
vt 0.3296875 0.81245
vt 0.3265625 0.5624281250000001
vt 0.140625 0.18747812499999994
vt 0.13749999999999998 0.4375
vt 0.018750000000000003 0.4375
vt 0.015625 0.18747812499999994
vt 0.2484375 0.81245
vt 0.2484375 0.9062
vt 0.12968749999999996 0.9062
vt 0.12968749999999996 0.81245
vt 0.6375 0.5937
vt 0.6375 0.68745
vt 0.51875 0.68745
vt 0.51875 0.5937
vt 0.44843750000000004 0.81245
vt 0.44843750000000004 0.9062
vt 0.3296875 0.9062
vt 0.3296875 0.81245
vt 0.8125 0.34375
vt 0.8125 0.375
vt 0.6875 0.375
vt 0.6875 0.34375
vt 0.12656249999999997 1
vt 0.12968749999999996 0.9062
vt 0.2484375 0.9062
vt 0.2515625 1
vt 0.515625 0.78125
vt 0.51875 0.68745
vt 0.6375 0.68745
vt 0.640625 0.78125
vt 0.3265625 1
vt 0.3296875 0.9062
vt 0.44843750000000004 0.9062
vt 0.4515625 1
vt 0.6875346540607776 0.5196840624350748
vt 0.6875346540607776 0.42582889803393154
vt 0.8062188113453002 0.421875
vt 0.8124653459392224 0.5155220645046206
vt 0.004687499999999983 0.9062
vt 0.004687499999999983 0.87495
vt 0.12968749999999996 0.81245
vt 0.12968749999999996 0.9062
vt 0.6875 0.71875
vt 0.8125 0.71875
vt 0.8125 0.84375
vt 0.6875 0.84375
vt 0.5734375 0.87495
vt 0.5734375 0.9062
vt 0.44843750000000004 0.9062
vt 0.44843750000000004 0.81245
vt 0.8125 0.6875
vt 0.6875 0.6875
vt 0.6875 0.5625
vt 0.8125 0.5625
vn 0.9889363528682977 0.14834045293024456 0
vn -0.9889363528682977 0.14834045293024456 0
vn 0 1 0
vn 0 -1 0
vn 0 0.14834045293024456 0.9889363528682977
vn 0 0.14834045293024498 -0.9889363528682975
vn 0.9999218841540816 0.012499023551926032 0
vn 0 0.012499023551925979 -0.9999218841540817
vn -0.9999218841540816 0.012499023551926032 0
vn 0 0.012499023551925979 0.9999218841540817
vn 1 0 0
vn 0 0 -1
vn -1 0 0
vn 0 0 1
vn 0.9994449069791543 -0.03331483023263851 0
vn 0 -0.033314830232638364 -0.9994449069791543
vn -0.9994449069791543 -0.03331483023263851 0
vn 0 -0.033314830232638364 0.9994449069791543
vn 1 0 0
vn 0 1 0
vn -1 0 0
vn 0 -0.8944271909999161 0.44721359549995804
usemtl m_db06cd1f-8c1b-3a1d-ba1f-6b01ffa157b8
f 4/1/1 10/2/1 9/3/1
f 4/1/1 9/3/1 3/4/1
f 7/5/2 12/6/2 11/7/2
f 7/5/2 11/7/2 8/8/2
f 5/9/3 1/10/3 2/11/3
f 5/9/3 2/11/3 6/12/3
f 4/13/4 3/14/4 7/15/4
f 4/13/4 7/15/4 8/16/4
f 3/17/5 9/18/5 12/19/5
f 3/17/5 12/19/5 7/20/5
f 8/21/6 11/22/6 10/23/6
f 8/21/6 10/23/6 4/24/6
f 10/25/7 14/26/7 13/27/7
f 10/25/7 13/27/7 9/28/7
f 11/29/8 15/30/8 14/31/8
f 11/29/8 14/31/8 10/32/8
f 12/33/9 16/34/9 15/35/9
f 12/33/9 15/35/9 11/36/9
f 9/37/10 13/38/10 16/39/10
f 9/37/10 16/39/10 12/40/10
f 14/41/11 18/42/11 17/43/11
f 14/41/11 17/43/11 13/44/11
f 15/45/12 19/46/12 18/47/12
f 15/45/12 18/47/12 14/48/12
f 16/49/13 20/50/13 19/51/13
f 16/49/13 19/51/13 15/52/13
f 21/53/14 23/54/14 22/55/14
f 21/53/14 22/55/14 24/56/14
f 1/57/15 17/58/15 18/59/15
f 1/57/15 18/59/15 2/60/15
f 2/61/16 18/62/16 19/63/16
f 2/61/16 19/63/16 6/64/16
f 6/65/17 19/66/17 20/67/17
f 6/65/17 20/67/17 5/68/17
f 5/69/18 20/70/18 17/71/18
f 5/69/18 17/71/18 1/72/18
f 23/73/19 21/74/19 13/75/19
f 23/73/19 13/75/19 17/76/19
f 22/77/20 23/78/20 17/79/20
f 22/77/20 17/79/20 20/80/20
f 24/81/21 22/82/21 20/83/21
f 24/81/21 20/83/21 16/84/21
f 21/85/22 24/86/22 16/87/22
f 21/85/22 16/87/22 13/88/22