# Made in Blockbench 4.10.3
mtllib stockade_ordinary.mtl

o cuboid
v 0.5 2.5625 0.5
v 0.5 2.5625 -0.5
v 0.5 0 0.5
v 0.5 0 -0.5
v -0.5 2.5625 0.5
v -0.5 2.5625 -0.5
v -0.5 0 0.5
v -0.5 0 -0.5
v 0.345 2.5 0.345
v 0.345 2.5 -0.345
v -0.345 2.5 0.345
v -0.345 2.5 -0.345
vt 0.125 1
vt 0 1
vt 0 0.6796875
vt 0.125 0.6796875
vt 0.2578125 0.6796875
vt 0.2578125 1
vt 0.1328125 1
vt 0.1328125 0.6796875
vt 0.15609375 0.564734375
vt 0.24234375 0.564734375
vt 0.24234375 0.650984375
vt 0.15609375 0.650984375
vt 0.3984375 0.546875
vt 0.3984375 0.671875
vt 0.2734375 0.671875
vt 0.2734375 0.546875
vt 0.390625 0.6796875
vt 0.390625 1
vt 0.265625 1
vt 0.265625 0.6796875
vt 0.125 0.671875
vt 0 0.671875
vt 0 0.3515625
vt 0.125 0.3515625
vt 0.24234375 0.564734375
vt 0.15609375 0.564734375
vt 0.13671875 0.54384375
vt 0.26171875 0.54384375
vt 0.24234375 0.650984375
vt 0.24234375 0.564734375
vt 0.263234375 0.545359375
vt 0.263234375 0.670359375
vt 0.15609375 0.650984375
vt 0.24234375 0.650984375
vt 0.26171875 0.671875
vt 0.13671875 0.671875
vt 0.15609375 0.564734375
vt 0.15609375 0.650984375
vt 0.135203125 0.670359375
vt 0.135203125 0.545359375
vn 1 0 0
vn -1 0 0
vn 0 1 0
vn 0 -1 0
vn 0 0 1
vn 0 0 -1
vn 0 0.9274414720324123 -0.3739683354969404
vn -0.3739683354969404 0.9274414720324123 0
vn 0 0.9274414720324123 0.3739683354969404
vn 0.3739683354969404 0.9274414720324123 0
usemtl m_9ca25bb8-9e8b-b298-51d6-dea6696c1918
f 2/1/1 1/2/1 3/3/1
f 2/1/1 3/3/1 4/4/1
f 7/5/2 5/6/2 6/7/2
f 7/5/2 6/7/2 8/8/2
f 11/9/3 9/10/3 10/11/3
f 11/9/3 10/11/3 12/12/3
f 4/13/4 3/14/4 7/15/4
f 4/13/4 7/15/4 8/16/4
f 3/17/5 1/18/5 5/19/5
f 3/17/5 5/19/5 7/20/5
f 6/21/6 2/22/6 4/23/6
f 6/21/6 4/23/6 8/24/6
f 9/25/7 11/26/7 5/27/7
f 9/25/7 5/27/7 1/28/7
f 10/29/8 9/30/8 1/31/8
f 10/29/8 1/31/8 2/32/8
f 12/33/9 10/34/9 2/35/9
f 12/33/9 2/35/9 6/36/9
f 11/37/10 12/38/10 6/39/10
f 11/37/10 6/39/10 5/40/10