# Made in Blockbench 4.10.3
mtllib Wagon.mtl

o cuboid
v 0.4375 0.6875 0.5
v 0.4375 0.6875 -0.5
v 0.3125 0 0.4375
v 0.3125 0 -0.4375
v -0.4375 0.6875 0.5
v -0.4375 0.6875 -0.5
v -0.3125 0 0.4375
v -0.3125 0 -0.4375
v -0.3125 0.6875 -0.5
v -0.3125 0.6875 0.5
v -0.22321428571428573 0 0.4375
v -0.22321428571428573 0 -0.4375
v 0.3125 0.6875 -0.5
v 0.3125 0.6875 0.5
v 0.22321428571428573 0 0.4375
v 0.22321428571428573 0 -0.4375
v -0.4375 0.6875 -0.375
v -0.3125 0 -0.328125
v -0.22321428571428573 0 -0.328125
v 0.22321428571428573 0 -0.328125
v 0.3125 0 -0.328125
v 0.4375 0.6875 -0.375
v -0.4375 0.6875 0.375
v -0.3125 0 0.328125
v -0.22321428571428573 0 0.328125
v 0.22321428571428573 0 0.328125
v 0.3125 0 0.328125
v 0.4375 0.6875 0.375
v -0.3125 0.6875 -0.375
v 0.3125 0.6875 0.375
v -0.3125 0.6875 0.375
v 0.3125 0.6875 -0.375
v 0 0.6875 -0.5
v 0 0.6875 -0.375
v 0 0.6875 0.375
v 0 0.6875 0.5
v 0 0 0.4375
v 0 0 0.328125
v 0 0 -0.328125
v 0 0 -0.4375
v 0.4375 0.6875 0
v 0.3125 0 0
v 0.22321428571428573 0 0
v 0 0 0
v -0.22321428571428573 0 0
v -0.3125 0 0
v -0.4375 0.6875 0
v -0.3125 0.6875 0
v 0 0.75 0
v 0.3125 0.6875 0
vt 0.484375 0.79188125
vt 0.453125 0.79188125
vt 0.44140625 0.6171875
vt 0.46875 0.6171875
vt 0.25 0.8203125
vt 0.27734375 0.8203125
vt 0.265625 0.99500625
vt 0.234375 0.99500625
vt 0 1
vt 0 0.96875
vt 0.03125 0.96875
vt 0.03125 1
vt 0.475446875 0.375
vt 0.475446875 0.40234375
vt 0.453125 0.40234375
vt 0.453125 0.375
vt 0.03125 0.5546875
vt 0.053571875 0.5546875
vt 0.03125 0.7272703125
vt 0 0.7272703125
vt 0.4375 0.5866453125
vt 0.40625 0.5866453125
vt 0.383928125 0.4140625
vt 0.40625 0.4140625
vt 0.03125 0.96875
vt 0.109375 0.96875
vt 0.109375 1
vt 0.03125 1
vt 0.053571875 0.5546875
vt 0.109375 0.5546875
vt 0.109375 0.7272703125
vt 0.03125 0.7272703125
vt 0.475446875 0.375
vt 0.53125 0.375
vt 0.53125 0.40234375
vt 0.475446875 0.40234375
vt 0.40625 0.5866453125
vt 0.328125 0.5866453125
vt 0.328125 0.4140625
vt 0.383928125 0.4140625
vt 0.1875 1
vt 0.1875 0.96875
vt 0.21875 0.96875
vt 0.21875 1
vt 0.21875 0.7272703125
vt 0.1875 0.7272703125
vt 0.165178125 0.5546875
vt 0.1875 0.5546875
vt 0.609375 0.375
vt 0.609375 0.40234375
vt 0.587053125 0.40234375
vt 0.587053125 0.375
vt 0.25 0.4140625
vt 0.272321875 0.4140625
vt 0.25 0.5866453125
vt 0.21875 0.5866453125
vt 0.453125 0.99500625
vt 0.359375 0.99500625
vt 0.359375 0.8203125
vt 0.44140625 0.8203125
vt 0.453125 0.56640625
vt 0.453125 0.484375
vt 0.475446875 0.484375
vt 0.475446875 0.56640625
vt 0.475446875 0.56640625
vt 0.475446875 0.484375
vt 0.53125 0.484375
vt 0.53125 0.56640625
vt 0.587053125 0.56640625
vt 0.587053125 0.484375
vt 0.609375 0.484375
vt 0.609375 0.56640625
vt 0.27734375 0.6171875
vt 0.359375 0.6171875
vt 0.359375 0.79188125
vt 0.265625 0.79188125
vt 0.21875 0.78125
vt 0.21875 0.875
vt 0.1875 0.875
vt 0.1875 0.78125
vt 0.078125 0.34375
vt 0.078125 0.4375
vt 0 0.4375
vt 0 0.34375
vt 0.03125 0.78125
vt 0.03125 0.875
vt 0 0.875
vt 0 0.78125
vt 0.484375 0.99500625
vt 0.453125 0.99500625
vt 0.44140625 0.8203125
vt 0.46875 0.8203125
vt 0.453125 0.59375
vt 0.453125 0.56640625
vt 0.475446875 0.56640625
vt 0.475446875 0.59375
vt 0.475446875 0.56640625
vt 0.53125 0.56640625
vt 0.53125 0.59375
vt 0.475446875 0.59375
vt 0.587053125 0.59375
vt 0.587053125 0.56640625
vt 0.609375 0.56640625
vt 0.609375 0.59375
vt 0.25 0.6171875
vt 0.27734375 0.6171875
vt 0.265625 0.79188125
vt 0.234375 0.79188125
vt 0.21875 0.75
vt 0.21875 0.78125
vt 0.1875 0.78125
vt 0.1875 0.75
vt 0.03125 0.75
vt 0.109375 0.75
vt 0.109375 0.78125
vt 0.03125 0.78125
vt 0.03125 0.75
vt 0.03125 0.78125
vt 0 0.78125
vt 0 0.75
vt 0.1875 1
vt 0.109375 1
vt 0.109375 0.96875
vt 0.1875 0.96875
vt 0.15625 0.34375
vt 0.15625 0.4375
vt 0.078125 0.4375
vt 0.078125 0.34375
vt 0.1875 0.78125
vt 0.109375 0.78125
vt 0.109375 0.75
vt 0.1875 0.75
vt 0.1875 0.7272703125
vt 0.109375 0.7272703125
vt 0.109375 0.5546875
vt 0.165178125 0.5546875
vt 0.587053125 0.59375
vt 0.53125 0.59375
vt 0.53125 0.56640625
vt 0.587053125 0.56640625
vt 0.53125 0.56640625
vt 0.53125 0.484375
vt 0.587053125 0.484375
vt 0.587053125 0.56640625
vt 0.587053125 0.40234375
vt 0.53125 0.40234375
vt 0.53125 0.375
vt 0.587053125 0.375
vt 0.272321875 0.4140625
vt 0.328125 0.4140625
vt 0.328125 0.5866453125
vt 0.25 0.5866453125
vt 0.453125 0.79188125
vt 0.359375 0.79188125
vt 0.359375 0.6171875
vt 0.44140625 0.6171875
vt 0.609375 0.40234375
vt 0.609375 0.484375
vt 0.587053125 0.484375
vt 0.587053125 0.40234375
vt 0.587053125 0.40234375
vt 0.587053125 0.484375
vt 0.53125 0.484375
vt 0.53125 0.40234375
vt 0.53125 0.40234375
vt 0.53125 0.484375
vt 0.475446875 0.484375
vt 0.475446875 0.40234375
vt 0.475446875 0.40234375
vt 0.475446875 0.484375
vt 0.453125 0.484375
vt 0.453125 0.40234375
vt 0.27734375 0.8203125
vt 0.359375 0.8203125
vt 0.359375 0.99500625
vt 0.265625 0.99500625
vt 0 0.96875
vt 0 0.875
vt 0.03125 0.875
vt 0.03125 0.96875
vt 0 0.53125
vt 0 0.4375
vt 0.078125 0.4375
vt 0.078125 0.53125
vt 0.078125 0.53125
vt 0.078125 0.4375
vt 0.15625 0.4375
vt 0.15625 0.53125
vt 0.1875 0.96875
vt 0.1875 0.875
vt 0.21875 0.875
vt 0.21875 0.96875
vn 0.9838699100999074 -0.17888543819998318 0
vn -0.9838699100999075 -0.1788854381999832 0
vn 0 1 0
vn 0 -1 0
vn 0 -0.09053574604251853 0.9958932064677039
vn 0 -0.09053574604251853 -0.9958932064677039
vn 0 1 0
vn 0 -0.09053574604251853 0.9958932064677039
vn 0 -1 0
vn 0 -0.09053574604251853 -0.9958932064677039
vn 0 1 0
vn 0 -0.09053574604251853 0.9958932064677039
vn 0 -1 0
vn 0 -0.09053574604251853 -0.9958932064677039
vn -0.9838699100999075 -0.17888543819998318 0
vn 0 -1 0
vn 0 -1 0
vn 0 -1 0
vn 0.9838699100999075 -0.17888543819998318 0
vn 0 1 0
vn -0.1935483870967742 0.967741935483871 0.16129032258064516
vn 0 1 0
vn -0.9838699100999074 -0.17888543819998318 0
vn 0 -1 0
vn 0 -1 0
vn 0 -1 0
vn 0.9838699100999075 -0.1788854381999832 0
vn 0 1 0
vn 0 1 0
vn 0 1 0
vn 0 1 0
vn 0.19611613513818407 0.9805806756909203 0
vn 0 1 0
vn 0 -0.09053574604251853 0.9958932064677039
vn 0 -1 0
vn 0 -1 0
vn 0 -1 0
vn 0 -0.09053574604251853 -0.9958932064677039
vn 0.9838699100999075 -0.17888543819998318 0
vn 0 -1 0
vn 0 -1 0
vn 0 -1 0
vn 0 -1 0
vn -0.9838699100999075 -0.17888543819998318 0
vn 0 1 0
vn -0.19611613513818407 0.9805806756909203 0
vn 0.1935483870967742 0.967741935483871 -0.16129032258064516
vn 0 1 0
usemtl m_e3f6c0a8-99ed-9a25-279c-08009a9451ef
f 2/1/1 22/2/1 21/3/1
f 2/1/1 21/3/1 4/4/1
f 8/5/2 18/6/2 17/7/2
f 8/5/2 17/7/2 6/8/2
f 6/9/3 17/10/3 29/11/3
f 6/9/3 29/11/3 9/12/3
f 12/13/4 19/14/4 18/15/4
f 12/13/4 18/15/4 8/16/4
f 7/17/5 11/18/5 10/19/5
f 7/17/5 10/19/5 5/20/5
f 6/21/6 9/22/6 12/23/6
f 6/21/6 12/23/6 8/24/6
f 29/25/7 34/26/7 33/27/7
f 29/25/7 33/27/7 9/28/7
f 11/29/8 37/30/8 36/31/8
f 11/29/8 36/31/8 10/32/8
f 12/33/9 40/34/9 39/35/9
f 12/33/9 39/35/9 19/36/9
f 9/37/10 33/38/10 40/39/10
f 9/37/10 40/39/10 12/40/10
f 13/41/11 32/42/11 22/43/11
f 13/41/11 22/43/11 2/44/11
f 1/45/12 14/46/12 15/47/12
f 1/45/12 15/47/12 3/48/12
f 4/49/13 21/50/13 20/51/13
f 4/49/13 20/51/13 16/52/13
f 4/53/14 16/54/14 13/55/14
f 4/53/14 13/55/14 2/56/14
f 23/57/15 47/58/15 46/59/15
f 23/57/15 46/59/15 24/60/15
f 24/61/16 46/62/16 45/63/16
f 24/61/16 45/63/16 25/64/16
f 25/65/17 45/66/17 44/67/17
f 25/65/17 44/67/17 38/68/17
f 26/69/18 43/70/18 42/71/18
f 26/69/18 42/71/18 27/72/18
f 27/73/19 42/74/19 41/75/19
f 27/73/19 41/75/19 28/76/19
f 28/77/20 41/78/20 50/79/20
f 28/77/20 50/79/20 30/80/20
f 35/81/21 49/82/21 48/83/21
f 35/81/21 48/83/21 31/84/21
f 31/85/22 48/86/22 47/87/22
f 31/85/22 47/87/22 23/88/22
f 5/89/23 23/90/23 24/91/23
f 5/89/23 24/91/23 7/92/23
f 7/93/24 24/94/24 25/95/24
f 7/93/24 25/95/24 11/96/24
f 25/97/25 38/98/25 37/99/25
f 25/97/25 37/99/25 11/100/25
f 15/101/26 26/102/26 27/103/26
f 15/101/26 27/103/26 3/104/26
f 3/105/27 27/106/27 28/107/27
f 3/105/27 28/107/27 1/108/27
f 1/109/28 28/110/28 30/111/28
f 1/109/28 30/111/28 14/112/28
f 10/113/29 36/114/29 35/115/29
f 10/113/29 35/115/29 31/116/29
f 10/117/30 31/118/30 23/119/30
f 10/117/30 23/119/30 5/120/30
f 13/121/31 33/122/31 34/123/31
f 13/121/31 34/123/31 32/124/31
f 30/125/32 50/126/32 49/127/32
f 30/125/32 49/127/32 35/128/32
f 30/129/33 35/130/33 36/131/33
f 30/129/33 36/131/33 14/132/33
f 14/133/34 36/134/34 37/135/34
f 14/133/34 37/135/34 15/136/34
f 15/137/35 37/138/35 38/139/35
f 15/137/35 38/139/35 26/140/35
f 38/141/36 44/142/36 43/143/36
f 38/141/36 43/143/36 26/144/36
f 20/145/37 39/146/37 40/147/37
f 20/145/37 40/147/37 16/148/37
f 16/149/38 40/150/38 33/151/38
f 16/149/38 33/151/38 13/152/38
f 22/153/39 41/154/39 42/155/39
f 22/153/39 42/155/39 21/156/39
f 21/157/40 42/158/40 43/159/40
f 21/157/40 43/159/40 20/160/40
f 20/161/41 43/162/41 44/163/41
f 20/161/41 44/163/41 39/164/41
f 39/165/42 44/166/42 45/167/42
f 39/165/42 45/167/42 19/168/42
f 19/169/43 45/170/43 46/171/43
f 19/169/43 46/171/43 18/172/43
f 18/173/44 46/174/44 47/175/44
f 18/173/44 47/175/44 17/176/44
f 17/177/45 47/178/45 48/179/45
f 17/177/45 48/179/45 29/180/45
f 29/181/46 48/182/46 49/183/46
f 29/181/46 49/183/46 34/184/46
f 34/185/47 49/186/47 50/187/47
f 34/185/47 50/187/47 32/188/47
f 32/189/48 50/190/48 41/191/48
f 32/189/48 41/191/48 22/192/48