# Made in Blockbench 4.10.3
mtllib iron_bars.mtl

o cuboid
v 0.0625 1 -0.25
v 0.0625 1 -0.375
v 0.0625 0 -0.25
v 0.0625 0 -0.375
v -0.0625 1 -0.25
v -0.0625 1 -0.375
v -0.0625 0 -0.25
v -0.0625 0 -0.375
v -0.0625 0.6875 -0.3125
v -0.0625 0.6875 -0.4375
v 0.0625 0.6875 -0.4375
v 0.0625 0.6875 -0.3125
v -0.0625 0.28125 -0.1875
v -0.0625 0.28125 -0.3125
v 0.0625 0.28125 -0.3125
v 0.0625 0.28125 -0.1875
vt 0.4583333333333333 1
vt 0.4583333333333333 0.6875
vt 0.5416666666666666 0.6875
vt 0.5416666666666666 1
vt 0.4583333333333333 1
vt 0.4583333333333333 0.6875
vt 0.5416666666666666 0.6875
vt 0.5416666666666666 1
vt 0.4583333333333333 0.875
vt 0.5416666666666666 0.875
vt 0.5416666666666666 0.9583333333333334
vt 0.4583333333333333 0.9583333333333334
vt 0.5416666666666666 0.875
vt 0.5416666666666666 0.9583333333333334
vt 0.4583333333333333 0.9583333333333334
vt 0.4583333333333333 0.875
vt 0.4583333333333333 0.9795666666666666
vt 0.4583333333333333 0.6770269059617837
vt 0.5416666666666666 0.6770269059617837
vt 0.5416666666666666 0.9795666666666666
vt 0.4583333333333333 1
vt 0.4583333333333333 0.6974591480207235
vt 0.5416666666666666 0.6974591480207235
vt 0.5416666666666666 1
vt 0.4583333333333333 0.6875
vt 0.4583333333333333 0.28125
vt 0.5416666666666666 0.28125
vt 0.5416666666666666 0.6875
vt 0.4583333333333333 0.6974591480207235
vt 0.4583333333333333 0.2939507008633466
vt 0.5416666666666666 0.2939507008633466
vt 0.5416666666666666 0.6974591480207235
vt 0.4583333333333333 0.6875
vt 0.4583333333333333 0.28125
vt 0.5416666666666666 0.28125
vt 0.5416666666666666 0.6875
vt 0.4583333333333333 0.6770269059617837
vt 0.4583333333333333 0.27351398095653423
vt 0.5416666666666666 0.27351398095653423
vt 0.5416666666666666 0.6770269059617837
vt 0.5416666666666666 0
vt 0.5416666666666666 0.28125
vt 0.4583333333333333 0.28125
vt 0.4583333333333333 0
vt 0.5416666666666666 0.02044166666666669
vt 0.5416666666666666 0.2939507008633466
vt 0.4583333333333333 0.2939507008633466
vt 0.4583333333333333 0.02044166666666669
vt 0.5416666666666666 0
vt 0.5416666666666666 0.28125
vt 0.4583333333333333 0.28125
vt 0.4583333333333333 0
vt 0.5416666666666666 0
vt 0.5416666666666666 0.27351398095653423
vt 0.4583333333333333 0.27351398095653423
vt 0.4583333333333333 0
vn 1 0 0
vn -1 0 0
vn 0 1 0
vn 0 -1 0
vn 0 -0.19611613513818404 0.9805806756909202
vn 0 0.19611613513818404 -0.9805806756909202
vn -1 0 0
vn 0 -0.29408584883752314 -0.9557790087219502
vn 1 0 0
vn 0 0.29408584883752314 0.9557790087219502
vn -1 0 0
vn 0 0.21693045781865616 -0.9761870601839528
vn 1 0 0
vn 0 -0.21693045781865616 0.9761870601839528
usemtl m_f57b6cd5-eb04-b0a6-80ed-540245553d10
f 1/1/1 12/2/1 11/3/1
f 1/1/1 11/3/1 2/4/1
f 6/5/2 10/6/2 9/7/2
f 6/5/2 9/7/2 5/8/2
f 5/9/3 1/10/3 2/11/3
f 5/9/3 2/11/3 6/12/3
f 4/13/4 3/14/4 7/15/4
f 4/13/4 7/15/4 8/16/4
f 5/17/5 9/18/5 12/19/5
f 5/17/5 12/19/5 1/20/5
f 2/21/6 11/22/6 10/23/6
f 2/21/6 10/23/6 6/24/6
f 10/25/7 14/26/7 13/27/7
f 10/25/7 13/27/7 9/28/7
f 11/29/8 15/30/8 14/31/8
f 11/29/8 14/31/8 10/32/8
f 12/33/9 16/34/9 15/35/9
f 12/33/9 15/35/9 11/36/9
f 9/37/10 13/38/10 16/39/10
f 9/37/10 16/39/10 12/40/10
f 7/41/11 13/42/11 14/43/11
f 7/41/11 14/43/11 8/44/11
f 8/45/12 14/46/12 15/47/12
f 8/45/12 15/47/12 4/48/12
f 4/49/13 15/50/13 16/51/13
f 4/49/13 16/51/13 3/52/13
f 3/53/14 16/54/14 13/55/14
f 3/53/14 13/55/14 7/56/14
o cuboid
v 0.0625 1 0.25
v 0.0625 1 0.125
v 0.0625 0 0.25
v 0.0625 0 0.125
v -0.0625 1 0.25
v -0.0625 1 0.125
v -0.0625 0 0.25
v -0.0625 0 0.125
v -0.0625 0.6875 0.23125
v -0.0625 0.6875 0.10625000000000004
v 0.0625 0.6875 0.10625000000000004
v 0.0625 0.6875 0.23125
v -0.0625 0.28125 0.26874999999999993
v -0.0625 0.28125 0.14375
v 0.0625 0.28125 0.14375
v 0.0625 0.28125 0.26874999999999993
vt 0.4583333333333333 1
vt 0.4583333333333333 0.6875
vt 0.5416666666666666 0.6875
vt 0.5416666666666666 1
vt 0.4583333333333333 1
vt 0.4583333333333333 0.6875
vt 0.5416666666666666 0.6875
vt 0.5416666666666666 1
vt 0.4583333333333333 0.875
vt 0.5416666666666666 0.875
vt 0.5416666666666666 0.9583333333333334
vt 0.4583333333333333 0.9583333333333334
vt 0.5416666666666666 0.875
vt 0.5416666666666666 0.9583333333333334
vt 0.4583333333333333 0.9583333333333334
vt 0.4583333333333333 0.875
vt 0.4583333333333333 0.9795666666666666
vt 0.4583333333333333 0.6770269059617837
vt 0.5416666666666666 0.6770269059617837
vt 0.5416666666666666 0.9795666666666666
vt 0.4583333333333333 1
vt 0.4583333333333333 0.6974591480207235
vt 0.5416666666666666 0.6974591480207235
vt 0.5416666666666666 1
vt 0.4583333333333333 0.6875
vt 0.4583333333333333 0.28125
vt 0.5416666666666666 0.28125
vt 0.5416666666666666 0.6875
vt 0.4583333333333333 0.6974591480207235
vt 0.4583333333333333 0.2939507008633466
vt 0.5416666666666666 0.2939507008633466
vt 0.5416666666666666 0.6974591480207235
vt 0.4583333333333333 0.6875
vt 0.4583333333333333 0.28125
vt 0.5416666666666666 0.28125
vt 0.5416666666666666 0.6875
vt 0.4583333333333333 0.6770269059617837
vt 0.4583333333333333 0.27351398095653423
vt 0.5416666666666666 0.27351398095653423
vt 0.5416666666666666 0.6770269059617837
vt 0.5416666666666666 0
vt 0.5416666666666666 0.28125
vt 0.4583333333333333 0.28125
vt 0.4583333333333333 0
vt 0.5416666666666666 0.02044166666666669
vt 0.5416666666666666 0.2939507008633466
vt 0.4583333333333333 0.2939507008633466
vt 0.4583333333333333 0.02044166666666669
vt 0.5416666666666666 0
vt 0.5416666666666666 0.28125
vt 0.4583333333333333 0.28125
vt 0.4583333333333333 0
vt 0.5416666666666666 0
vt 0.5416666666666666 0.27351398095653423
vt 0.4583333333333333 0.27351398095653423
vt 0.4583333333333333 0
vn 1 0 0
vn -1 0 0
vn 0 1 0
vn 0 -1 0
vn 0 -0.05989229072794671 0.9982048454657788
vn 0 0.0598922907279466 -0.9982048454657788
vn -1 0 0
vn 0 -0.09191692421704335 -0.9957666790179709
vn 1 0 0
vn 0 0.09191692421704335 0.9957666790179709
vn -1 0 0
vn 0 0.06651901052377392 -0.997785157856609
vn 1 0 0
vn 0 -0.06651901052377379 0.997785157856609
usemtl m_f57b6cd5-eb04-b0a6-80ed-540245553d10
f 17/57/15 28/58/15 27/59/15
f 17/57/15 27/59/15 18/60/15
f 22/61/16 26/62/16 25/63/16
f 22/61/16 25/63/16 21/64/16
f 21/65/17 17/66/17 18/67/17
f 21/65/17 18/67/17 22/68/17
f 20/69/18 19/70/18 23/71/18
f 20/69/18 23/71/18 24/72/18
f 21/73/19 25/74/19 28/75/19
f 21/73/19 28/75/19 17/76/19
f 18/77/20 27/78/20 26/79/20
f 18/77/20 26/79/20 22/80/20
f 26/81/21 30/82/21 29/83/21
f 26/81/21 29/83/21 25/84/21
f 27/85/22 31/86/22 30/87/22
f 27/85/22 30/87/22 26/88/22
f 28/89/23 32/90/23 31/91/23
f 28/89/23 31/91/23 27/92/23
f 25/93/24 29/94/24 32/95/24
f 25/93/24 32/95/24 28/96/24
f 23/97/25 29/98/25 30/99/25
f 23/97/25 30/99/25 24/100/25
f 24/101/26 30/102/26 31/103/26
f 24/101/26 31/103/26 20/104/26
f 20/105/27 31/106/27 32/107/27
f 20/105/27 32/107/27 19/108/27
f 19/109/28 32/110/28 29/111/28
f 19/109/28 29/111/28 23/112/28
o cuboid
v 0.0375 0.18750000000000022 0.5
v 0.0375 0.3125000000000002 0.5
v 0.0375 0.1875 -0.49999999999999994
v 0.0375 0.3125 -0.49999999999999994
v -0.0375 0.18750000000000022 0.5
v -0.0375 0.3125000000000002 0.5
v -0.0375 0.1875 -0.49999999999999994
v -0.0375 0.3125 -0.49999999999999994
v -0.0375 0.20625000000000016 0.1875
v -0.0375 0.3312500000000001 0.1875
v 0.0375 0.3312500000000001 0.1875
v 0.0375 0.20625000000000016 0.1875
v -0.0375 0.1687500000000001 -0.21875
v -0.0375 0.29375000000000007 -0.21875
v 0.0375 0.29375000000000007 -0.21875
v 0.0375 0.1687500000000001 -0.21875
vt 0.4583333333333333 1
vt 0.4583333333333333 0.6875
vt 0.5416666666666666 0.6875
vt 0.5416666666666666 1
vt 0.4583333333333333 1
vt 0.4583333333333333 0.6875
vt 0.5416666666666666 0.6875
vt 0.5416666666666666 1
vt 0.4583333333333333 0.875
vt 0.5416666666666666 0.875
vt 0.5416666666666666 0.9583333333333334
vt 0.4583333333333333 0.9583333333333334
vt 0.5416666666666666 0.875
vt 0.5416666666666666 0.9583333333333334
vt 0.4583333333333333 0.9583333333333334
vt 0.4583333333333333 0.875
vt 0.4583333333333333 0.9795666666666666
vt 0.4583333333333333 0.6770269059617837
vt 0.5416666666666666 0.6770269059617837
vt 0.5416666666666666 0.9795666666666666
vt 0.4583333333333333 1
vt 0.4583333333333333 0.6974591480207235
vt 0.5416666666666666 0.6974591480207235
vt 0.5416666666666666 1
vt 0.4583333333333333 0.6875
vt 0.4583333333333333 0.28125
vt 0.5416666666666666 0.28125
vt 0.5416666666666666 0.6875
vt 0.4583333333333333 0.6974591480207235
vt 0.4583333333333333 0.2939507008633466
vt 0.5416666666666666 0.2939507008633466
vt 0.5416666666666666 0.6974591480207235
vt 0.4583333333333333 0.6875
vt 0.4583333333333333 0.28125
vt 0.5416666666666666 0.28125
vt 0.5416666666666666 0.6875
vt 0.4583333333333333 0.6770269059617837
vt 0.4583333333333333 0.27351398095653423
vt 0.5416666666666666 0.27351398095653423
vt 0.5416666666666666 0.6770269059617837
vt 0.5416666666666666 0
vt 0.5416666666666666 0.28125
vt 0.4583333333333333 0.28125
vt 0.4583333333333333 0
vt 0.5416666666666666 0.02044166666666669
vt 0.5416666666666666 0.2939507008633466
vt 0.4583333333333333 0.2939507008633466
vt 0.4583333333333333 0.02044166666666669
vt 0.5416666666666666 0
vt 0.5416666666666666 0.28125
vt 0.4583333333333333 0.28125
vt 0.4583333333333333 0
vt 0.5416666666666666 0
vt 0.5416666666666666 0.27351398095653423
vt 0.4583333333333333 0.27351398095653423
vt 0.4583333333333333 0
vn 1 0 0
vn -1 0 0
vn 0 2.220446049250313e-16 1
vn 0 -2.220446049250313e-16 -1
vn 0 -0.9982048454657788 -0.059892290727946496
vn 0 0.9982048454657788 0.059892290727946385
vn -1 0 0
vn 0 0.9957666790179709 -0.09191692421704359
vn 1 0 0
vn 0 -0.9957666790179709 0.09191692421704359
vn -1 0 0
vn 0 0.9977851578566089 0.06651901052377371
vn 1 0 0
vn 0 -0.9977851578566089 -0.06651901052377358
usemtl m_f57b6cd5-eb04-b0a6-80ed-540245553d10
f 33/113/29 44/114/29 43/115/29
f 33/113/29 43/115/29 34/116/29
f 38/117/30 42/118/30 41/119/30
f 38/117/30 41/119/30 37/120/30
f 37/121/31 33/122/31 34/123/31
f 37/121/31 34/123/31 38/124/31
f 36/125/32 35/126/32 39/127/32
f 36/125/32 39/127/32 40/128/32
f 37/129/33 41/130/33 44/131/33
f 37/129/33 44/131/33 33/132/33
f 34/133/34 43/134/34 42/135/34
f 34/133/34 42/135/34 38/136/34
f 42/137/35 46/138/35 45/139/35
f 42/137/35 45/139/35 41/140/35
f 43/141/36 47/142/36 46/143/36
f 43/141/36 46/143/36 42/144/36
f 44/145/37 48/146/37 47/147/37
f 44/145/37 47/147/37 43/148/37
f 41/149/38 45/150/38 48/151/38
f 41/149/38 48/151/38 44/152/38
f 39/153/39 45/154/39 46/155/39
f 39/153/39 46/155/39 40/156/39
f 40/157/40 46/158/40 47/159/40
f 40/157/40 47/159/40 36/160/40
f 36/161/41 47/162/41 48/163/41
f 36/161/41 48/163/41 35/164/41
f 35/165/42 48/166/42 45/167/42
f 35/165/42 45/167/42 39/168/42
o cuboid
v 0.0375 0.5625000000000002 0.5
v 0.0375 0.6875000000000002 0.5
v 0.0375 0.5625 -0.49999999999999994
v 0.0375 0.6875 -0.49999999999999994
v -0.0375 0.5625000000000002 0.5
v -0.0375 0.6875000000000002 0.5
v -0.0375 0.5625 -0.49999999999999994
v -0.0375 0.6875 -0.49999999999999994
v -0.0375 0.5812500000000002 0.1875
v -0.0375 0.7062500000000002 0.1875
v 0.0375 0.7062500000000002 0.1875
v 0.0375 0.5812500000000002 0.1875
v -0.0375 0.5437500000000001 -0.21875
v -0.0375 0.6687500000000001 -0.21875
v 0.0375 0.6687500000000001 -0.21875
v 0.0375 0.5437500000000001 -0.21875
vt 0.4583333333333333 1
vt 0.4583333333333333 0.6875
vt 0.5416666666666666 0.6875
vt 0.5416666666666666 1
vt 0.4583333333333333 1
vt 0.4583333333333333 0.6875
vt 0.5416666666666666 0.6875
vt 0.5416666666666666 1
vt 0.4583333333333333 0.875
vt 0.5416666666666666 0.875
vt 0.5416666666666666 0.9583333333333334
vt 0.4583333333333333 0.9583333333333334
vt 0.5416666666666666 0.875
vt 0.5416666666666666 0.9583333333333334
vt 0.4583333333333333 0.9583333333333334
vt 0.4583333333333333 0.875
vt 0.4583333333333333 0.9795666666666666
vt 0.4583333333333333 0.6770269059617837
vt 0.5416666666666666 0.6770269059617837
vt 0.5416666666666666 0.9795666666666666
vt 0.4583333333333333 1
vt 0.4583333333333333 0.6974591480207235
vt 0.5416666666666666 0.6974591480207235
vt 0.5416666666666666 1
vt 0.4583333333333333 0.6875
vt 0.4583333333333333 0.28125
vt 0.5416666666666666 0.28125
vt 0.5416666666666666 0.6875
vt 0.4583333333333333 0.6974591480207235
vt 0.4583333333333333 0.2939507008633466
vt 0.5416666666666666 0.2939507008633466
vt 0.5416666666666666 0.6974591480207235
vt 0.4583333333333333 0.6875
vt 0.4583333333333333 0.28125
vt 0.5416666666666666 0.28125
vt 0.5416666666666666 0.6875
vt 0.4583333333333333 0.6770269059617837
vt 0.4583333333333333 0.27351398095653423
vt 0.5416666666666666 0.27351398095653423
vt 0.5416666666666666 0.6770269059617837
vt 0.5416666666666666 0
vt 0.5416666666666666 0.28125
vt 0.4583333333333333 0.28125
vt 0.4583333333333333 0
vt 0.5416666666666666 0.02044166666666669
vt 0.5416666666666666 0.2939507008633466
vt 0.4583333333333333 0.2939507008633466
vt 0.4583333333333333 0.02044166666666669
vt 0.5416666666666666 0
vt 0.5416666666666666 0.28125
vt 0.4583333333333333 0.28125
vt 0.4583333333333333 0
vt 0.5416666666666666 0
vt 0.5416666666666666 0.27351398095653423
vt 0.4583333333333333 0.27351398095653423
vt 0.4583333333333333 0
vn 1 0 0
vn -1 0 0
vn 0 2.220446049250313e-16 1
vn 0 -2.220446049250313e-16 -1
vn 0 -0.9982048454657788 -0.059892290727946496
vn 0 0.9982048454657788 0.059892290727946385
vn -1 0 0
vn 0 0.9957666790179709 -0.09191692421704359
vn 1 0 0
vn 0 -0.9957666790179709 0.09191692421704359
vn -1 0 0
vn 0 0.9977851578566089 0.06651901052377371
vn 1 0 0
vn 0 -0.9977851578566089 -0.06651901052377358
usemtl m_f57b6cd5-eb04-b0a6-80ed-540245553d10
f 49/169/43 60/170/43 59/171/43
f 49/169/43 59/171/43 50/172/43
f 54/173/44 58/174/44 57/175/44
f 54/173/44 57/175/44 53/176/44
f 53/177/45 49/178/45 50/179/45
f 53/177/45 50/179/45 54/180/45
f 52/181/46 51/182/46 55/183/46
f 52/181/46 55/183/46 56/184/46
f 53/185/47 57/186/47 60/187/47
f 53/185/47 60/187/47 49/188/47
f 50/189/48 59/190/48 58/191/48
f 50/189/48 58/191/48 54/192/48
f 58/193/49 62/194/49 61/195/49
f 58/193/49 61/195/49 57/196/49
f 59/197/50 63/198/50 62/199/50
f 59/197/50 62/199/50 58/200/50
f 60/201/51 64/202/51 63/203/51
f 60/201/51 63/203/51 59/204/51
f 57/205/52 61/206/52 64/207/52
f 57/205/52 64/207/52 60/208/52
f 55/209/53 61/210/53 62/211/53
f 55/209/53 62/211/53 56/212/53
f 56/213/54 62/214/54 63/215/54
f 56/213/54 63/215/54 52/216/54
f 52/217/55 63/218/55 64/219/55
f 52/217/55 64/219/55 51/220/55
f 51/221/56 64/222/56 61/223/56
f 51/221/56 61/223/56 55/224/56
o cuboid
v 0.1 0.9375000000000002 0.5
v 0.1 1.0625000000000002 0.5
v 0.1 0.9375 -0.49999999999999994
v 0.1 1.0625 -0.49999999999999994
v -0.1 0.9375000000000002 0.5
v -0.1 1.0625000000000002 0.5
v -0.1 0.9375 -0.49999999999999994
v -0.1 1.0625 -0.49999999999999994
v -0.1 0.9562500000000002 0.1875
v -0.1 1.08125 0.1875
v 0.1 1.08125 0.1875
v 0.1 0.9562500000000002 0.1875
v -0.1 0.9187500000000001 -0.21875
v -0.1 1.0437500000000002 -0.21875
v 0.1 1.0437500000000002 -0.21875
v 0.1 0.9187500000000001 -0.21875
vt 0.4583333333333333 1
vt 0.4583333333333333 0.6875
vt 0.5416666666666666 0.6875
vt 0.5416666666666666 1
vt 0.4583333333333333 1
vt 0.4583333333333333 0.6875
vt 0.5416666666666666 0.6875
vt 0.5416666666666666 1
vt 0.4583333333333333 0.875
vt 0.5416666666666666 0.875
vt 0.5416666666666666 0.9583333333333334
vt 0.4583333333333333 0.9583333333333334
vt 0.5416666666666666 0.875
vt 0.5416666666666666 0.9583333333333334
vt 0.4583333333333333 0.9583333333333334
vt 0.4583333333333333 0.875
vt 0.4583333333333333 0.9795666666666666
vt 0.4583333333333333 0.6770269059617837
vt 0.5416666666666666 0.6770269059617837
vt 0.5416666666666666 0.9795666666666666
vt 0.4583333333333333 1
vt 0.4583333333333333 0.6974591480207235
vt 0.5416666666666666 0.6974591480207235
vt 0.5416666666666666 1
vt 0.4583333333333333 0.6875
vt 0.4583333333333333 0.28125
vt 0.5416666666666666 0.28125
vt 0.5416666666666666 0.6875
vt 0.4583333333333333 0.6974591480207235
vt 0.4583333333333333 0.2939507008633466
vt 0.5416666666666666 0.2939507008633466
vt 0.5416666666666666 0.6974591480207235
vt 0.4583333333333333 0.6875
vt 0.4583333333333333 0.28125
vt 0.5416666666666666 0.28125
vt 0.5416666666666666 0.6875
vt 0.4583333333333333 0.6770269059617837
vt 0.4583333333333333 0.27351398095653423
vt 0.5416666666666666 0.27351398095653423
vt 0.5416666666666666 0.6770269059617837
vt 0.5416666666666666 0
vt 0.5416666666666666 0.28125
vt 0.4583333333333333 0.28125
vt 0.4583333333333333 0
vt 0.5416666666666666 0.02044166666666669
vt 0.5416666666666666 0.2939507008633466
vt 0.4583333333333333 0.2939507008633466
vt 0.4583333333333333 0.02044166666666669
vt 0.5416666666666666 0
vt 0.5416666666666666 0.28125
vt 0.4583333333333333 0.28125
vt 0.4583333333333333 0
vt 0.5416666666666666 0
vt 0.5416666666666666 0.27351398095653423
vt 0.4583333333333333 0.27351398095653423
vt 0.4583333333333333 0
vn 1 0 0
vn -1 0 0
vn 0 2.220446049250313e-16 1
vn 0 -2.220446049250313e-16 -1
vn 0 -0.9982048454657787 -0.059892290727946496
vn 0 0.9982048454657787 0.059892290727946385
vn -1 0 0
vn 0 0.9957666790179708 -0.09191692421704357
vn 1 0 0
vn 0 -0.9957666790179708 0.09191692421704357
vn -1 0 0
vn 0 0.9977851578566089 0.06651901052377371
vn 1 0 0
vn 0 -0.9977851578566089 -0.06651901052377358
usemtl m_f57b6cd5-eb04-b0a6-80ed-540245553d10
f 65/225/57 76/226/57 75/227/57
f 65/225/57 75/227/57 66/228/57
f 70/229/58 74/230/58 73/231/58
f 70/229/58 73/231/58 69/232/58
f 69/233/59 65/234/59 66/235/59
f 69/233/59 66/235/59 70/236/59
f 68/237/60 67/238/60 71/239/60
f 68/237/60 71/239/60 72/240/60
f 69/241/61 73/242/61 76/243/61
f 69/241/61 76/243/61 65/244/61
f 66/245/62 75/246/62 74/247/62
f 66/245/62 74/247/62 70/248/62
f 74/249/63 78/250/63 77/251/63
f 74/249/63 77/251/63 73/252/63
f 75/253/64 79/254/64 78/255/64
f 75/253/64 78/255/64 74/256/64
f 76/257/65 80/258/65 79/259/65
f 76/257/65 79/259/65 75/260/65
f 73/261/66 77/262/66 80/263/66
f 73/261/66 80/263/66 76/264/66
f 71/265/67 77/266/67 78/267/67
f 71/265/67 78/267/67 72/268/67
f 72/269/68 78/270/68 79/271/68
f 72/269/68 79/271/68 68/272/68
f 68/273/69 79/274/69 80/275/69
f 68/273/69 80/275/69 67/276/69
f 67/277/70 80/278/70 77/279/70
f 67/277/70 77/279/70 71/280/70