# Made in Blockbench 4.10.3
mtllib Cave_wall_with_thick_low_plane.mtl

o plane
v 0.5 1.0437500000000004 0.5
v 0.5 1.0437500000000004 -0.5
v -0.5 1.0437500000000004 0.5
v -0.5 1.0437500000000004 -0.5
v 0.5 1.0437500000000004 0
v -0.5 1.0437500000000004 0
v 0 1.0437500000000004 0.5
v 0 1.1062500000000004 0
v 0 1.0437500000000004 -0.5
vt 1 1
vt 0.5 1
vt 0.5 0.5
vt 1 0.5
vt 1 0.5
vt 0.5 0.5
vt 0.5 0
vt 1 0
vt 0 0
vt 0.5 0
vt 0.5 0.5
vt 0 0.5
vt 0 0.5
vt 0.5 0.5
vt 0.5 1
vt 0 1
vn 0 0.9922778767136677 -0.12403473458920847
vn 0.12309149097933275 0.984731927834662 0.12309149097933275
vn 0 0.9922778767136677 0.12403473458920847
vn -0.12309149097933275 0.984731927834662 -0.12309149097933275
usemtl m_d27457d4-4f32-a0af-ccf7-4effbfebfd30
f 2/1/1 9/2/1 8/3/1
f 2/1/1 8/3/1 5/4/1
f 5/5/2 8/6/2 7/7/2
f 5/5/2 7/7/2 1/8/2
f 3/9/3 7/10/3 8/11/3
f 3/9/3 8/11/3 6/12/3
f 6/13/4 8/14/4 9/15/4
f 6/13/4 9/15/4 4/16/4