# Made in Blockbench 4.10.3
mtllib Blocked_way.mtl

o cuboid
v 0.4375 0.5 0.25
v 0.4375 1 -0.5
v 0.5 0 0.3125
v 0.5 0 -0.5
v -0.4375 0.5 0.25
v -0.4375 1 -0.5
v -0.5 0 0.3125
v -0.5 0 -0.5
v -0.4375 0.8125 -0.125
v -0.5 0 -0.125
v 0.5 0 -0.125
v 0.4375 0.8125 -0.125
v 0 0.625 0.375
v 0 0 0.5
v 0 0 -0.125
v 0 0 -0.5
v 0 1 -0.5
v 0 0.875 -0.125
vt 0.6666666666666666 1
vt 0.3333333333333333 1
vt 0.3333333333333333 0.33333333333333337
vt 0.6666666666666666 0.33333333333333337
vt 0 0.33333333333333337
vt 0.3333333333333333 0.33333333333333337
vt 0.3333333333333333 1
vt 0 1
vt 0 0.6666666666666667
vt 0.5 0.6666666666666667
vt 0.5 1
vt 0 1
vt 0 0.33333333333333337
vt 0.3333333333333333 0.33333333333333337
vt 0.3333333333333333 0.6666666666666667
vt 0 0.6666666666666667
vt 0 0
vt 0.5 0
vt 0.5 0.33333333333333337
vt 0 0.33333333333333337
vt 0.6666666666666666 1
vt 0.3333333333333333 1
vt 0.3333333333333333 0.33333333333333337
vt 0.6666666666666666 0.33333333333333337
vt 0.6666666666666666 1
vt 0.3333333333333333 1
vt 0.3333333333333333 0.33333333333333337
vt 0.6666666666666666 0.33333333333333337
vt 0 0.6666666666666667
vt 0.3333333333333333 0.6666666666666667
vt 0.3333333333333333 1
vt 0 1
vt 0 0.33333333333333337
vt 0.3333333333333333 0.33333333333333337
vt 0.3333333333333333 1
vt 0 1
vt 0 0.33333333333333337
vt 0.5 0.33333333333333337
vt 0.5 0.6666666666666667
vt 0 0.6666666666666667
vt 1 0.33333333333333337
vt 0.5 0.33333333333333337
vt 0.5 0
vt 1 0
vt 0.6666666666666666 1
vt 0.3333333333333333 1
vt 0.3333333333333333 0.6666666666666667
vt 0.6666666666666666 0.6666666666666667
vt 0.6666666666666666 0.6666666666666667
vt 0.3333333333333333 0.6666666666666667
vt 0.3333333333333333 0.33333333333333337
vt 0.6666666666666666 0.33333333333333337
vt 0 0.33333333333333337
vt 0.3333333333333333 0.33333333333333337
vt 0.3333333333333333 1
vt 0 1
vt 1 1
vt 0.5 1
vt 0.5 0.6666666666666667
vt 1 0.6666666666666667
vt 1 0.6666666666666667
vt 0.5 0.6666666666666667
vt 0.5 0.33333333333333337
vt 1 0.33333333333333337
vn 0.9963221648111515 0.07664016652393474 0.03832008326196737
vn -0.9970544855015816 0.07669649888473705 0
vn -0.13429844431075358 0.940089110175275 0.31336303672509164
vn 0 -1 0
vn -0.345124094421928 0.18406618369169492 0.9203309184584746
vn 0 0 -1
vn -0.9950242360206665 0.07654032584774358 0.06378360487311965
vn 0 -1 0
vn 0.9970544855015816 0.07669649888473705 0
vn -0.35792999176313617 0.8351699807806512 0.4175849903903256
vn 0.3186714310368869 0.18589166810485067 0.9294583405242534
vn 0 -1 0
vn 0 -1 0
vn 0 0 -1
vn 0 0.9486832980505139 0.31622776601683794
vn 0.12674485010489558 0.8872139507342691 0.44360697536713456
usemtl m_e2e25470-1703-6e66-fd13-40ac286c962a
f 2/1/1 12/2/1 11/3/1
f 2/1/1 11/3/1 4/4/1
f 8/5/2 10/6/2 9/7/2
f 8/5/2 9/7/2 6/8/2
f 9/9/3 18/10/3 17/11/3
f 9/9/3 17/11/3 6/12/3
f 8/13/4 16/14/4 15/15/4
f 8/13/4 15/15/4 10/16/4
f 7/17/5 14/18/5 13/19/5
f 7/17/5 13/19/5 5/20/5
f 6/21/6 17/22/6 16/23/6
f 6/21/6 16/23/6 8/24/6
f 5/25/7 9/26/7 10/27/7
f 5/25/7 10/27/7 7/28/7
f 10/29/8 15/30/8 14/31/8
f 10/29/8 14/31/8 7/32/8
f 3/33/9 11/34/9 12/35/9
f 3/33/9 12/35/9 1/36/9
f 5/37/10 13/38/10 18/39/10
f 5/37/10 18/39/10 9/40/10
f 1/41/11 13/42/11 14/43/11
f 1/41/11 14/43/11 3/44/11
f 3/45/12 14/46/12 15/47/12
f 3/45/12 15/47/12 11/48/12
f 11/49/13 15/50/13 16/51/13
f 11/49/13 16/51/13 4/52/13
f 4/53/14 16/54/14 17/55/14
f 4/53/14 17/55/14 2/56/14
f 2/57/15 17/58/15 18/59/15
f 2/57/15 18/59/15 12/60/15
f 12/61/16 18/62/16 13/63/16
f 12/61/16 13/63/16 1/64/16