# Made in Blockbench 4.10.3
mtllib Torch_floor.mtl

o cuboid
v 0.06874999999999999 0.7736111111111111 -0.33125000000000004
v 0.06874999999999999 0.7736111111111111 -0.48125000000000007
v 0.034374999999999996 0.3625 -0.3687500000000001
v 0.034374999999999996 0.3625 -0.44375000000000003
v -0.06874999999999999 0.7736111111111111 -0.33125000000000004
v -0.06874999999999999 0.7736111111111111 -0.48125000000000007
v -0.034374999999999996 0.3625 -0.3687500000000001
v -0.034374999999999996 0.3625 -0.44375000000000003
v -0.049107142857142856 0.6194444444444445 -0.4598214285714286
v -0.049107142857142856 0.6194444444444445 -0.3526785714285715
v 0.049107142857142856 0.6194444444444445 -0.3526785714285715
v 0.049107142857142856 0.6194444444444445 -0.4598214285714286
v -0.05892857142857143 0.5680555555555555 -0.3473214285714286
v -0.05892857142857143 0.5680555555555555 -0.4651785714285715
v 0.05892857142857143 0.5680555555555555 -0.4651785714285715
v 0.05892857142857143 0.5680555555555555 -0.3473214285714286
v 0.06874999999999999 0.825 -0.40625000000000006
v -0.06874999999999999 0.825 -0.40625000000000006
v -0.049107142857142856 0.6194444444444445 -0.40625000000000006
v -0.05892857142857143 0.5680555555555555 -0.40625000000000006
v -0.034374999999999996 0.3625 -0.40625000000000006
v 0.034374999999999996 0.3625 -0.40625000000000006
v 0.05892857142857143 0.5680555555555555 -0.40625000000000006
v 0.049107142857142856 0.6194444444444445 -0.40625000000000006
v -0.046651785714285715 0.4652777777777778 -0.45446428571428577
v -0.046651785714285715 0.4652777777777778 -0.40625000000000006
v -0.046651785714285715 0.4652777777777778 -0.35803571428571435
v 0.046651785714285715 0.4652777777777778 -0.35803571428571435
v 0.046651785714285715 0.4652777777777778 -0.40625000000000006
v 0.046651785714285715 0.4652777777777778 -0.45446428571428577
v -0.051813248820516494 0.5084880870953946 -0.458968835334269
v -0.051813248820516494 0.5084880870953946 -0.40625000000000006
v -0.051813248820516494 0.5084880870953946 -0.3535311646657311
v 0.051813248820516494 0.5084880870953946 -0.3535311646657311
v 0.051813248820516494 0.5084880870953946 -0.40625000000000006
v 0.051813248820516494 0.5084880870953946 -0.458968835334269
v -0.046651785714285715 0.46504745095369393 -0.5166274208045711
v 0.051813248820516494 0.5082577602713108 -0.5211319704245543
v -0.051813248820516494 0.5082577602713108 -0.5211319704245543
v 0.046651785714285715 0.46504745095369393 -0.5166274208045711
vt 0.12752752152758473 0.7351191176470588
vt 0.07561149477917084 0.7351191176470588
vt 0.07561149477917084 0.6807494485294118
vt 0.1327191242024261 0.6807494485294118
vt 0.2261679721602782 0.6807494485294118
vt 0.28327560158353354 0.6807494485294118
vt 0.28327560158353354 0.7351191176470588
vt 0.23135957483511962 0.7351191176470588
vt 0.9843750000000001 0.8933823529411764
vt 0.9843750000000001 1
vt 0.8286269197547584 1
vt 0.8286269197547584 0.8933823529411764
vt 0.916884165227062 0.5735294117647058
vt 0.916884165227062 0.6108455882352941
vt 0.8442017277792826 0.6108455882352941
vt 0.8442017277792826 0.5735294117647058
vt 0.6469208261353098 0.7874150735294118
vt 0.636537620785627 0.7338450367647059
vt 0.7611360849818203 0.7338450367647059
vt 0.7507528796321375 0.7874150735294118
vt 0.43925671914165426 0.7874150735294118
vt 0.42887351379197153 0.7338450367647059
vt 0.5534719779881647 0.7338450367647059
vt 0.543088772638482 0.7874150735294118
vt 0.23148809030103756 0.7351283511890575
vt 0.28340411691420714 0.7351245032969134
vt 0.28341918092052815 0.9494206424445416
vt 0.21073301504041128 0.896383750219957
vt 0.6261544154359442 0.9487542279411765
vt 0.6469208261353098 0.7874150735294118
vt 0.7507528796321375 0.7874150735294118
vt 0.7715192903315031 0.9487542279411765
vt 0.1486201559480512 0.8963690075403217
vt 0.07575507411616547 0.9494206424445416
vt 0.07574000973125869 0.7351191176470588
vt 0.12752752152758473 0.7351191176470588
vt 0.4184903084422887 0.9487542279411765
vt 0.43925671914165426 0.7874150735294118
vt 0.543088772638482 0.7874150735294118
vt 0.5638551833378476 0.9487542279411765
vt 0.28327560158353354 0.09374999999999989
vt 0.28327560158353354 0.38724972426470583
vt 0.236551177509961 0.38724972426470583
vt 0.24693438285964378 0.09374999999999989
vt 0.5275139646139578 0.1470588235294117
vt 0.5404929713010613 0.44045193014705886
vt 0.441852520479075 0.44045193014705886
vt 0.4548315271661785 0.1470588235294117
vt 0.11195271350306057 0.09374999999999989
vt 0.12233591885274334 0.38724972426470583
vt 0.07561149477917084 0.38724972426470583
vt 0.07561149477917084 0.09374999999999989
vt 0.7351780716076134 0.1470588235294117
vt 0.7481570782947169 0.44045193014705886
vt 0.6495166274727305 0.44045193014705886
vt 0.662495634159834 0.1470588235294117
vt 0.9843750000000001 0.7334558823529411
vt 0.9843750000000001 0.8400735294117647
vt 0.8286269197547584 0.8400735294117647
vt 0.8286269197547584 0.7334558823529411
vt 0.35628426275241387 0.8963690075403217
vt 0.28341918092052815 0.9494206424445416
vt 0.2834041165356214 0.7351191176470588
vt 0.33519162833194743 0.7351191176470588
vt 0.33519162833194743 0.7351191176470588
vt 0.28327560158353354 0.7351191176470588
vt 0.28327560158353354 0.6807494485294118
vt 0.3403832310067888 0.6807494485294118
vt 0.3196168203074232 0.09374999999999989
vt 0.330000025657106 0.38724972426470583
vt 0.28327560158353354 0.38724972426470583
vt 0.28327560158353354 0.09374999999999989
vt 0.8442017277792826 0.6481617647058824
vt 0.8442017277792826 0.6108455882352941
vt 0.916884165227062 0.6108455882352941
vt 0.916884165227062 0.6481617647058824
vt 0.07561149477917084 0.09374999999999989
vt 0.07561149477917084 0.38724972426470583
vt 0.028887070705598338 0.38724972426470583
vt 0.03927027605528112 0.09374999999999989
vt 0.018503865355915555 0.6807494485294118
vt 0.07561149477917084 0.6807494485294118
vt 0.07561149477917084 0.7351191176470588
vt 0.02369546803075695 0.7351191176470588
vt 0.02382398311808913 0.7351229655392029
vt 0.07574000973125869 0.7351191176470588
vt 0.07575507373757973 0.9494152567946871
vt 0.0030689078574628256 0.8963783645701024
vt 0.28327560158353354 0.38724972426470583
vt 0.28327560158353354 0.5106442375955371
vt 0.23218582223016299 0.5106442375955371
vt 0.236551177509961 0.38724972426470583
vt 0.330000025657106 0.38724972426470583
vt 0.334365380936904 0.5106442375955371
vt 0.28327560158353354 0.5106442375955371
vt 0.28327560158353354 0.38724972426470583
vt 0.7481570782947169 0.44045193014705886
vt 0.7536137723944644 0.5638016187929461
vt 0.6440599333729831 0.5638016187929461
vt 0.6495166274727305 0.44045193014705886
vt 0.07561149477917084 0.38724972426470583
vt 0.07561149477917084 0.5106442375955371
vt 0.02452171542580034 0.5106442375955371
vt 0.028887070705598338 0.38724972426470583
vt 0.12233591885274334 0.38724972426470583
vt 0.1267012741325413 0.5106442375955371
vt 0.07561149477917084 0.5106442375955371
vt 0.07561149477917084 0.38724972426470583
vt 0.32174297130106133 0.5967019301470589
vt 0.3271996654008088 0.6575516187929461
vt 0.2176458263793275 0.6575516187929461
vt 0.22310252047907497 0.5967019301470589
vt 0.2261679721602782 0.6807494485294118
vt 0.23218582223016299 0.5106442375955371
vt 0.28327560158353354 0.5106442375955371
vt 0.28327560158353354 0.6807494485294118
vt 0.28327560158353354 0.6807494485294118
vt 0.28327560158353354 0.5106442375955371
vt 0.334365380936904 0.5106442375955371
vt 0.3403832310067888 0.6807494485294118
vt 0.636537620785627 0.7338450367647059
vt 0.6440599333729831 0.5638016187929461
vt 0.7536137723944644 0.5638016187929461
vt 0.7611360849818203 0.7338450367647059
vt 0.018503865355915555 0.6807494485294118
vt 0.02452171542580034 0.5106442375955371
vt 0.07561149477917084 0.5106442375955371
vt 0.07561149477917084 0.6807494485294118
vt 0.07561149477917084 0.6807494485294118
vt 0.07561149477917084 0.5106442375955371
vt 0.1267012741325413 0.5106442375955371
vt 0.1327191242024261 0.6807494485294118
vt 0.42887351379197153 0.7338450367647059
vt 0.4363958263793275 0.5638016187929461
vt 0.5459496654008088 0.5638016187929461
vt 0.5534719779881647 0.7338450367647059
vt 0.21875000000000105 0.6562499999999997
vt 0.21875000000000105 0.6031288602504524
vt 0.3437395769853261 0.6031261375008465
vt 0.34375200802696354 0.6562464846060441
vt 0.21874999999999847 0.5937500000000003
vt 0.3330624999999985 0.5937500000000003
vt 0.3330624999999985 0.6562500000000003
vt 0.21874999999999847 0.6562500000000003
vt 0.218755926053024 0.5937479919730371
vt 0.3343738624991521 0.5937479919730371
vt 0.33436621125904553 0.6562499999999996
vt 0.21874999999999883 0.656243784379335
vt 0.21874999999999983 0.5937500000000003
vt 0.3278999999999998 0.5937500000000003
vt 0.3278999999999998 0.6562500000000003
vt 0.21874999999999983 0.6562500000000003
vn 0.982222199626033 0.18772200340343087 0
vn -0.9822221996260329 0.18772200340343081 0
vn 0 0.8249323723209989 -0.565231440294017
vn 0 -1 0
vn 0 0.10368522918534072 0.994610161444565
vn 0 0.10368522918534072 -0.994610161444565
vn -0.9954651922551797 -0.09512650003210693 0
vn 0 -0.13767258897568746 0.9904777929084184
vn 0.9933573701088646 -0.09492507687333746 0.06504125637617557
vn 0 -0.13767258897568746 -0.9904777929084184
vn -0.9929413189340051 -0.11860664885915362 0
vn 0 -0.10368522918534076 -0.9946101614445649
vn 0.9929413189340051 -0.11860664885915362 0
vn 0 -0.10368522918534076 0.9946101614445649
vn 0 0.8249323723209989 0.565231440294017
vn -0.9933573701088646 -0.09492507687333746 -0.06504125637617557
vn -0.982222199626033 0.18772200340343087 0
vn -0.9929413189340051 -0.11860664885915362 0
vn 0 -1 0
vn 0.9929413189340051 -0.11860664885915362 0
vn 0.9822221996260329 0.18772200340343081 0
vn 0.9954651922551797 -0.09512650003210693 0
vn -0.9929413189340052 -0.11860664885915374 0
vn -0.9929413189340052 -0.11860664885915372 0
vn 0 -0.10368522918534094 0.994610161444565
vn 0.9929413189340052 -0.11860664885915374 0
vn 0.9929413189340052 -0.11860664885915372 0
vn 0 -0.10368522918534094 -0.994610161444565
vn -0.9929413189340051 -0.11860664885915355 0
vn -0.9929413189340051 -0.11860664885915355 0
vn 0 -0.10368522918534077 0.994610161444565
vn 0.9929413189340051 -0.11860664885915355 0
vn 0.9929413189340051 -0.11860664885915355 0
vn 0 -0.10368522918534077 -0.994610161444565
vn -0.9929466153652368 -0.1185614863921907 0.00043929397350557346
vn 0 0.99999313581859 -0.0037051741799095676
vn 0.9929466153652368 -0.1185614863921907 0.0004392939735055635
vn 0 -0.9999931358185898 0.003705174179909567
usemtl m_21988ad8-0be3-ef6c-cad3-f8c7be7c3246
f 12/1/1 24/2/1 23/3/1
f 12/1/1 23/3/1 15/4/1
f 14/5/2 20/6/2 19/7/2
f 14/5/2 19/7/2 9/8/2
f 6/9/3 18/10/3 17/11/3
f 6/9/3 17/11/3 2/12/3
f 4/13/4 22/14/4 21/15/4
f 4/13/4 21/15/4 8/16/4
f 10/17/5 13/18/5 16/19/5
f 10/17/5 16/19/5 11/20/5
f 12/21/6 15/22/6 14/23/6
f 12/21/6 14/23/6 9/24/6
f 9/25/7 19/26/7 18/27/7
f 9/25/7 18/27/7 6/28/7
f 5/29/8 10/30/8 11/31/8
f 5/29/8 11/31/8 1/32/8
f 2/33/9 17/34/9 24/35/9
f 2/33/9 24/35/9 12/36/9
f 2/37/10 12/38/10 9/39/10
f 2/37/10 9/39/10 6/40/10
f 21/41/11 26/42/11 25/43/11
f 21/41/11 25/43/11 8/44/11
f 8/45/12 25/46/12 30/47/12
f 8/45/12 30/47/12 4/48/12
f 4/49/13 30/50/13 29/51/13
f 4/49/13 29/51/13 22/52/13
f 3/53/14 28/54/14 27/55/14
f 3/53/14 27/55/14 7/56/14
f 1/57/15 17/58/15 18/59/15
f 1/57/15 18/59/15 5/60/15
f 5/61/16 18/62/16 19/63/16
f 5/61/16 19/63/16 10/64/16
f 10/65/17 19/66/17 20/67/17
f 10/65/17 20/67/17 13/68/17
f 7/69/18 27/70/18 26/71/18
f 7/69/18 26/71/18 21/72/18
f 7/73/19 21/74/19 22/75/19
f 7/73/19 22/75/19 3/76/19
f 22/77/20 29/78/20 28/79/20
f 22/77/20 28/79/20 3/80/20
f 16/81/21 23/82/21 24/83/21
f 16/81/21 24/83/21 11/84/21
f 11/85/22 24/86/22 17/87/22
f 11/85/22 17/87/22 1/88/22
f 26/89/23 32/90/23 31/91/23
f 26/89/23 31/91/23 25/92/23
f 27/93/24 33/94/24 32/95/24
f 27/93/24 32/95/24 26/96/24
f 28/97/25 34/98/25 33/99/25
f 28/97/25 33/99/25 27/100/25
f 29/101/26 35/102/26 34/103/26
f 29/101/26 34/103/26 28/104/26
f 30/105/27 36/106/27 35/107/27
f 30/105/27 35/107/27 29/108/27
f 37/109/28 39/110/28 38/111/28
f 37/109/28 38/111/28 40/112/28
f 14/113/29 31/114/29 32/115/29
f 14/113/29 32/115/29 20/116/29
f 20/117/30 32/118/30 33/119/30
f 20/117/30 33/119/30 13/120/30
f 13/121/31 33/122/31 34/123/31
f 13/121/31 34/123/31 16/124/31
f 16/125/32 34/126/32 35/127/32
f 16/125/32 35/127/32 23/128/32
f 23/129/33 35/130/33 36/131/33
f 23/129/33 36/131/33 15/132/33
f 15/133/34 36/134/34 31/135/34
f 15/133/34 31/135/34 14/136/34
f 39/137/35 37/138/35 25/139/35
f 39/137/35 25/139/35 31/140/35
f 38/141/36 39/142/36 31/143/36
f 38/141/36 31/143/36 36/144/36
f 40/145/37 38/146/37 36/147/37
f 40/145/37 36/147/37 30/148/37
f 37/149/38 40/150/38 30/151/38
f 37/149/38 30/151/38 25/152/38