# Made in Blockbench 4.10.3
mtllib dungeon_block_up.mtl

o cuboid
v 0.5625 1.25 0.5625
v 0.5625 1.25 -0.5625
v 0.5625 1 0.5625
v 0.5625 1 -0.5625
v -0.5625 1.25 0.5625
v -0.5625 1.25 -0.5625
v -0.5625 1 0.5625
v -0.5625 1 -0.5625
vt 0.003075579882364492 1
vt 0 0.00875251733325444
vt 0.1178609390530112 0.007271908567646146
vt 0.12400750839411621 0.9985193912343914
vt 0.11666666666666665 1
vt 0 1
vt 0 1.1102230246251565e-16
vt 0.11666666666666665 1.1102230246251565e-16
vt 0 0
vt 1 0
vt 1 1
vt 0 1
vt 1 0
vt 1 1
vt 0 1
vt 0 0
vt 1 0.875
vt 1 1
vt 0 1
vt 0 0.875
vt 1 1
vt 0 1
vt 0 0.875
vt 1 0.875
vn 1 0 0
vn -1 0 0
vn 0 1 0
vn 0 -1 0
vn 0 0 1
vn 0 0 -1
usemtl m_d1a1fc32-4f2d-e622-19ca-44a622c09917
f 2/1/1 1/2/1 3/3/1
f 2/1/1 3/3/1 4/4/1
f 7/5/2 5/6/2 6/7/2
f 7/5/2 6/7/2 8/8/2
f 5/9/3 1/10/3 2/11/3
f 5/9/3 2/11/3 6/12/3
f 4/13/4 3/14/4 7/15/4
f 4/13/4 7/15/4 8/16/4
f 3/17/5 1/18/5 5/19/5
f 3/17/5 5/19/5 7/20/5
f 6/21/6 2/22/6 4/23/6
f 6/21/6 4/23/6 8/24/6