# Made in Blockbench 4.10.4
mtllib vase.mtl

o cuboid
v 0.3125 1 0.3125
v 0.3125 1 -0.3125
v 0.5 0 0.5
v 0.5 0 -0.5
v -0.3125 1 0.3125
v -0.3125 1 -0.3125
v -0.5 0 0.5
v -0.5 0 -0.5
v -0.5 0.25 -0.5
v -0.5 0.25 0.5
v 0.5 0.25 0.5
v 0.5 0.25 -0.5
v -0.4067232295022248 0.34233031149332566 -0.4067232295022248
v -0.4067232295022248 0.34233031149332566 0.4067232295022248
v 0.4067232295022248 0.34233031149332566 0.4067232295022248
v 0.4067232295022248 0.34233031149332566 -0.4067232295022248
v 0.2719061274913326 0.908073639821162 -0.2719061274913326
v 0.2719061274913326 0.908073639821162 0.2719061274913326
v -0.2719061274913326 0.908073639821162 0.2719061274913326
v -0.2719061274913326 0.908073639821162 -0.2719061274913326
vt 0.9375 0.4375
vt 0.9375 0.5
vt 0.6875 0.5
vt 0.6875 0.4375
vt 1 0.359375
vt 1 0.421875
vt 0.75 0.421875
vt 0.75 0.359375
vt 0.15625 0.140625
vt 0.3125 0.140625
vt 0.3125 0.296875
vt 0.15625 0.296875
vt 0.25 0.75
vt 0.25 1
vt 0 1
vt 0 0.75
vt 0.9921875 0.578125
vt 0.9921875 0.640625
vt 0.765625 0.640625
vt 0.765625 0.578125
vt 0.9921875 0.6875
vt 0.9921875 0.75
vt 0.796875 0.75
vt 0.796875 0.6875
vt 0.25 0.35304218750000005
vt 0.22668125 0.38585468749999996
vt 0.02331875 0.38585468749999996
vt 0 0.35304218749999994
vt 0.25 0.5561671875
vt 0.22668125 0.5889796875
vt 0.02331875 0.5889796875
vt 0 0.5561671874999999
vt 0.671875 0.39991718750000005
vt 0.64855625 0.43272968749999996
vt 0.44519375 0.43272968749999996
vt 0.421875 0.39991718749999994
vt 0.515625 0.8217921875
vt 0.49230625 0.8546046875
vt 0.28894375 0.8546046875
vt 0.265625 0.8217921874999999
vt 0.3125 0.125
vt 0.3226484375 0.09375
vt 0.4586015625 0.09375
vt 0.46875 0.125
vt 0.859375 0.875
vt 0.8695234375 0.84375
vt 1.0054765625 0.84375
vt 1.015625 0.875
vt 0.484375 0.125
vt 0.4945234375 0.09375
vt 0.6304765625 0.09375
vt 0.640625 0.125
vt 0.140625 0.125
vt 0.1507734375 0.09375
vt 0.2867265625 0.09375
vt 0.296875 0.125
vt 0.64855625 0.43272968749999996
vt 0.6148515625 0.578125
vt 0.4788984375 0.578125
vt 0.44519375 0.43272968749999996
vt 0.22668125 0.5889796875
vt 0.1929765625 0.734375
vt 0.057023437499999996 0.734375
vt 0.02331875 0.5889796875
vt 0.22668125 0.38585468749999996
vt 0.1929765625 0.53125
vt 0.057023437499999996 0.53125
vt 0.02331875 0.38585468749999996
vt 0.49230625 0.8546046875
vt 0.4586015625 1
vt 0.3226484375 1
vt 0.28894375 0.8546046875
vn 1 0 0
vn -1 0 0
vn 0 1 0
vn 0 -1 0
vn 0 0 1
vn 0 0 -1
vn -0.7034919127615585 0.7107032634504247 0
vn 0 0.7107032634504247 0.7034919127615585
vn 0.7034919127615585 0.7107032634504247 0
vn 0 0.7107032634504247 -0.7034919127615585
vn -0.9147776374492754 -0.40395776267169564 0
vn 0 -0.40395776267169564 0.9147776374492754
vn 0.9147776374492754 -0.40395776267169564 0
vn 0 -0.40395776267169564 -0.9147776374492754
vn 0.9727611347867926 0.2318097811748062 0
vn 0 0.2318097811748062 0.9727611347867926
vn -0.9727611347867926 0.2318097811748062 0
vn 0 0.2318097811748062 -0.9727611347867926
usemtl m_34b84f1d-e4cf-c533-e126-4cfd86ee4e0a
f 4/1/1 12/2/1 11/3/1
f 4/1/1 11/3/1 3/4/1
f 7/5/2 10/6/2 9/7/2
f 7/5/2 9/7/2 8/8/2
f 5/9/3 1/10/3 2/11/3
f 5/9/3 2/11/3 6/12/3
f 4/13/4 3/14/4 7/15/4
f 4/13/4 7/15/4 8/16/4
f 3/17/5 11/18/5 10/19/5
f 3/17/5 10/19/5 7/20/5
f 8/21/6 9/22/6 12/23/6
f 8/21/6 12/23/6 4/24/6
f 10/25/7 14/26/7 13/27/7
f 10/25/7 13/27/7 9/28/7
f 11/29/8 15/30/8 14/31/8
f 11/29/8 14/31/8 10/32/8
f 12/33/9 16/34/9 15/35/9
f 12/33/9 15/35/9 11/36/9
f 9/37/10 13/38/10 16/39/10
f 9/37/10 16/39/10 12/40/10
f 6/41/11 20/42/11 19/43/11
f 6/41/11 19/43/11 5/44/11
f 5/45/12 19/46/12 18/47/12
f 5/45/12 18/47/12 1/48/12
f 1/49/13 18/50/13 17/51/13
f 1/49/13 17/51/13 2/52/13
f 2/53/14 17/54/14 20/55/14
f 2/53/14 20/55/14 6/56/14
f 16/57/15 17/58/15 18/59/15
f 16/57/15 18/59/15 15/60/15
f 15/61/16 18/62/16 19/63/16
f 15/61/16 19/63/16 14/64/16
f 14/65/17 19/66/17 20/67/17
f 14/65/17 20/67/17 13/68/17
f 13/69/18 20/70/18 17/71/18
f 13/69/18 17/71/18 16/72/18
o cylinder
v 0 1 0
v 0.16367513459481284 1 0.25
v 0.2574251345948128 2 0.4375
v 0.3273502691896258 1 1.7676253978748448e-17
v 0.5148502691896257 2 3.0933444462809784e-17
v 0.16367513459481284 1 -0.25
v 0.2574251345948128 2 -0.4375
v -0.16367513459481292 1 -0.24999999999999997
v -0.2574251345948129 2 -0.43749999999999994
v -0.3273502691896258 1 -5.302876193624534e-17
v -0.5148502691896257 2 -9.280033338842934e-17
v -0.16367513459481303 1 0.24999999999999992
v -0.25742513459481314 2 0.43749999999999983
v 0.2886751345948128 1.8125 -0.5
v 0.5773502691896257 1.8125 3.5352507957496895e-17
v 0.2886751345948128 1.8125 0.5
v -0.28867513459481314 1.8125 0.49999999999999983
v -0.5773502691896257 1.8125 -1.0605752387249068e-16
v -0.2886751345948129 1.8125 -0.49999999999999994
v 0.145489978921264 1.2880464881219325 -0.2136296886529023
v 0.29097995784252806 1.2880464881219325 1.5104690536118624e-17
v 0.145489978921264 1.2880464881219325 0.2136296886529023
v -0.14548997892126417 1.2880464881219325 0.21362968865290222
v -0.29097995784252806 1.2880464881219325 -4.531407160835587e-17
v -0.14548997892126406 1.2880464881219325 -0.21362968865290224
v 0.3861377018922193 2 2.3200083347107338e-17
v 0.1930688509461096 2 -0.328125
v -0.1930688509461097 2 -0.32812499999999994
v -0.3861377018922193 2 -6.9600250041322e-17
v -0.19306885094610987 2 0.3281249999999999
v 0.1930688509461096 2 0.328125
v 0.3861377018922193 1.875 2.3200083347107338e-17
v 0.1930688509461096 1.875 -0.328125
v 0 2 0
v -0.1930688509461097 1.875 -0.32812499999999994
v -0.3861377018922193 1.875 -6.9600250041322e-17
v -0.19306885094610987 1.875 0.3281249999999999
v 0.1930688509461096 1.875 0.328125
vt 0.88261875 0.25
vt 0.8417 0.3125
vt 0.80078125 0.25
vt 0.857475 0.828125
vt 0.84785 0.78125
vt 0.9921875 0.78125
vt 0.984375 0.8278140625
vt 0.7865484375 0.7734375
vt 0.8348156250000001 0.85546875
vt 0.73828125 0.85546875
vt 0.8417 0.1875
vt 0.88261875 0.25
vt 0.80078125 0.25
vt 0.8515625 0.999709375
vt 0.84375 0.953125
vt 0.9880875 0.953125
vt 0.9784625 1
vt 0.8348156250000001 0.85546875
vt 0.7865484375 0.9375
vt 0.73828125 0.85546875
vt 0.7598625 0.1875
vt 0.8417 0.1875
vt 0.80078125 0.25
vt 0.6817375 1
vt 0.673925 0.953125
vt 0.8182625 0.953125
vt 0.81045 1
vt 0.7865484375 0.9375
vt 0.6900140625 0.9375
vt 0.73828125 0.85546875
vt 0.71894375 0.25
vt 0.7598625 0.1875
vt 0.80078125 0.25
vt 0.857475 0.9375
vt 0.84785 0.890625
vt 0.9921875 0.890625
vt 0.984375 0.9371890625
vt 0.6900140625 0.9375
vt 0.6417468749999999 0.85546875
vt 0.73828125 0.85546875
vt 0.7598625 0.3125
vt 0.71894375 0.25
vt 0.80078125 0.25
vt 0.7265625 0.171584375
vt 0.71875 0.125
vt 0.8630875 0.125
vt 0.8534625 0.171875
vt 0.6417468749999999 0.85546875
vt 0.6900140625 0.7734375
vt 0.73828125 0.85546875
vt 0.8417 0.3125
vt 0.7598625 0.3125
vt 0.80078125 0.25
vt 0.7754875 0.5625
vt 0.767675 0.515625
vt 0.9120125 0.515625
vt 0.9042 0.5625
vt 0.6900140625 0.7734375
vt 0.7865484375 0.7734375
vt 0.73828125 0.85546875
vt 0.578125 0.3705921875
vt 0.6184234375 0.22674531250000007
vt 0.683040625 0.22674531250000007
vt 0.7220640625 0.375
vt 0.6294984375 0.75
vt 0.668521875 0.601425
vt 0.7331390625 0.601425
vt 0.7734375 0.7449609375
vt 0.50205 1
vt 0.5378468750000001 0.8506140625
vt 0.6105906249999999 0.8506140625
vt 0.6463875 1
vt 0 0.3237171875
vt 0.040298437500000006 0.17987031250000007
vt 0.104915625 0.17987031250000007
vt 0.1439390625 0.328125
vt 0.4107484375 0.375
vt 0.449771875 0.226425
vt 0.5143890625 0.226425
vt 0.5546875 0.36996093750000003
vt 0.267675 0.546875
vt 0.303471875 0.39748906250000005
vt 0.376215625 0.39748906250000005
vt 0.4120125 0.546875
vt 0.687996875 0.15418906249999997
vt 0.683040625 0.22674531250000007
vt 0.6184234375 0.22674531250000007
vt 0.6133062499999999 0.15435468750000003
vt 0.7382562500000001 0.5290234375
vt 0.7331390625 0.601425
vt 0.668521875 0.601425
vt 0.663565625 0.52888125
vt 0.6151375 0.7780296875
vt 0.6105906249999999 0.8506140625
vt 0.5378468750000001 0.8506140625
vt 0.5333 0.7780296875
vt 0.109871875 0.10731406249999997
vt 0.104915625 0.17987031250000007
vt 0.0402984375 0.17987031250000007
vt 0.03518125 0.10747968750000003
vt 0.5195062500000001 0.15402343750000003
vt 0.5143890625 0.226425
vt 0.449771875 0.226425
vt 0.444815625 0.15388124999999997
vt 0.3807625 0.3249046875
vt 0.376215625 0.39748906250000005
vt 0.303471875 0.39748906250000005
vt 0.298925 0.3249046875
vt 0.41154843750000003 0.75390625
vt 0.459815625 0.671875
vt 0.49199375 0.671875
vt 0.4276375 0.78125
vt 0.31501406249999997 0.75390625
vt 0.41154843750000003 0.75390625
vt 0.4276375 0.78125
vt 0.298925 0.78125
vt 0.266746875 0.671875
vt 0.31501406249999997 0.75390625
vt 0.298925 0.78125
vt 0.23456875 0.671875
vt 0.31501406249999997 0.58984375
vt 0.266746875 0.671875
vt 0.23456875 0.671875
vt 0.298925 0.5625
vt 0.41154843750000003 0.58984375
vt 0.31501406249999997 0.58984375
vt 0.298925 0.5625
vt 0.4276375 0.5625
vt 0.459815625 0.671875
vt 0.41154843750000003 0.58984375
vt 0.4276375 0.5625
vt 0.49199375 0.671875
vt 0.5 0.609375
vt 0.59375 0.609375
vt 0.59375 0.640625
vt 0.5 0.640625
vt 0.3125 0.671875
vt 0.40625 0.671875
vt 0.40625 0.703125
vt 0.3125 0.703125
vt 0.515625 0.671875
vt 0.609375 0.671875
vt 0.609375 0.703125
vt 0.515625 0.703125
vt 0.328125 0.21875
vt 0.421875 0.21875
vt 0.421875 0.25
vt 0.328125 0.25
vt 0.5 0.71875
vt 0.59375 0.71875
vt 0.59375 0.75
vt 0.5 0.75
vt 0.328125 0.171875
vt 0.421875 0.171875
vt 0.421875 0.203125
vt 0.328125 0.203125
vn 0 -1 0
vn 0.8269552916139005 0.2969735020093404 0.4774428602210711
vn 0.3030475052813074 0.936144538027954 0.17831324533865794
vn 0 -1 0
vn 0.8320502943378438 0.2773500981126146 -0.4803844614152616
vn 0.3030475052813074 0.936144538027954 -0.17831324533865794
vn 0 -1 0
vn -9.12141291673218e-17 0.316227766016838 -0.948683298050514
vn -5.1177883875985764e-17 0.9344877349289681 -0.3559953275919878
vn 0 -1 0
vn -0.8269552916139006 0.2969735020093404 -0.4774428602210709
vn -0.30304750528130747 0.936144538027954 -0.17831324533865792
vn 0 -1 0
vn -0.832050294337844 0.27735009811261463 0.48038446141526114
vn -0.30304750528130747 0.936144538027954 0.17831324533865772
vn 0 -1 0
vn -2.736423875019652e-16 0.316227766016838 0.948683298050514
vn -1.0235576775197151e-16 0.9344877349289681 0.3559953275919879
vn 0.7533572931577499 -0.41135993507723845 -0.5130650959276791
vn 0.7293841648276093 -0.47037179215589525 0.49673847972829954
vn -1.596308776077546e-16 -0.4792451551144448 0.8776810817713528
vn -0.7533572931577499 -0.41135993507723834 0.5130650959276789
vn -0.7293841648276093 -0.4703717921558954 -0.49673847972829965
vn -3.192617552155093e-16 -0.47924515511444477 -0.8776810817713527
vn 0.8203196796269115 0.12232958714540314 -0.5586690391686625
vn 0.8220627071419495 0.10379809453859533 0.5598561074924576
vn -2.8747360044943906e-16 0.12527077731574274 0.9921225893762875
vn -0.8203196796269118 0.12232958714540318 0.5586690391686622
vn -0.8220627071419496 0.10379809453859538 -0.5598561074924576
vn -1.848044574317824e-16 0.12527077731574288 -0.9921225893762875
vn 0 1 0
vn 0 1 0
vn 0 1 0
vn 0 1 0
vn 0 1 0
vn 0 1 0
vn -0.8618720557427748 0 0.5071257827499244
vn 1.4375998758793146e-16 0 1
vn 0.8618720557427748 0 0.5071257827499243
vn 0.861872055742775 0 -0.5071257827499239
vn 2.875199751758628e-16 0 -1
vn -0.8618720557427748 0 -0.5071257827499244
usemtl m_34b84f1d-e4cf-c533-e126-4cfd86ee4e0a
f 24/73/19 22/74/19 21/75/19
f 23/76/20 36/77/20 35/78/20
f 23/76/20 35/78/20 25/79/20
f 58/80/21 52/81/21 54/82/21
f 26/83/22 24/84/22 21/85/22
f 25/86/23 35/87/23 34/88/23
f 25/86/23 34/88/23 27/89/23
f 52/90/24 53/91/24 54/92/24
f 28/93/25 26/94/25 21/95/25
f 27/96/26 34/97/26 39/98/26
f 27/96/26 39/98/26 29/99/26
f 53/100/27 55/101/27 54/102/27
f 30/103/28 28/104/28 21/105/28
f 29/106/29 39/107/29 38/108/29
f 29/106/29 38/108/29 31/109/29
f 55/110/30 56/111/30 54/112/30
f 32/113/31 30/114/31 21/115/31
f 31/116/32 38/117/32 37/118/32
f 31/116/32 37/118/32 33/119/32
f 56/120/33 57/121/33 54/122/33
f 22/123/34 32/124/34 21/125/34
f 33/126/35 37/127/35 36/128/35
f 33/126/35 36/128/35 23/129/35
f 57/130/36 58/131/36 54/132/36
f 35/133/37 41/134/37 40/135/37
f 35/133/37 40/135/37 34/136/37
f 36/137/38 42/138/38 41/139/38
f 36/137/38 41/139/38 35/140/38
f 37/141/39 43/142/39 42/143/39
f 37/141/39 42/143/39 36/144/39
f 38/145/40 44/146/40 43/147/40
f 38/145/40 43/147/40 37/148/40
f 39/149/41 45/150/41 44/151/41
f 39/149/41 44/151/41 38/152/41
f 34/153/42 40/154/42 45/155/42
f 34/153/42 45/155/42 39/156/42
f 26/157/43 40/158/43 41/159/43
f 26/157/43 41/159/43 24/160/43
f 24/161/44 41/162/44 42/163/44
f 24/161/44 42/163/44 22/164/44
f 22/165/45 42/166/45 43/167/45
f 22/165/45 43/167/45 32/168/45
f 32/169/46 43/170/46 44/171/46
f 32/169/46 44/171/46 30/172/46
f 30/173/47 44/174/47 45/175/47
f 30/173/47 45/175/47 28/176/47
f 28/177/48 45/178/48 40/179/48
f 28/177/48 40/179/48 26/180/48
f 47/181/49 46/182/49 25/183/49
f 47/181/49 25/183/49 27/184/49
f 48/185/50 47/186/50 27/187/50
f 48/185/50 27/187/50 29/188/50
f 49/189/51 48/190/51 29/191/51
f 49/189/51 29/191/51 31/192/51
f 50/193/52 49/194/52 31/195/52
f 50/193/52 31/195/52 33/196/52
f 51/197/53 50/198/53 33/199/53
f 51/197/53 33/199/53 23/200/53
f 46/201/54 51/202/54 23/203/54
f 46/201/54 23/203/54 25/204/54
f 53/205/55 52/206/55 46/207/55
f 53/205/55 46/207/55 47/208/55
f 55/209/56 53/210/56 47/211/56
f 55/209/56 47/211/56 48/212/56
f 56/213/57 55/214/57 48/215/57
f 56/213/57 48/215/57 49/216/57
f 57/217/58 56/218/58 49/219/58
f 57/217/58 49/219/58 50/220/58
f 58/221/59 57/222/59 50/223/59
f 58/221/59 50/223/59 51/224/59
f 52/225/60 58/226/60 51/227/60
f 52/225/60 51/227/60 46/228/60