# Made in Blockbench 4.10.3
mtllib stack_of_hay.mtl

o cylinder
v -3.8572086701131356e-17 0 7.714417340226272e-17
v -2.7551490500808113e-17 2.0625 5.510298100161623e-17
v 0.5436553006146874 0 1.3125
v 0.3883252147247767 1.8125 0.9375
v 1.3125 0 0.5436553006146875
v 0.9375 1.8125 0.38832521472477677
v 1.3125 0 -0.5436553006146873
v 0.9375 1.8125 -0.3883252147247766
v 0.5436553006146875 0 -1.3124999999999998
v 0.38832521472477677 1.8125 -0.9374999999999999
v -0.5436553006146871 0 -1.3125
v -0.38832521472477655 1.8125 -0.9375
v -1.3124999999999998 0 -0.543655300614688
v -0.9374999999999999 1.8125 -0.38832521472477716
v -1.3125 0 0.5436553006146877
v -0.9375 1.8125 0.38832521472477693
v -0.5436553006146883 0 1.3124999999999998
v -0.3883252147247773 1.8125 0.9374999999999999
v -1.3124999999999998 0.90625 -0.543655300614688
v -0.5436553006146871 0.90625 -1.3125
v 0.5436553006146875 0.90625 -1.3124999999999998
v 1.3125 0.90625 -0.5436553006146873
v 1.3125 0.90625 0.5436553006146875
v 0.5436553006146874 0.90625 1.3125
v -0.5436553006146883 0.90625 1.3124999999999998
v -1.3125 0.90625 0.5436553006146877
vt 0.328125 0.90389453125
vt 0.23201953125 1
vt 0.1640625 0.8359375
vt 0.61787734375 0.75
vt 0.5984609375000001 0.6274031250000001
vt 0.734375 0.6274031250000001
vt 0.71495859375 0.75
vt 0.423540625 0.5
vt 0.4921875 0.568646875
vt 0.375 0.6171875
vt 0.328125 0.76798046875
vt 0.328125 0.90389453125
vt 0.1640625 0.8359375
vt 0.021771874999999996 0.6640625
vt 0.002355468750000006 0.5414656250000001
vt 0.13826953125 0.5414656250000001
vt 0.118853125 0.6640625
vt 0.4921875 0.568646875
vt 0.4921875 0.665728125
vt 0.375 0.6171875
vt 0.23201953125 0.671875
vt 0.328125 0.76798046875
vt 0.1640625 0.8359375
vt 0.01941640624999999 0.4140625
vt 0 0.29146562500000006
vt 0.1359140625 0.29146562500000006
vt 0.11649765625 0.4140625
vt 0.4921875 0.665728125
vt 0.423540625 0.734375
vt 0.375 0.6171875
vt 0.09610546875 0.671875
vt 0.23201953125 0.671875
vt 0.1640625 0.8359375
vt 0.482709375 0.53125
vt 0.46329296875000003 0.40865312500000006
vt 0.59920703125 0.40865312500000006
vt 0.579790625 0.53125
vt 0.423540625 0.734375
vt 0.326459375 0.734375
vt 0.375 0.6171875
vt 0 0.76798046875
vt 0.09610546875 0.671875
vt 0.1640625 0.8359375
vt 0.32100234375000003 0.4921875
vt 0.3015859375 0.36959062500000006
vt 0.4375 0.36959062500000006
vt 0.41808359375000004 0.4921875
vt 0.326459375 0.734375
vt 0.2578125 0.665728125
vt 0.375 0.6171875
vt 0 0.90389453125
vt 0 0.76798046875
vt 0.1640625 0.8359375
vt 0.357709375 1
vt 0.33829296875000003 0.8774031250000001
vt 0.47420703124999997 0.8774031250000001
vt 0.454790625 1
vt 0.2578125 0.665728125
vt 0.2578125 0.568646875
vt 0.375 0.6171875
vt 0.09610546875 1
vt 0 0.90389453125
vt 0.1640625 0.8359375
vt 0.50379140625 1
vt 0.484375 0.8774031250000001
vt 0.6202890624999999 0.8774031250000001
vt 0.60087265625 1
vt 0.2578125 0.568646875
vt 0.326459375 0.5
vt 0.375 0.6171875
vt 0.23201953125 1
vt 0.09610546875 1
vt 0.1640625 0.8359375
vt 0.170209375 0.53125
vt 0.15079296875 0.40865312500000006
vt 0.28670703124999997 0.40865312500000006
vt 0.267290625 0.53125
vt 0.326459375 0.5
vt 0.423540625 0.5
vt 0.375 0.6171875
vt 0.4375 0.25630937500000006
vt 0.4375 0.36959062500000006
vt 0.3015859375 0.36959062500000006
vt 0.3015859375 0.25630937500000006
vt 0.59920703125 0.29537187500000006
vt 0.59920703125 0.40865312500000006
vt 0.46329296875000003 0.40865312500000006
vt 0.46329296875000003 0.29537187500000006
vt 0.1359140625 0.17818437500000006
vt 0.1359140625 0.29146562500000006
vt 0 0.29146562500000006
vt 0 0.17818437500000006
vt 0.13826953125 0.42818437500000006
vt 0.13826953125 0.5414656250000001
vt 0.002355468750000006 0.5414656250000001
vt 0.002355468750000006 0.42818437500000006
vt 0.734375 0.5141218750000001
vt 0.734375 0.6274031250000001
vt 0.5984609375000001 0.6274031250000001
vt 0.5984609375000001 0.5141218750000001
vt 0.28670703124999997 0.29537187500000006
vt 0.28670703124999997 0.40865312500000006
vt 0.15079296875 0.40865312500000006
vt 0.15079296875 0.29537187500000006
vt 0.6202890624999999 0.7641218750000001
vt 0.6202890624999999 0.8774031250000001
vt 0.484375 0.8774031250000001
vt 0.484375 0.7641218750000001
vt 0.47420703124999997 0.7641218750000001
vt 0.47420703124999997 0.8774031250000001
vt 0.33829296875000003 0.8774031250000001
vt 0.33829296875000003 0.7641218750000001
vn 0 -1 0
vn 0.6533785681360327 0.38235179272629977 0.6533785681360329
vn 0.18219500746971073 0.9662349396012463 0.18219500746971076
vn 0 -1 0
vn 0.924016832421891 0.38235179272629977 0
vn 0.25766265056033233 0.9662349396012463 0
vn 0 -1 0
vn 0.6533785681360328 0.38235179272629977 -0.6533785681360328
vn 0.1821950074697108 0.9662349396012464 -0.18219500746971076
vn 0 -1 0
vn 2.082180937376972e-16 0.3823517927262997 -0.924016832421891
vn 3.6832916894254804e-17 0.9662349396012463 -0.2576626505603324
vn 0 -1 0
vn -0.6533785681360326 0.3823517927262998 -0.653378568136033
vn -0.18219500746971068 0.9662349396012463 -0.18219500746971082
vn 0 -1 0
vn -0.9240168324218909 0.3823517927262996 -2.0821809373769696e-16
vn -0.2576626505603324 0.9662349396012463 -3.683291689425477e-17
vn 0 -1 0
vn -0.6533785681360329 0.3823517927262998 0.6533785681360326
vn -0.1821950074697108 0.9662349396012464 0.1821950074697107
vn 0 -1 0
vn -2.0821809373769698e-16 0.3823517927262996 0.9240168324218909
vn -3.6832916894254773e-17 0.9662349396012463 0.2576626505603324
vn -0.7071067811865472 0 -0.7071067811865478
vn 2.042145130140138e-16 0 -1
vn 0.7071067811865476 0 -0.7071067811865476
vn 1 0 0
vn 0.7071067811865476 0 0.7071067811865476
vn -2.0421451301401363e-16 0 1
vn -0.7071067811865478 0 0.7071067811865474
vn -1 0 -2.0421451301401363e-16
usemtl m_0a378014-515e-444a-0379-a24602ff5eaa
f 5/1/1 3/2/1 1/3/1
f 4/4/2 24/5/2 23/6/2
f 4/4/2 23/6/2 6/7/2
f 4/8/3 6/9/3 2/10/3
f 7/11/4 5/12/4 1/13/4
f 6/14/5 23/15/5 22/16/5
f 6/14/5 22/16/5 8/17/5
f 6/18/6 8/19/6 2/20/6
f 9/21/7 7/22/7 1/23/7
f 8/24/8 22/25/8 21/26/8
f 8/24/8 21/26/8 10/27/8
f 8/28/9 10/29/9 2/30/9
f 11/31/10 9/32/10 1/33/10
f 10/34/11 21/35/11 20/36/11
f 10/34/11 20/36/11 12/37/11
f 10/38/12 12/39/12 2/40/12
f 13/41/13 11/42/13 1/43/13
f 12/44/14 20/45/14 19/46/14
f 12/44/14 19/46/14 14/47/14
f 12/48/15 14/49/15 2/50/15
f 15/51/16 13/52/16 1/53/16
f 14/54/17 19/55/17 26/56/17
f 14/54/17 26/56/17 16/57/17
f 14/58/18 16/59/18 2/60/18
f 17/61/19 15/62/19 1/63/19
f 16/64/20 26/65/20 25/66/20
f 16/64/20 25/66/20 18/67/20
f 16/68/21 18/69/21 2/70/21
f 3/71/22 17/72/22 1/73/22
f 18/74/23 25/75/23 24/76/23
f 18/74/23 24/76/23 4/77/23
f 18/78/24 4/79/24 2/80/24
f 13/81/25 19/82/25 20/83/25
f 13/81/25 20/83/25 11/84/25
f 11/85/26 20/86/26 21/87/26
f 11/85/26 21/87/26 9/88/26
f 9/89/27 21/90/27 22/91/27
f 9/89/27 22/91/27 7/92/27
f 7/93/28 22/94/28 23/95/28
f 7/93/28 23/95/28 5/96/28
f 5/97/29 23/98/29 24/99/29
f 5/97/29 24/99/29 3/100/29
f 3/101/30 24/102/30 25/103/30
f 3/101/30 25/103/30 17/104/30
f 17/105/31 25/106/31 26/107/31
f 17/105/31 26/107/31 15/108/31
f 15/109/32 26/110/32 19/111/32
f 15/109/32 19/111/32 13/112/32