# Made in Blockbench 4.10.3
mtllib trading_post.mtl

o cuboid
v 1 0.5 0.5
v 1 0.5 -0.5
v 1 0 0.4375
v 1 0 -0.4375
v -1 0.5 0.5
v -1 0.5 -0.5
v -1 0 0.4375
v -1 0 -0.4375
v -0.875 0.375 -0.5
v -0.875 0.5 0.5
v -0.875 0 0.4375
v -0.875 0 -0.4375
v 0.875 0.375 -0.5
v 0.875 0.5 0.5
v 0.875 0 0.4375
v 0.875 0 -0.4375
v -1 0.5 -0.375
v -1 0 -0.328125
v -0.875 0 -0.328125
v 0.875 0 -0.328125
v 1 0 -0.328125
v 1 0.5 -0.375
v 0.875 0.4375 -0.375
v -0.875 0.4375 -0.375
v -1 0.5 0.375
v -1 0 0.328125
v -0.875 0 0.328125
v 0.875 0 0.328125
v 1 0 0.328125
v 1 0.5 0.375
v 0.875 0.5 0.375
v -0.875 0.5 0.375
v -1 1.6875 -0.5
v -0.875 1.6875 -0.375
v -1 1.6875 -0.375
v -0.875 1.6875 -0.5
v -0.875 1.8125 0.5
v -0.875 1.8125 0.375
v -1 1.8125 0.375
v -1 1.8125 0.5
v 1 1.8125 0.5
v 1 1.8125 0.375
v 0.875 1.8125 0.375
v 0.875 1.8125 0.5
v 0.875 1.6875 -0.5
v 1 1.6875 -0.375
v 0.875 1.6875 -0.375
v 1 1.6875 -0.5
vt 0.3828125 0.3671875
vt 0.3671875 0.3671875
vt 0.3671875 0.3046875
vt 0.3828125 0.3046875
vt 0.3984375 0.3203125
vt 0.4140625 0.3203125
vt 0.4140625 0.3828125
vt 0.3984375 0.3828125
vt 0.03125 0.96875
vt 0.03125 0.953125
vt 0.046875 0.953125
vt 0.046875 0.96875
vt 0.015625 0.421875
vt 0.015625 0.4375
vt 0 0.4375
vt 0 0.421875
vt 0 0.7734375
vt 0.015625 0.7734375
vt 0.015625 0.8359375
vt 0 0.8359375
vt 0.25 0.6171875
vt 0.234375 0.6015625
vt 0.234375 0.5546875
vt 0.25 0.5546875
vt 0.2734375 0.671875
vt 0.2734375 0.65440625
vt 0.4921875 0.65440625
vt 0.4921875 0.671875
vt 0.015625 0.7734375
vt 0.234375 0.7734375
vt 0.234375 0.8359375
vt 0.015625 0.8359375
vt 0.234375 0.421875
vt 0.234375 0.4375
vt 0.015625 0.4375
vt 0.015625 0.421875
vt 0.234375 0.6015625
vt 0.015625 0.6015625
vt 0.015625 0.5546875
vt 0.234375 0.5546875
vt 0.03125 0.9453125
vt 0.03125 0.9296875
vt 0.046875 0.9296875
vt 0.046875 0.9453125
vt 0.25 0.8359375
vt 0.234375 0.8359375
vt 0.234375 0.7734375
vt 0.25 0.7734375
vt 0.25 0.421875
vt 0.25 0.4375
vt 0.234375 0.4375
vt 0.234375 0.421875
vt 0 0.5546875
vt 0.015625 0.5546875
vt 0.015625 0.6015625
vt 0 0.6171875
vt 0.4140625 0.3203125
vt 0.5078125 0.3203125
vt 0.5078125 0.3828125
vt 0.4140625 0.3828125
vt 0.015625 0.4375
vt 0.015625 0.53125
vt 0 0.53125
vt 0 0.4375
vt 0.234375 0.4375
vt 0.234375 0.53125
vt 0.015625 0.53125
vt 0.015625 0.4375
vt 0.25 0.4375
vt 0.25 0.53125
vt 0.234375 0.53125
vt 0.234375 0.4375
vt 0.3671875 0.3671875
vt 0.2734375 0.3671875
vt 0.2734375 0.3046875
vt 0.3671875 0.3046875
vt 0.4921875 0.6544062500000001
vt 0.4921875 0.56033125
vt 0.5078125 0.56033125
vt 0.5078125 0.6537570312500001
vt 0.2734375 0.65440625
vt 0.2734375 0.56033125
vt 0.4921875 0.56033125
vt 0.4921875 0.6544062500000001
vt 0.2578125 0.65408125
vt 0.2578125 0.56033125
vt 0.2734375 0.56033125
vt 0.2734375 0.65408125
vt 0.5234375 0.3828125
vt 0.5078125 0.3828125
vt 0.5078125 0.3203125
vt 0.5234375 0.3203125
vt 0 0.546875
vt 0 0.53125
vt 0.015625 0.53125
vt 0.015625 0.546875
vt 0.015625 0.546875
vt 0.015625 0.53125
vt 0.234375 0.53125
vt 0.234375 0.546875
vt 0.234375 0.546875
vt 0.234375 0.53125
vt 0.25 0.53125
vt 0.25 0.546875
vt 0.2578125 0.3046875
vt 0.2734375 0.3046875
vt 0.2734375 0.3671875
vt 0.2578125 0.3671875
vt 0.0703125 0.953125
vt 0.0703125 0.96875
vt 0.0546875 0.96875
vt 0.0546875 0.953125
vt 0.4921875 0.54470625
vt 0.4921875 0.56033125
vt 0.2734375 0.56033125
vt 0.2734375 0.54470625
vt 0.0703125 0.9296875
vt 0.0703125 0.9453125
vt 0.0546875 0.9453125
vt 0.0546875 0.9296875
vt 0.4140625 0.53125
vt 0.3984375 0.53125
vt 0.3984375 0.3828125
vt 0.4140625 0.3828125
vt 0.21875 1
vt 0.203125 1
vt 0.203125 0.8515625
vt 0.21875 0.84375
vt 0.546875 0.6171875
vt 0.53125 0.6171875
vt 0.53125 0.4609375
vt 0.546875 0.453125
vt 0.25 0.765625
vt 0.234375 0.765625
vt 0.234375 0.6015625
vt 0.25 0.6171875
vt 0.5703125 0.6171875
vt 0.5546875 0.6171875
vt 0.5546875 0.453125
vt 0.5703125 0.453125
vt 0.546875 0.4453125
vt 0.53125 0.4453125
vt 0.53125 0.28125
vt 0.546875 0.28125
vt 0.5234375 0.546875
vt 0.5078125 0.546875
vt 0.5078125 0.3828125
vt 0.5234375 0.3828125
vt 0.015625 1
vt 0 1
vt 0 0.8359375
vt 0.015625 0.8359375
vt 0.2734375 0.53125
vt 0.2578125 0.53125
vt 0.2578125 0.3671875
vt 0.2734375 0.3671875
vt 0.5703125 0.4453125
vt 0.5546875 0.4453125
vt 0.5546875 0.28125
vt 0.5703125 0.28125
vt 0.578125 1
vt 0.5625 1
vt 0.5625 0.8359375
vt 0.578125 0.8359375
vt 0.25 1
vt 0.234375 1
vt 0.234375 0.8359375
vt 0.25 0.8359375
vt 0.59375 0.6171875
vt 0.578125 0.6171875
vt 0.578125 0.453125
vt 0.59375 0.4609375
vt 0.046875 0.765625
vt 0.03125 0.765625
vt 0.03125 0.609375
vt 0.046875 0.6171875
vt 0.3828125 0.515625
vt 0.3671875 0.515625
vt 0.3671875 0.3671875
vt 0.3828125 0.3671875
vt 0.015625 0.765625
vt 0 0.765625
vt 0 0.6171875
vt 0.015625 0.6015625
vn 1 0 0
vn -1 0 0
vn 0 1 0
vn 0 -1 0
vn 0 -0.12403473458920847 0.9922778767136677
vn -0.16222142113076254 -0.16222142113076254 -0.9733285267845753
vn 0 0.8944271909999161 -0.44721359549995804
vn 0 -0.12403473458920848 0.9922778767136679
vn 0 -1 0
vn 0 -0.1643989873053573 -0.9863939238321437
vn 0 1 0
vn 0 -0.12403473458920847 0.9922778767136677
vn 0 -1 0
vn 0 -0.1643989873053573 -0.9863939238321437
vn -1 0 0
vn 0 -1 0
vn 0 -1 0
vn 0 -1 0
vn 1 0 0
vn 0 0.9965457582448798 -0.08304547985373999
vn 0 0.9965457582448797 -0.08304547985373997
vn 0 1 0
vn -1 0 0
vn 0 -1 0
vn 0 -1 0
vn 0 -1 0
vn 1 0 0
vn 0 1 0
vn 0 1 0
vn 0 1 0
vn -1 0 0
vn 0 0 1
vn 1 0 0
vn 0 0 -1
vn 1 0 0
vn 0 0 -1
vn -1 0 0
vn 0 0 1
vn 1 0 0
vn 0 0 -1
vn -1 0 0
vn 0 0 1
vn -1 0 0
vn 0 0 1
vn 1 0 0
vn 0 0 -1
usemtl m_d684d420-825f-b0c9-f495-3fdf1f79ce6c
f 2/1/1 22/2/1 21/3/1
f 2/1/1 21/3/1 4/4/1
f 8/5/2 18/6/2 17/7/2
f 8/5/2 17/7/2 6/8/2
f 33/9/3 35/10/3 34/11/3
f 33/9/3 34/11/3 36/12/3
f 12/13/4 19/14/4 18/15/4
f 12/13/4 18/15/4 8/16/4
f 7/17/5 11/18/5 10/19/5
f 7/17/5 10/19/5 5/20/5
f 6/21/6 9/22/6 12/23/6
f 6/21/6 12/23/6 8/24/6
f 9/25/7 24/26/7 23/27/7
f 9/25/7 23/27/7 13/28/7
f 11/29/8 15/30/8 14/31/8
f 11/29/8 14/31/8 10/32/8
f 16/33/9 20/34/9 19/35/9
f 16/33/9 19/35/9 12/36/9
f 9/37/10 13/38/10 16/39/10
f 9/37/10 16/39/10 12/40/10
f 45/41/11 47/42/11 46/43/11
f 45/41/11 46/43/11 48/44/11
f 1/45/12 14/46/12 15/47/12
f 1/45/12 15/47/12 3/48/12
f 4/49/13 21/50/13 20/51/13
f 4/49/13 20/51/13 16/52/13
f 4/53/14 16/54/14 13/55/14
f 4/53/14 13/55/14 2/56/14
f 18/57/15 26/58/15 25/59/15
f 18/57/15 25/59/15 17/60/15
f 19/61/16 27/62/16 26/63/16
f 19/61/16 26/63/16 18/64/16
f 20/65/17 28/66/17 27/67/17
f 20/65/17 27/67/17 19/68/17
f 21/69/18 29/70/18 28/71/18
f 21/69/18 28/71/18 20/72/18
f 22/73/19 30/74/19 29/75/19
f 22/73/19 29/75/19 21/76/19
f 23/77/20 31/78/20 30/79/20
f 23/77/20 30/79/20 22/80/20
f 24/81/21 32/82/21 31/83/21
f 24/81/21 31/83/21 23/84/21
f 17/85/22 25/86/22 32/87/22
f 17/85/22 32/87/22 24/88/22
f 5/89/23 25/90/23 26/91/23
f 5/89/23 26/91/23 7/92/23
f 7/93/24 26/94/24 27/95/24
f 7/93/24 27/95/24 11/96/24
f 11/97/25 27/98/25 28/99/25
f 11/97/25 28/99/25 15/100/25
f 15/101/26 28/102/26 29/103/26
f 15/101/26 29/103/26 3/104/26
f 3/105/27 29/106/27 30/107/27
f 3/105/27 30/107/27 1/108/27
f 41/109/28 42/110/28 43/111/28
f 41/109/28 43/111/28 44/112/28
f 14/113/29 31/114/29 32/115/29
f 14/113/29 32/115/29 10/116/29
f 37/117/30 38/118/30 39/119/30
f 37/117/30 39/119/30 40/120/30
f 35/121/31 33/122/31 6/123/31
f 35/121/31 6/123/31 17/124/31
f 34/125/32 35/126/32 17/127/32
f 34/125/32 17/127/32 24/128/32
f 36/129/33 34/130/33 24/131/33
f 36/129/33 24/131/33 9/132/33
f 33/133/34 36/134/34 9/135/34
f 33/133/34 9/135/34 6/136/34
f 38/137/35 37/138/35 10/139/35
f 38/137/35 10/139/35 32/140/35
f 39/141/36 38/142/36 32/143/36
f 39/141/36 32/143/36 25/144/36
f 40/145/37 39/146/37 25/147/37
f 40/145/37 25/147/37 5/148/37
f 37/149/38 40/150/38 5/151/38
f 37/149/38 5/151/38 10/152/38
f 42/153/39 41/154/39 1/155/39
f 42/153/39 1/155/39 30/156/39
f 43/157/40 42/158/40 30/159/40
f 43/157/40 30/159/40 31/160/40
f 44/161/41 43/162/41 31/163/41
f 44/161/41 31/163/41 14/164/41
f 41/165/42 44/166/42 14/167/42
f 41/165/42 14/167/42 1/168/42
f 47/169/43 45/170/43 13/171/43
f 47/169/43 13/171/43 23/172/43
f 46/173/44 47/174/44 23/175/44
f 46/173/44 23/175/44 22/176/44
f 48/177/45 46/178/45 22/179/45
f 48/177/45 22/179/45 2/180/45
f 45/181/46 48/182/46 2/183/46
f 45/181/46 2/183/46 13/184/46
o cuboid
v 1.0625 1.9375 0.625
v 1.0625 1.75 -0.625
v 1.0625 1.75 0.6875
v 1.0625 1.625 -0.6875
v -1.0625 1.9375 0.625
v -1.0625 1.75 -0.625
v -1.0625 1.75 0.6875
v -1.0625 1.625 -0.6875
vt 0.5546875 0.8420019654987759
vt 0.5546875 1
vt 0.53125 0.9965232706344473
vt 0.5389760652567837 0.8396841459217408
vt 0.18996244767357698 0.9768218042296493
vt 0.19343917703912958 1
vt 0.035441142537905486 1
vt 0.03312332296087042 0.9845478694864327
vt 0.5234375 0.8359375
vt 0.2578125 0.8359375
vt 0.2578125 0.6796875
vt 0.5234375 0.6796875
vt 0.5234375 0.84375
vt 0.5234375 1
vt 0.2578125 1
vt 0.2578125 0.84375
vt 0.78125 0.6484375
vt 0.78125 0.671875
vt 0.515625 0.671875
vt 0.515625 0.6484375
vt 0.78125 0.640625
vt 0.515625 0.640625
vt 0.515625 0.625
vt 0.78125 0.625
vn 1 0 0
vn -1 0 0
vn 0 0.9889363528682975 -0.14834045293024462
vn 0 -0.9958932064677039 0.09053574604251853
vn 0 0.316227766016838 0.948683298050514
vn 0 0.447213595499958 -0.894427190999916
usemtl m_d684d420-825f-b0c9-f495-3fdf1f79ce6c
f 50/185/47 49/186/47 51/187/47
f 50/185/47 51/187/47 52/188/47
f 55/189/48 53/190/48 54/191/48
f 55/189/48 54/191/48 56/192/48
f 53/193/49 49/194/49 50/195/49
f 53/193/49 50/195/49 54/196/49
f 52/197/50 51/198/50 55/199/50
f 52/197/50 55/199/50 56/200/50
f 51/201/51 49/202/51 53/203/51
f 51/201/51 53/203/51 55/204/51
f 54/205/52 50/206/52 52/207/52
f 54/205/52 52/207/52 56/208/52