# Made in Blockbench 4.10.3
mtllib big_wall.mtl

o cuboid
v 1.25 7 1.25
v 1.25 7 -1.25
v 1.25 6 1.25
v 1.25 6 -1.25
v -1.25 7 1.25
v -1.25 7 -1.25
v -1.25 6 1.25
v -1.25 6 -1.25
v -1.25 7 0.96875
v -1.25 6 0.96875
v 1.25 6 0.96875
v 1.25 7 0.96875
v -1.25 7 -0.953125
v -1.25 6 -0.953125
v 1.25 6 -0.953125
v 1.25 7 -0.953125
v 0.9375 7 1.25
v 0.9375 6 1.25
v 0.9375 6 0.96875
v 0.9375 6 -0.953125
v 0.9375 6 -1.25
v 0.9375 7 -1.25
v 0.9375 7 -0.953125
v 0.9375 7 0.96875
v -0.953125 7 1.25
v -0.953125 6 1.25
v -0.953125 6 0.96875
v -0.953125 6 -0.953125
v -0.953125 6 -1.25
v -0.953125 7 -1.25
v -0.953125 7 -0.953125
v -0.953125 7 0.96875
v 0.9375 6.8125 -0.953125
v -0.953125 6.8125 -0.953125
v -0.953125 6.8125 0.96875
v 0.9375 6.8125 0.96875
vt 0.8 1
vt 0.8 0.88125
vt 1 0.88125
vt 1 1
vt 0.99375 0
vt 0.99375 0.11875000000000002
vt 0.80625 0.11875000000000002
vt 0.80625 0
vt 0 0.88125
vt 0.095 0.88125
vt 0.095 1
vt 0 1
vt 0 0
vt 0.095 0
vt 0.095 0.11875000000000002
vt 0 0.11875000000000002
vt 1 0
vt 1 0.1191623263888889
vt 0.7944444444444444 0.1191623263888889
vt 0.7944444444444444 0
vt 0.7972222222222222 1
vt 0.7972222222222222 0.88125
vt 0.9972222222222221 0.88125
vt 0.9972222222222221 1
vt 0.80625 1
vt 0.80625 0.8875
vt 0.99375 0.8875
vt 0.99375 1
vt 0 0.8875
vt 0.095 0.8875
vt 0.095 1
vt 0 1
vt 1 0
vt 1 0.11250000000000004
vt 0.8 0.11250000000000004
vt 0.8 0
vt 0 0
vt 0.095 0
vt 0.095 0.11250000000000004
vt 0 0.11250000000000004
vt 0.80625 0.8875
vt 0.80625 0.11875000000000002
vt 0.99375 0.11875000000000002
vt 0.99375 0.8875
vt 0 0.11875000000000002
vt 0.095 0.11875000000000002
vt 0.095 0.8875
vt 0 0.8875
vt 1 0.11250000000000004
vt 1 0.88125
vt 0.8 0.88125
vt 0.8 0.11250000000000004
vt 0 0.11250000000000004
vt 0.095 0.11250000000000004
vt 0.095 0.88125
vt 0 0.88125
vt 0.7944444444444444 1.0034722222222223
vt 0.7944444444444444 0.8780381944444445
vt 1 0.8780381944444445
vt 1 1.0034722222222223
vt 0.8 1
vt 0.7 1
vt 0.7 0.8875
vt 0.8 0.8875
vt 0.8 0.8875
vt 0.7 0.8875
vt 0.7 0.11875000000000002
vt 0.8 0.11875000000000002
vt 0.8 0.11875000000000002
vt 0.7 0.11875000000000002
vt 0.7 0
vt 0.8 0
vt 0.9972222222222221 1.1102230246251565e-16
vt 0.9972222222222221 0.1250000000000001
vt 0.7972222222222222 0.1250000000000001
vt 0.7972222222222222 1.1102230246251565e-16
vt 0.8 1
vt 0.7 1
vt 0.7 0.88125
vt 0.8 0.88125
vt 0.8 0.88125
vt 0.7 0.88125
vt 0.7 0.11250000000000004
vt 0.8 0.11250000000000004
vt 0.8 0.11250000000000004
vt 0.7 0.11250000000000004
vt 0.7 0
vt 0.8 0
vt 0.7944444444444444 0.8780381944444445
vt 0.7944444444444444 0.1191623263888889
vt 1 0.1191623263888889
vt 1 0.8780381944444445
vt 0.7 1
vt 0.095 1
vt 0.095 0.8875
vt 0.7 0.8875
vt 0.7 0.8875
vt 0.095 0.8875
vt 0.095 0.11875000000000002
vt 0.7 0.11875000000000002
vt 0.7 0.11875000000000002
vt 0.095 0.11875000000000002
vt 0.095 0
vt 0.7 0
vt 0.9972222222222221 0.1250000000000001
vt 0.9972222222222221 0.88125
vt 0.7972222222222222 0.88125
vt 0.7972222222222222 0.1250000000000001
vt 0.7 1
vt 0.095 1
vt 0.095 0.88125
vt 0.7 0.88125
vt 0.7 0.88125
vt 0.095 0.88125
vt 0.095 0.11250000000000004
vt 0.7 0.11250000000000004
vt 0.7 0.11250000000000004
vt 0.095 0.11250000000000004
vt 0.095 0
vt 0.7 0
vt 0.390625 0.953125
vt 0.0125 0.953125
vt 0.0125 0.9375
vt 0.390625 0.9375
vt 0.584375 0.953125
vt 0.2 0.953125
vt 0.2 0.9375
vt 0.584375 0.9375
vt 0.578125 0.9375
vt 0.2 0.9375
vt 0.2 0.921875
vt 0.578125 0.921875
vt 0.571875 0.953125
vt 0.1875 0.953125
vt 0.1875 0.9375
vt 0.571875 0.9375
vn 1 0 0
vn -1 0 0
vn 0 1 0
vn 0 -1 0
vn 0 0 1
vn 0 0 -1
vn -1 0 0
vn 0 -1 0
vn 1 0 0
vn 0 1 0
vn -1 0 0
vn 0 -1 0
vn 1 0 0
vn 0 1 0
vn 0 0 1
vn 0 -1 0
vn 0 -1 0
vn 0 -1 0
vn 0 0 -1
vn 0 1 0
vn 0 1 0
vn 0 1 0
vn 0 0 1
vn 0 -1 0
vn 0 -1 0
vn 0 -1 0
vn 0 0 -1
vn 0 1 0
vn 0 1 0
vn 0 1 0
vn 0 0 1
vn 1 0 0
vn 0 0 -1
vn -1 0 0
usemtl m_5f8bfc7f-afbd-a503-7956-c9fa648060f5
f 2/1/1 16/2/1 15/3/1
f 2/1/1 15/3/1 4/4/1
f 8/5/2 14/6/2 13/7/2
f 8/5/2 13/7/2 6/8/2
f 13/9/3 31/10/3 30/11/3
f 13/9/3 30/11/3 6/12/3
f 8/13/4 29/14/4 28/15/4
f 8/13/4 28/15/4 14/16/4
f 7/17/5 26/18/5 25/19/5
f 7/17/5 25/19/5 5/20/5
f 6/21/6 30/22/6 29/23/6
f 6/21/6 29/23/6 8/24/6
f 5/25/7 9/26/7 10/27/7
f 5/25/7 10/27/7 7/28/7
f 10/29/8 27/30/8 26/31/8
f 10/29/8 26/31/8 7/32/8
f 3/33/9 11/34/9 12/35/9
f 3/33/9 12/35/9 1/36/9
f 5/37/10 25/38/10 32/39/10
f 5/37/10 32/39/10 9/40/10
f 9/41/11 13/42/11 14/43/11
f 9/41/11 14/43/11 10/44/11
f 14/45/12 28/46/12 27/47/12
f 14/45/12 27/47/12 10/48/12
f 11/49/13 15/50/13 16/51/13
f 11/49/13 16/51/13 12/52/13
f 9/53/14 32/54/14 31/55/14
f 9/53/14 31/55/14 13/56/14
f 1/57/15 17/58/15 18/59/15
f 1/57/15 18/59/15 3/60/15
f 3/61/16 18/62/16 19/63/16
f 3/61/16 19/63/16 11/64/16
f 11/65/17 19/66/17 20/67/17
f 11/65/17 20/67/17 15/68/17
f 15/69/18 20/70/18 21/71/18
f 15/69/18 21/71/18 4/72/18
f 4/73/19 21/74/19 22/75/19
f 4/73/19 22/75/19 2/76/19
f 2/77/20 22/78/20 23/79/20
f 2/77/20 23/79/20 16/80/20
f 16/81/21 23/82/21 24/83/21
f 16/81/21 24/83/21 12/84/21
f 12/85/22 24/86/22 17/87/22
f 12/85/22 17/87/22 1/88/22
f 17/89/23 25/90/23 26/91/23
f 17/89/23 26/91/23 18/92/23
f 18/93/24 26/94/24 27/95/24
f 18/93/24 27/95/24 19/96/24
f 19/97/25 27/98/25 28/99/25
f 19/97/25 28/99/25 20/100/25
f 20/101/26 28/102/26 29/103/26
f 20/101/26 29/103/26 21/104/26
f 21/105/27 29/106/27 30/107/27
f 21/105/27 30/107/27 22/108/27
f 22/109/28 30/110/28 31/111/28
f 22/109/28 31/111/28 23/112/28
f 33/113/29 34/114/29 35/115/29
f 33/113/29 35/115/29 36/116/29
f 24/117/30 32/118/30 25/119/30
f 24/117/30 25/119/30 17/120/30
f 34/121/31 33/122/31 23/123/31
f 34/121/31 23/123/31 31/124/31
f 35/125/32 34/126/32 31/127/32
f 35/125/32 31/127/32 32/128/32
f 36/129/33 35/130/33 32/131/33
f 36/129/33 32/131/33 24/132/33
f 33/133/34 36/134/34 24/135/34
f 33/133/34 24/135/34 23/136/34