# Made in Blockbench 4.10.3
mtllib pig_feeder.mtl

o cuboid
v 1 0.5 0.5
v 1 0.5 -0.5
v 0.9375 0 0.4375
v 0.9375 0 -0.4375
v -1 0.5 0.5
v -1 0.5 -0.5
v -0.9375 0 0.4375
v -0.9375 0 -0.4375
v 0.8525 0.375 0.395
v 0.8525 0.375 -0.395
v -0.8525 0.375 0.395
v -0.8525 0.375 -0.395
vt 0.25 0.546875
vt 0 0.546875
vt 0.015625 0.421875
vt 0.234375 0.421875
vt 0.71875 0.875
vt 0.734375 1
vt 0.484375 1
vt 0.5 0.875
vt 0 0.5625
vt 0.421875 0.5625
vt 0.421875 0.765625
vt 0 0.765625
vt 0.46875 0.78125
vt 0.46875 1
vt 0 1
vt 0 0.78125
vt 0.921875 0.640625
vt 0.9375 0.765625
vt 0.4375 0.765625
vt 0.453125 0.640625
vt 0.9375 0.625
vt 0.4375 0.625
vt 0.453125 0.5
vt 0.921875 0.5
vt 0.52125 0.8125
vt 0.9475 0.8125
vt 0.984375 0.859375
vt 0.484375 0.859375
vt 0.291875 0.375
vt 0.489375 0.375
vt 0.515625 0.421875
vt 0.265625 0.421875
vt 0.3025 0.4375
vt 0.72875 0.4375
vt 0.765625 0.484375
vt 0.265625 0.484375
vt 0.5575 0.375
vt 0.755 0.375
vt 0.78125 0.421875
vt 0.53125 0.421875
vn 0.9922778767136677 -0.12403473458920847 0
vn -0.9922778767136677 -0.12403473458920847 0
vn 0 1 0
vn 0 -1 0
vn 0 -0.12403473458920847 0.9922778767136677
vn 0 -0.12403473458920847 -0.9922778767136677
vn 0 0.6431920864232733 -0.7657048647896111
vn -0.6465216954016154 0.762895600573906 0
vn 0 0.6431920864232733 0.7657048647896111
vn 0.6465216954016154 0.762895600573906 0
usemtl m_6aec0f4e-43c1-16cd-746a-20d0737c93e3
f 2/1/1 1/2/1 3/3/1
f 2/1/1 3/3/1 4/4/1
f 7/5/2 5/6/2 6/7/2
f 7/5/2 6/7/2 8/8/2
f 11/9/3 9/10/3 10/11/3
f 11/9/3 10/11/3 12/12/3
f 4/13/4 3/14/4 7/15/4
f 4/13/4 7/15/4 8/16/4
f 3/17/5 1/18/5 5/19/5
f 3/17/5 5/19/5 7/20/5
f 6/21/6 2/22/6 4/23/6
f 6/21/6 4/23/6 8/24/6
f 9/25/7 11/26/7 5/27/7
f 9/25/7 5/27/7 1/28/7
f 10/29/8 9/30/8 1/31/8
f 10/29/8 1/31/8 2/32/8
f 12/33/9 10/34/9 2/35/9
f 12/33/9 2/35/9 6/36/9
f 11/37/10 12/38/10 6/39/10
f 11/37/10 6/39/10 5/40/10