# Made in Blockbench 4.10.3
mtllib barrel_broken.mtl

o cylinder
v 0 0 0
v 0 0.75 0
v 0.21650635094610962 0 0.375
v 0.21650635094610962 0.75 0.375
v 0.4330127018922193 0 2.651438096812267e-17
v 0.4330127018922193 0.75 2.651438096812267e-17
v 0.21650635094610962 0 -0.375
v 0.21650635094610962 0.75 -0.375
v -0.2165063509461097 0 -0.375
v -0.1540063509461097 0.5 -0.375
v -0.4330127018922193 0 -7.954314290436801e-17
v -0.3705127018922193 0.5 -7.954314290436801e-17
v -0.21650635094610984 0 0.37499999999999983
v -0.21650635094610984 0.625 0.37499999999999983
v -0.4955127018922194 0.375 -9.280033338842934e-17
v -0.24775635094610976 0.375 -0.4375
v 0.2477563509461097 0.375 -0.4375
v 0.4955127018922194 0.375 3.0933444462809784e-17
v 0.2477563509461097 0.375 0.4375
v -0.24775635094610995 0.375 0.4374999999999998
vt 0.217628125 0.90625
vt 0.1635015625 1
vt 0.109375 0.90625
vt 0.3996765625 0.9865984375
vt 0.3899296875 0.891734375
vt 0.515625 0.891734375
vt 0.507925 0.9864609375
vt 0.33537656250000003 0.640625
vt 0.389503125 0.734375
vt 0.28125 0.734375
vt 0.1635015625 0.8125
vt 0.217628125 0.90625
vt 0.109375 0.90625
vt 0.14832499999999998 0.6248703125
vt 0.140625 0.5301390625
vt 0.2663203125 0.5301390625
vt 0.2565734375 0.625
vt 0.389503125 0.734375
vt 0.33537656250000003 0.828125
vt 0.28125 0.734375
vt 0.0552484375 0.8125
vt 0.1635015625 0.8125
vt 0.109375 0.90625
vt 0.008373437499999997 0.5650859375
vt 0.0005609374999999972 0.47004375
vt 0.1244390625 0.47004375
vt 0.1166265625 0.5650859375
vt 0.33537656250000003 0.828125
vt 0.2271234375 0.828125
vt 0.28125 0.734375
vt 0.0011218749999999944 0.90625
vt 0.0552484375 0.8125
vt 0.109375 0.90625
vt 0.3840515625 0.6428484375
vt 0.3743046875 0.547984375
vt 0.5 0.547984375
vt 0.4923 0.6427109375
vt 0.0552484375 1
vt 0.0011218749999999944 0.90625
vt 0.109375 0.90625
vt 0.0076999999999999985 0.7967453125
vt 0 0.7020140625
vt 0.1256953125 0.7020140625
vt 0.1159484375 0.796875
vt 0.172996875 0.734375
vt 0.2271234375 0.640625
vt 0.28125 0.734375
vt 0.1635015625 1
vt 0.0552484375 1
vt 0.109375 0.90625
vt 0.5239984375 0.78125
vt 0.5161859375 0.6862078125
vt 0.6400640625 0.6862078125
vt 0.6322515625 0.78125
vt 0.2271234375 0.640625
vt 0.33537656250000003 0.640625
vt 0.28125 0.734375
vt 0.4923 0.4532546875
vt 0.5 0.547984375
vt 0.3743046875 0.547984375
vt 0.3840515625 0.453125
vt 0.1166265625 0.375
vt 0.1244390625 0.47004375
vt 0.0005609374999999972 0.47004375
vt 0.008373437499999997 0.375
vt 0.2565734375 0.4352750000000001
vt 0.2663203125 0.5301390625
vt 0.140625 0.5301390625
vt 0.14832499999999998 0.4354125
vt 0.507925 0.7970046875
vt 0.515625 0.891734375
vt 0.3899296875 0.891734375
vt 0.3996765625 0.796875
vt 0.6322515625 0.5911640625
vt 0.6400640625 0.6862078125
vt 0.5161859375 0.6862078125
vt 0.5239984375 0.5911640625
vt 0.1159484375 0.6071500000000001
vt 0.1256953125 0.7020140625
vt 6.938893903907228e-18 0.7020140625
vt 0.007699999999999992 0.6072875
vt 0.2271234375 0.828125
vt 0.172996875 0.734375
vt 0.28125 0.734375
vn 0 -1 0
vn 0.8599373642289004 0.15282523498233924 0.48698272777958423
vn 0 1 0
vn 0 -1 0
vn 0.8611498990558828 0.14352498317598072 -0.48766938653187714
vn 0 1 0
vn 0 -1 0
vn 0 0.16439898730535732 -0.9863939238321439
vn -0.5322607760013038 0.7888375129099697 -0.3073009023034318
vn 0 -1 0
vn -0.6471041575875234 0.6685557350660041 -0.3664552337507226
vn 0 -1 0
vn -0.6564337135098988 0.6564337135098993 0.37173856342220896
vn -0.5587185925628073 0.8280493413114551 -0.046559882713567584
vn 0 -1 0
vn -4.347313547022007e-16 0.24253562503633283 0.970142500145332
vn -0.2738612787525831 0.948683298050514 0.15811388300841897
vn -0.8611498990558829 -0.14352498317598075 -0.48766938653187714
vn 0 -0.1643989873053573 -0.9863939238321439
vn 0.8599373642289003 -0.15282523498233921 -0.48698272777958396
vn 0.8611498990558828 -0.14352498317598072 0.48766938653187714
vn -4.420137935543784e-16 -0.16439898730535726 0.9863939238321439
vn -0.8599373642289007 -0.15282523498233924 0.4869827277795839
vn -0.532260776001304 0.7888375129099697 -0.3073009023034318
usemtl m_9ecbe35e-9707-7cc8-96ff-54c336bbc053
f 5/1/1 3/2/1 1/3/1
f 4/4/2 19/5/2 18/6/2
f 4/4/2 18/6/2 6/7/2
f 4/8/3 6/9/3 2/10/3
f 7/11/4 5/12/4 1/13/4
f 6/14/5 18/15/5 17/16/5
f 6/14/5 17/16/5 8/17/5
f 6/18/6 8/19/6 2/20/6
f 9/21/7 7/22/7 1/23/7
f 8/24/8 17/25/8 16/26/8
f 8/24/8 16/26/8 10/27/8
f 8/28/9 10/29/9 2/30/9
f 11/31/10 9/32/10 1/33/10
f 10/34/11 16/35/11 15/36/11
f 10/34/11 15/36/11 12/37/11
f 13/38/12 11/39/12 1/40/12
f 12/41/13 15/42/13 20/43/13
f 12/41/13 20/43/13 14/44/13
f 12/45/14 14/46/14 2/47/14
f 3/48/15 13/49/15 1/50/15
f 14/51/16 20/52/16 19/53/16
f 14/51/16 19/53/16 4/54/16
f 14/55/17 4/56/17 2/57/17
f 11/58/18 15/59/18 16/60/18
f 11/58/18 16/60/18 9/61/18
f 9/62/19 16/63/19 17/64/19
f 9/62/19 17/64/19 7/65/19
f 7/66/20 17/67/20 18/68/20
f 7/66/20 18/68/20 5/69/20
f 5/70/21 18/71/21 19/72/21
f 5/70/21 19/72/21 3/73/21
f 3/74/22 19/75/22 20/76/22
f 3/74/22 20/76/22 13/77/22
f 13/78/23 20/79/23 15/80/23
f 13/78/23 15/80/23 11/81/23
f 10/82/24 12/83/24 2/84/24