# Made in Blockbench 4.10.3
mtllib fence_corner.mtl

o cuboid
v 0.0625 0.5 -0.15625000000000003
v 0.0625 0.5 -0.28125
v 0.0625 0 -0.1875
v 0.0625 0 -0.3125
v -0.0625 0.5 -0.15625000000000003
v -0.0625 0.5 -0.28125
v -0.0625 0 -0.1875
v -0.0625 0 -0.3125
v 0.0625 0.25 -0.1875
v 0.0625 0.25 -0.3125
v -0.0625 0.25 -0.3125
v -0.0625 0.25 -0.1875
vt 0.16796875 0.625
vt 0.16796875 0.6875
vt 0.13671875 0.6875
vt 0.13671875 0.625
vt 0.20703125 0.609375
vt 0.20703125 0.671875
vt 0.17578125 0.671875
vt 0.17578125 0.609375
vt 0.28125 0.6875
vt 0.3125 0.6875
vt 0.3125 0.71875
vt 0.28125 0.71875
vt 0.34375 0.96875
vt 0.34375 1
vt 0.3125 1
vt 0.3125 0.96875
vt 0.3125 0.8745125
vt 0.3125 0.9370125
vt 0.28125 0.9370125
vt 0.28125 0.8745125
vt 0.3125 0.7338890625
vt 0.3125 0.7963890625
vt 0.28125 0.7963890625
vt 0.28125 0.7338890625
vt 0.12890625 0.75
vt 0.13671875 0.6875
vt 0.16796875 0.6875
vt 0.16015625 0.75
vt 0.28125 0.859375
vt 0.28125 0.7963890625
vt 0.3125 0.7963890625
vt 0.3125 0.859375
vt 0.18359375 0.734375
vt 0.17578125 0.671875
vt 0.20703125 0.671875
vt 0.21484375 0.734375
vt 0.28125 1
vt 0.28125 0.9370125
vt 0.3125 0.9370125
vt 0.3125 1
vn 1 0 0
vn -1 0 0
vn 0 1 0
vn 0 -1 0
vn 0 0 1
vn 0 0 -1
vn 1 0 0
vn 0 0.12403473458920847 -0.9922778767136677
vn -1 0 0
vn 0 -0.12403473458920836 0.9922778767136677
usemtl m_79b84391-e1ac-e912-7dcf-85575fa44b08
f 4/1/1 10/2/1 9/3/1
f 4/1/1 9/3/1 3/4/1
f 7/5/2 12/6/2 11/7/2
f 7/5/2 11/7/2 8/8/2
f 5/9/3 1/10/3 2/11/3
f 5/9/3 2/11/3 6/12/3
f 4/13/4 3/14/4 7/15/4
f 4/13/4 7/15/4 8/16/4
f 3/17/5 9/18/5 12/19/5
f 3/17/5 12/19/5 7/20/5
f 8/21/6 11/22/6 10/23/6
f 8/21/6 10/23/6 4/24/6
f 1/25/7 9/26/7 10/27/7
f 1/25/7 10/27/7 2/28/7
f 2/29/8 10/30/8 11/31/8
f 2/29/8 11/31/8 6/32/8
f 6/33/9 11/34/9 12/35/9
f 6/33/9 12/35/9 5/36/9
f 5/37/10 12/38/10 9/39/10
f 5/37/10 9/39/10 1/40/10
o cuboid
v 0.3125 0.5625 0.0375
v 0.3125 0.5625 -0.0875
v 0.3125 0 0.0625
v 0.3125 0 -0.0625
v 0.1875 0.5625 0.0375
v 0.1875 0.5625 -0.0875
v 0.1875 0 0.0625
v 0.1875 0 -0.0625
v 0.3125 0.25 -0.0625
v 0.3125 0.25 0.0625
v 0.1875 0.25 0.0625
v 0.1875 0.25 -0.0625
vt 0.0421875 0.75
vt 0.0359375 0.671875
vt 0.0671875 0.671875
vt 0.0734375 0.75
vt 0.0828125 0.75
vt 0.0890625 0.671875
vt 0.1203125 0.671875
vt 0.1140625 0.75
vt 0.3125 0.9375
vt 0.34375 0.9375
vt 0.34375 0.96875
vt 0.3125 0.96875
vt 0.34375 0.90625
vt 0.34375 0.9375
vt 0.3125 0.9375
vt 0.3125 0.90625
vt 0.21875 0.734375
vt 0.21875 0.656
vt 0.25 0.656
vt 0.25 0.734375
vt 0.25 0.734375
vt 0.25 0.656
vt 0.28125 0.656
vt 0.28125 0.734375
vt 0.0671875 0.609375
vt 0.0671875 0.671875
vt 0.0359375 0.671875
vt 0.0359375 0.609375
vt 0.25 0.5935
vt 0.25 0.656
vt 0.21875 0.656
vt 0.21875 0.5935
vt 0.1203125 0.609375
vt 0.1203125 0.671875
vt 0.0890625 0.671875
vt 0.0890625 0.609375
vt 0.28125 0.5935
vt 0.28125 0.656
vt 0.25 0.656
vt 0.25 0.5935
vn 1 0 0
vn -1 0 0
vn 0 1 0
vn 0 -1 0
vn 0 0.07974522228289001 0.9968152785361251
vn 0 -0.07974522228288998 -0.9968152785361251
vn 1 0 0
vn 0 0 1
vn -1 0 0
vn 0 0 -1
usemtl m_79b84391-e1ac-e912-7dcf-85575fa44b08
f 13/41/11 22/42/11 21/43/11
f 13/41/11 21/43/11 14/44/11
f 18/45/12 24/46/12 23/47/12
f 18/45/12 23/47/12 17/48/12
f 17/49/13 13/50/13 14/51/13
f 17/49/13 14/51/13 18/52/13
f 16/53/14 15/54/14 19/55/14
f 16/53/14 19/55/14 20/56/14
f 17/57/15 23/58/15 22/59/15
f 17/57/15 22/59/15 13/60/15
f 14/61/16 21/62/16 24/63/16
f 14/61/16 24/63/16 18/64/16
f 16/65/17 21/66/17 22/67/17
f 16/65/17 22/67/17 15/68/17
f 15/69/18 22/70/18 23/71/18
f 15/69/18 23/71/18 19/72/18
f 19/73/19 23/74/19 24/75/19
f 19/73/19 24/75/19 20/76/19
f 20/77/20 24/78/20 21/79/20
f 20/77/20 21/79/20 16/80/20
o cuboid
v 0.49809165180276666 0.25000000000000056 -0.06870835969420563
v 0.49809165180276666 0.3749999999999997 -0.06870835969420563
v 0.04375 0.24999999999999994 -0.5
v 0.04375 0.37499999999999994 -0.5
v 0.5019083481972333 0.25000000000000056 0.018708359694205534
v 0.5019083481972333 0.3749999999999998 0.018708359694205534
v -0.04375 0.24999999999999994 -0.5
v -0.04375 0.37499999999999994 -0.5
v 0.04375 0.39375000000000004 -0.02500000000000005
v 0.04375 0.26875000000000004 -0.025000000000000022
v -0.04375 0.26875000000000004 0.0625
v -0.04375 0.39375000000000004 0.0625
vt 0.09921875 1
vt 0.10390625 0.875
vt 0.13515625 0.875
vt 0.13046875 1
vt 0.15078125 1
vt 0.14609375 0.875
vt 0.17734375 0.875
vt 0.18203125 1
vt 0.3125 0.875
vt 0.328125 0.875
vt 0.328125 0.90625
vt 0.3125 0.90625
vt 0.328125 0.84375
vt 0.328125 0.875
vt 0.3125 0.875
vt 0.3125 0.84375
vt 0.004687500000000001 0.7345515625000001
vt 0.004687500000000001 0.6094640625000001
vt 0.0265625 0.6094640625000001
vt 0.0265625 0.7345515625000001
vt 0.2546875 1
vt 0.2546875 0.8749125
vt 0.2765625 0.8749125
vt 0.2765625 1
vt 0.13046875 0.75
vt 0.13515625 0.875
vt 0.10390625 0.875
vt 0.09921875000000001 0.75
vt 0.0265625 0.484375
vt 0.0265625 0.6094640625000001
vt 0.004687500000000001 0.6094640625000001
vt 0.004687500000000001 0.484375
vt 0.18203125 0.75
vt 0.17734375 0.875
vt 0.14609375 0.875
vt 0.15078125 0.75
vt 0.2765625 0.749825
vt 0.2765625 0.8749125
vt 0.2546875 0.8749125
vt 0.2546875 0.749825
vn -0.09575943132934413 -2.21024200358613e-16 -0.9954045063749114
vn 0.07999747669166585 2.213329666346699e-16 0.9967950660607058
vn 0.999048221581858 -9.685449634607415e-18 -0.04361938736533366
vn 0 -2.220446049250313e-16 -1
vn -0.03730847846365907 -0.9986071073597731 -0.037308478463658964
vn 0.04556627411884067 0.9979215546954849 0.04556627411884061
vn 1 0 0
vn 0.0394123208159858 -0.9984454606716361 0.03941232081598586
vn -1 0 0
vn -0.033296357910601516 0.9988907373180403 -0.03329635791060157
usemtl m_79b84391-e1ac-e912-7dcf-85575fa44b08
f 25/81/21 34/82/21 33/83/21
f 25/81/21 33/83/21 26/84/21
f 30/85/22 36/86/22 35/87/22
f 30/85/22 35/87/22 29/88/22
f 29/89/23 25/90/23 26/91/23
f 29/89/23 26/91/23 30/92/23
f 28/93/24 27/94/24 31/95/24
f 28/93/24 31/95/24 32/96/24
f 29/97/25 35/98/25 34/99/25
f 29/97/25 34/99/25 25/100/25
f 26/101/26 33/102/26 36/103/26
f 26/101/26 36/103/26 30/104/26
f 28/105/27 33/106/27 34/107/27
f 28/105/27 34/107/27 27/108/27
f 27/109/28 34/110/28 35/111/28
f 27/109/28 35/111/28 31/112/28
f 31/113/29 35/114/29 36/115/29
f 31/113/29 36/115/29 32/116/29
f 32/117/30 36/118/30 33/119/30
f 32/117/30 33/119/30 28/120/30
o cuboid
v 0.5019083481972334 0.06250000000000036 -0.043708359694206056
v 0.5019083481972334 0.18749999999999994 -0.043708359694206056
v 0.04375 0.062499999999999944 -0.5
v 0.04375 0.18749999999999994 -0.5
v 0.4980916518027666 0.06250000000000037 0.043708359694206056
v 0.4980916518027666 0.18749999999999994 0.043708359694206056
v -0.04375 0.062499999999999944 -0.5
v -0.04375 0.18749999999999994 -0.5
v 0.04375 0.1625000000000001 0
v 0.04375 0.037500000000000075 0
v -0.04375 0.037500000000000075 0.0625
v -0.04375 0.1625000000000001 0.0625
vt 0.0109375 1
vt 0.004687500000000001 0.875
vt 0.0359375 0.875
vt 0.0421875 1
vt 0.0515625 1
vt 0.0578125 0.875
vt 0.0890625 0.875
vt 0.0828125 1
vt 0.3125 0.8125
vt 0.328125 0.8125
vt 0.328125 0.84375
vt 0.3125 0.84375
vt 0.328125 0.78125
vt 0.328125 0.8125
vt 0.3125 0.8125
vt 0.3125 0.78125
vt 0.1921875 1
vt 0.1921875 0.87484375
vt 0.2140625 0.87484375
vt 0.2140625 1
vt 0.2234375 0.9846859375
vt 0.2234375 0.8595296875
vt 0.2453125 0.8595296875
vt 0.2453125 0.9846859375
vt 0.0421875 0.75
vt 0.0359375 0.875
vt 0.004687500000000001 0.875
vt 0.0109375 0.75
vt 0.2140625 0.7496875000000001
vt 0.2140625 0.87484375
vt 0.1921875 0.87484375
vt 0.1921875 0.7496875000000001
vt 0.0828125 0.75
vt 0.0890625 0.875
vt 0.0578125 0.875
vt 0.0515625 0.75
vt 0.2453125 0.734375
vt 0.2453125 0.8595296875
vt 0.2234375 0.8595296875
vt 0.2234375 0.734375
vn -0.09496893036792692 -2.2104101593614407e-16 -0.9954802370036143
vn 0.034660217361243036 2.219111903475064e-16 0.999399154158373
vn 0.9990482215818578 9.685449634607734e-18 0.0436193873653351
vn 0 -2.220446049250313e-16 -1
vn 0.04832556721569591 -0.9965376726836336 0.06765579410197428
vn -0.0626111322419897 0.9941812432918624 -0.08765558513878553
vn 1 0 0
vn -0.03564705619872184 -0.9981175735642174 -0.0499058786782106
vn -1 0 0
vn 0.03169878632583893 0.998511769263932 0.044378300856174516
usemtl m_79b84391-e1ac-e912-7dcf-85575fa44b08
f 37/121/31 46/122/31 45/123/31
f 37/121/31 45/123/31 38/124/31
f 42/125/32 48/126/32 47/127/32
f 42/125/32 47/127/32 41/128/32
f 41/129/33 37/130/33 38/131/33
f 41/129/33 38/131/33 42/132/33
f 40/133/34 39/134/34 43/135/34
f 40/133/34 43/135/34 44/136/34
f 41/137/35 47/138/35 46/139/35
f 41/137/35 46/139/35 37/140/35
f 38/141/36 45/142/36 48/143/36
f 38/141/36 48/143/36 42/144/36
f 40/145/37 45/146/37 46/147/37
f 40/145/37 46/147/37 39/148/37
f 39/149/38 46/150/38 47/151/38
f 39/149/38 47/151/38 43/152/38
f 43/153/39 47/154/39 48/155/39
f 43/153/39 48/155/39 44/156/39
f 44/157/40 48/158/40 45/159/40
f 44/157/40 45/159/40 40/160/40