# Made in Blockbench 4.10.3
mtllib fallen_column.mtl

o cuboid
v 0.1875 0.375 0.4375
v 0.1875 0.3125 -0.4375
v 0.1875 0 0.5
v 0.1875 -0.0625 -0.5
v -0.1875 0.375 0.4375
v -0.1875 0.3125 -0.4375
v -0.1875 0 0.5
v -0.1875 -0.0625 -0.5
vt 0.1875 0.32482358601495387
vt 0.1875 0.7634382375030226
vt 0 0.78125
vt 0.004452940624244461 0.28029417977251037
vt 0.5082904101137449 0.810750023469615
vt 0.49047864761676746 1
vt 0.051863996128698714 1
vt 0.007334589886255183 0.8152029640938594
vt 0.625 0.75
vt 0.4375 0.75
vt 0.4375 0.3125
vt 0.625 0.3125
vt 0.40625 0.25
vt 0.40625 0.75
vt 0.21875 0.75
vt 0.21875 0.25
vt 0.75 0.8125
vt 0.75 1
vt 0.5625 1
vt 0.5625 0.8125
vt 0.84375 0.78125
vt 0.65625 0.78125
vt 0.65625 0.59375
vt 0.84375 0.59375
vn 1 0 0
vn -1 0 0
vn 0 0.997458699830735 -0.07124704998790965
vn 0 -0.9980525784828888 0.06237828615518055
vn 0 0.1643989873053573 0.9863939238321437
vn 0 0.1643989873053573 -0.9863939238321437
usemtl m_6538c992-9ff6-c58c-37d8-02b3a3d4ab6d
f 2/1/1 1/2/1 3/3/1
f 2/1/1 3/3/1 4/4/1
f 7/5/2 5/6/2 6/7/2
f 7/5/2 6/7/2 8/8/2
f 5/9/3 1/10/3 2/11/3
f 5/9/3 2/11/3 6/12/3
f 4/13/4 3/14/4 7/15/4
f 4/13/4 7/15/4 8/16/4
f 3/17/5 1/18/5 5/19/5
f 3/17/5 5/19/5 7/20/5
f 6/21/6 2/22/6 4/23/6
f 6/21/6 4/23/6 8/24/6