# Made in Blockbench 4.10.3
mtllib throne_hall_vitrage.mtl

o cuboid
v 1 3 -0.1875
v 1 3 -0.4375
v 1 0 -0.1875
v 1 0 -0.4375
v -1 3 -0.1875
v -1 3 -0.4375
v -1 0 -0.1875
v -1 0 -0.4375
vt 0.27083333333333337 1
vt 0 1
vt 0 0.9583333333333334
vt 0.27083333333333337 0.9583333333333334
vt 0.18749999999999997 0.9027777777777778
vt 0.18749999999999997 1
vt 0 1
vt 0 0.9027777777777778
vt 0 0.9444444444444444
vt 0.3333333333333333 0.9444444444444444
vt 0.3333333333333333 0.9722222222222222
vt 0 0.9722222222222222
vt 0.25 0.9583333333333334
vt 0.25 1
vt 0 1
vt 0 0.9583333333333334
vt 1 0
vt 1 1
vt 0 1
vt 0 0
vt 1 1
vt 0 1
vt 0 0
vt 1 0
vn 1 0 0
vn -1 0 0
vn 0 1 0
vn 0 -1 0
vn 0 0 1
vn 0 0 -1
usemtl m_e3a46b49-09b1-6084-7c8e-f763f807a266
f 2/1/1 1/2/1 3/3/1
f 2/1/1 3/3/1 4/4/1
f 7/5/2 5/6/2 6/7/2
f 7/5/2 6/7/2 8/8/2
f 5/9/3 1/10/3 2/11/3
f 5/9/3 2/11/3 6/12/3
f 4/13/4 3/14/4 7/15/4
f 4/13/4 7/15/4 8/16/4
f 3/17/5 1/18/5 5/19/5
f 3/17/5 5/19/5 7/20/5
f 6/21/6 2/22/6 4/23/6
f 6/21/6 4/23/6 8/24/6