# Made in Blockbench 4.10.3
mtllib cart_empty.mtl

o cylinder
v -0.6875 0.35000000000000087 2.42861286636753e-17
v -0.8125 0.3500000000000011 3.122502256758253e-17
v -0.6875 0.3480515064608687 0.3857003597081909
v -0.8125 0.3480515064608689 0.3857003597081909
v -0.6874999999999993 0.6938625300747774 0.21486915631372722
v -0.8124999999999993 0.6938625300747776 0.21486915631372722
v -0.6874999999999993 0.6958110236139095 -0.17083120339446373
v -0.8124999999999993 0.6958110236139097 -0.17083120339446373
v -0.6875 0.35194849353913293 -0.38570035970819083
v -0.8125 0.35194849353913316 -0.38570035970819083
v -0.6875000000000007 0.006137469925224459 -0.2148691563137272
v -0.8125000000000007 0.006137469925224681 -0.2148691563137272
v -0.6875000000000007 0.004188976386092169 0.17083120339446353
v -0.8125000000000007 0.004188976386092391 0.17083120339446353
vt 0.265625 0.3671875
vt 0.2109375 0.453125
vt 0.1640625 0.3671875
vt 0.078125 0.234375
vt 0.171875 0.234375
vt 0.171875 0.265625
vt 0.078125 0.265625
vt 0.4296875 0.2421875
vt 0.484375 0.3203125
vt 0.3828125 0.3203125
vt 0.2109375 0.2890625
vt 0.265625 0.3671875
vt 0.1640625 0.3671875
vt 0.1875 0.234375
vt 0.28125 0.234375
vt 0.28125 0.265625
vt 0.1875 0.265625
vt 0.484375 0.3203125
vt 0.4296875 0.40625
vt 0.3828125 0.3203125
vt 0.1171875 0.2890625
vt 0.2109375 0.2890625
vt 0.1640625 0.3671875
vt 0.5625 0.375
vt 0.65625 0.375
vt 0.65625 0.40625
vt 0.5625 0.40625
vt 0.4296875 0.40625
vt 0.3359375 0.40625
vt 0.3828125 0.3203125
vt 0.0625 0.3671875
vt 0.1171875 0.2890625
vt 0.1640625 0.3671875
vt 0.71875 0.265625
vt 0.8125 0.265625
vt 0.8125 0.296875
vt 0.71875 0.296875
vt 0.3359375 0.40625
vt 0.28125 0.3203125
vt 0.3828125 0.3203125
vt 0.1171875 0.453125
vt 0.0625 0.3671875
vt 0.1640625 0.3671875
vt 0.671875 0.375
vt 0.765625 0.375
vt 0.765625 0.40625
vt 0.671875 0.40625
vt 0.28125 0.3203125
vt 0.3359375 0.2421875
vt 0.3828125 0.3203125
vt 0.2109375 0.453125
vt 0.1171875 0.453125
vt 0.1640625 0.3671875
vt 0.640625 0.640625
vt 0.734375 0.640625
vt 0.734375 0.671875
vt 0.640625 0.671875
vt 0.3359375 0.2421875
vt 0.4296875 0.2421875
vt 0.3828125 0.3203125
vn 1 -1.818210814371857e-15 -2.3365851690742873e-17
vn 8.365287179477669e-16 0.4429060519233978 0.8965680281883962
vn -1 1.818210814371857e-15 2.3365851690742873e-17
vn 1 -1.818210814371857e-15 -2.3365851690742873e-17
vn 1.776614602073009e-15 0.9999872397393967 0.005051767847250368
vn -1 1.818210814371857e-15 2.3365851690742873e-17
vn 1 -1.818210814371857e-15 -2.3365851690742873e-17
vn 8.942495832334822e-16 0.5299192642332048 -0.8480480961564262
vn -1 1.818210814371857e-15 2.3365851690742873e-17
vn 1 -1.818210814371857e-15 -2.3365851690742873e-17
vn -8.365287179477669e-16 -0.4429060519233978 -0.8965680281883961
vn -1 1.818210814371857e-15 2.3365851690742873e-17
vn 1 -1.818210814371857e-15 -2.3365851690742873e-17
vn -1.7766146020730088e-15 -0.9999872397393967 -0.005051767847250866
vn -1 1.818210814371857e-15 2.3365851690742873e-17
vn 1 -1.818210814371857e-15 -2.3365851690742873e-17
vn -8.942495832334828e-16 -0.5299192642332051 0.848048096156426
vn -1 1.818210814371857e-15 2.3365851690742873e-17
usemtl m_9ea6b693-e482-f3cb-2fb4-ff29ab2254f3
f 5/1/1 3/2/1 1/3/1
f 3/4/2 5/5/2 6/6/2
f 3/4/2 6/6/2 4/7/2
f 4/8/3 6/9/3 2/10/3
f 7/11/4 5/12/4 1/13/4
f 5/14/5 7/15/5 8/16/5
f 5/14/5 8/16/5 6/17/5
f 6/18/6 8/19/6 2/20/6
f 9/21/7 7/22/7 1/23/7
f 7/24/8 9/25/8 10/26/8
f 7/24/8 10/26/8 8/27/8
f 8/28/9 10/29/9 2/30/9
f 11/31/10 9/32/10 1/33/10
f 9/34/11 11/35/11 12/36/11
f 9/34/11 12/36/11 10/37/11
f 10/38/12 12/39/12 2/40/12
f 13/41/13 11/42/13 1/43/13
f 11/44/14 13/45/14 14/46/14
f 11/44/14 14/46/14 12/47/14
f 12/48/15 14/49/15 2/50/15
f 3/51/16 13/52/16 1/53/16
f 13/54/17 3/55/17 4/56/17
f 13/54/17 4/56/17 14/57/17
f 14/58/18 4/59/18 2/60/18
o cuboid
v 0.6875 0.34885694154218416 0.9191302596421221
v 0.6875 0.8375038657366279 -0.6306597853237467
v 0.6875 -0.008786914988400923 0.8063655848280198
v 0.6875 0.6029609783325689 -0.7217184379294828
v -0.6875 0.34885694154218416 0.9191302596421221
v -0.6875 0.8375038657366279 -0.6306597853237467
v -0.6875 -0.008786914988400923 0.8063655848280198
v -0.6875 0.6029609783325689 -0.7217184379294828
v -0.5 0.1700350132768916 0.8627479222350709
v -0.5 0.8375038657366279 -0.6306597853237467
v -0.5 0.6029609783325689 -0.7217184379294828
v -0.5 -0.008786914988400923 0.8063655848280198
v 0.53125 0.1700350132768916 0.8627479222350709
v 0.53125 0.8375038657366279 -0.6306597853237467
v 0.53125 0.6029609783325689 -0.7217184379294828
v 0.53125 -0.008786914988400923 0.8063655848280198
v 0.6875 0.7811215283295767 -0.45183785705845414
v 0.6875 0.4234776717989916 -0.5646025318725565
v 0.53125 0.4234776717989916 -0.5646025318725565
v -0.5 0.4234776717989916 -0.5646025318725565
v -0.6875 0.4234776717989916 -0.5646025318725565
v -0.6875 0.7811215283295767 -0.45183785705845414
v -0.5 0.6022996000642842 -0.5082201944655054
v 0.53125 0.6022996000642842 -0.5082201944655054
v -0.625 1.0085589018853713 -1.1877001628771
v -0.45454545454545453 1.0085589018853713 -1.1877001628771
v -0.45454545454545453 0.8893442830418428 -1.2252883878151342
v -0.625 0.8893442830418428 -1.2252883878151342
v 0.625 0.8893442830418428 -1.2252883878151342
v 0.4829545454545454 1.0085589018853713 -1.1877001628771
v 0.4829545454545454 0.8893442830418428 -1.2252883878151342
v 0.625 1.0085589018853713 -1.1877001628771
vt 0.359375 0.421875
vt 0.71875 0.421875
vt 0.71875 0.515625
vt 0.359375 0.515625
vt 0.9140625 0.625
vt 0.5546875 0.625
vt 0.5546875 0.53125
vt 0.9140625 0.53125
vt 1 0.90625
vt 0.703125 0.90625
vt 0.703125 0.84375
vt 1 0.84375
vt 0.3046875 0.9921875
vt 0.3046875 0.6328125
vt 0.34375 0.6328125
vt 0.34375 0.9921875
vt 0.84375 0.40625
vt 0.8046875 0.359375
vt 0.8046875 0.3125
vt 0.84375 0.3125
vt 0.25 0.515625
vt 0.28125 0.515625
vt 0.28125 0.546875
vt 0.25 0.546875
vt 0.703125 0.9296875
vt 1 0.9296875
vt 1 1
vt 0.703125 1
vt 0.40625 0.5625
vt 0.359375 0.5625
vt 0.359375 0.53125
vt 0.40625 0.53125
vt 0 0.9921875
vt 0 0.6328125
vt 0.046875 0.6328125
vt 0.046875 0.9921875
vt 0.5 0.3125
vt 0.546875 0.3125
vt 0.546875 0.359375
vt 0.5 0.40625
vt 0.625 0.640625
vt 0.625 1
vt 0.359375 1
vt 0.359375 0.640625
vt 0.90625 0.828125
vt 0.640625 0.828125
vt 0.640625 0.765625
vt 0.90625 0.765625
vt 0.046875 0.9921875
vt 0.046875 0.6328125
vt 0.3046875 0.6328125
vt 0.3046875 0.9921875
vt 0.765625 0.515625
vt 0.71875 0.515625
vt 0.71875 0.421875
vt 0.7734375 0.453125
vt 0.34375 0.578125
vt 0.34375 0.6328125
vt 0.3046875 0.6328125
vt 0.3046875 0.578125
vt 0.3046875 0.578125
vt 0.3046875 0.6328125
vt 0.046875 0.6328125
vt 0.046875 0.578125
vt 0.046875 0.578125
vt 0.046875 0.6328125
vt 0 0.6328125
vt 0 0.578125
vt 0.5 0.5625
vt 0.5546875 0.53125
vt 0.5546875 0.625
vt 0.5078125 0.625
vt 0.6756039763855508 0.9072339107313628
vt 0.6410373593030502 0.8825298043390984
vt 0.7005619275150091 0.845834080069712
vt 0.6984775971117692 0.8990005274876371
vt 0.640625 0.75
vt 0.640625 0.6875
vt 0.90625 0.6875
vt 0.90625 0.75
vt 0.640625 0.8828125
vt 0.703125 0.84375
vt 0.703125 0.90625
vt 0.6640625 0.90625
vt 0.546875 0.3125
vt 0.8046875 0.3125
vt 0.8046875 0.359375
vt 0.546875 0.359375
vt 0.5 0.2890625
vt 0.5078125 0.25
vt 0.65625 0.25
vt 0.6484375 0.296875
vt 0.03125 0.1796875
vt 0.0625 0.1796875
vt 0.0625 0.328125
vt 0 0.3203125
vt 0.015625 0.4296875
vt 0.0546875 0.4296875
vt 0.046875 0.578125
vt 0 0.578125
vt 0.359375 0.625
vt 0.359375 0.59375
vt 0.5 0.5625
vt 0.5078125 0.625
vt 0.2890625 0.4296875
vt 0.328125 0.4296875
vt 0.34375 0.578125
vt 0.3046875 0.578125
vt 0.078125 0.546875
vt 0.078125 0.515625
vt 0.21875 0.484375
vt 0.2265625 0.546875
vt 0.671875 0.1484375
vt 0.703125 0.1484375
vt 0.703125 0.296875
vt 0.671875 0.296875
vt 0.9140625 0.484375
vt 0.9140625 0.515625
vt 0.765625 0.515625
vt 0.7734375 0.453125
vn 1 0 0
vn -1 0 0
vn -0.7682212795973759 0.610554713564592 0.19250716173127053
vn 0 -0.9537169507482269 -0.30070579950427306
vn 0 -0.30070579950427306 0.9537169507482269
vn 0 0.30070579950427306 -0.9537169507482269
vn 0.7071067811865476 0.6743797232066279 0.21263110997159387
vn 0 0.30070579950427306 -0.9537169507482269
vn 0 -0.9537169507482269 -0.30070579950427306
vn 0 -0.30070579950427306 0.9537169507482269
vn 0 0.9537169507482269 0.30070579950427306
vn 0 0.36191980745407987 -0.9322092324003243
vn 0 -0.9537169507482269 -0.30070579950427306
vn 1 0 0
vn 0 -0.6586660797152748 -0.7524353762500215
vn 0 -0.6586660797152748 -0.7524353762500214
vn 0 -0.6586660797152748 -0.7524353762500215
vn -1 0 0
vn 0.7071067811865476 0.6743797232066279 0.21263110997159385
vn 0 0.461748613235034 0.8870108331782217
vn -0.6469966392206306 0.3520800168570275 0.6763394196460565
vn 0 -0.30070579950427306 0.9537169507482269
vn 0 0.9559438292443074 0.2935496471292896
vn 0.9969712468235258 -0.023386199560868036 0.07417154897427793
vn 0 -0.8692607390453388 -0.49435388898475485
vn -0.9939664993194841 0.032982640100354996 -0.1046075699105024
vn 0 -0.8692607390453388 -0.49435388898475496
vn -0.9963841888202822 -0.025548578215240616 0.08102973787522715
vn 0 0.9559438292443074 0.2935496471292896
vn 0.9942968063327494 0.03206976376035116 -0.10171229605534586
usemtl m_9ea6b693-e482-f3cb-2fb4-ff29ab2254f3
f 17/61/19 32/62/19 31/63/19
f 17/61/19 31/63/19 15/64/19
f 19/65/20 36/66/20 35/67/20
f 19/65/20 35/67/20 21/68/20
f 15/69/21 31/70/21 38/71/21
f 15/69/21 38/71/21 27/72/21
f 30/73/22 33/74/22 32/75/22
f 30/73/22 32/75/22 17/76/22
f 15/77/23 27/78/23 30/79/23
f 15/77/23 30/79/23 17/80/23
f 43/81/24 45/82/24 44/83/24
f 43/81/24 44/83/24 46/84/24
f 23/85/25 37/86/25 36/87/25
f 23/85/25 36/87/25 19/88/25
f 39/89/26 40/90/26 41/91/26
f 39/89/26 41/91/26 42/92/26
f 21/93/27 35/94/27 34/95/27
f 21/93/27 34/95/27 26/96/27
f 21/97/28 26/98/28 23/99/28
f 21/97/28 23/99/28 19/100/28
f 27/101/29 38/102/29 37/103/29
f 27/101/29 37/103/29 23/104/29
f 24/105/30 28/106/30 29/107/30
f 24/105/30 29/107/30 25/108/30
f 26/109/31 34/110/31 33/111/31
f 26/109/31 33/111/31 30/112/31
f 16/113/32 31/114/32 32/115/32
f 16/113/32 32/115/32 18/116/32
f 18/117/33 32/118/33 33/119/33
f 18/117/33 33/119/33 29/120/33
f 29/121/34 33/122/34 34/123/34
f 29/121/34 34/123/34 25/124/34
f 25/125/35 34/126/35 35/127/35
f 25/125/35 35/127/35 22/128/35
f 22/129/36 35/130/36 36/131/36
f 22/129/36 36/131/36 20/132/36
f 20/133/37 36/134/37 37/135/37
f 20/133/37 37/135/37 24/136/37
f 24/137/38 37/138/38 38/139/38
f 24/137/38 38/139/38 28/140/38
f 28/141/39 38/142/39 31/143/39
f 28/141/39 31/143/39 16/144/39
f 26/145/40 30/146/40 27/147/40
f 26/145/40 27/147/40 23/148/40
f 40/149/41 39/150/41 20/151/41
f 40/149/41 20/151/41 24/152/41
f 41/153/42 40/154/42 24/155/42
f 41/153/42 24/155/42 25/156/42
f 42/157/43 41/158/43 25/159/43
f 42/157/43 25/159/43 22/160/43
f 39/161/44 42/162/44 22/163/44
f 39/161/44 22/163/44 20/164/44
f 45/165/45 43/166/45 18/167/45
f 45/165/45 18/167/45 29/168/45
f 44/169/46 45/170/46 29/171/46
f 44/169/46 29/171/46 28/172/46
f 46/173/47 44/174/47 28/175/47
f 46/173/47 28/175/47 16/176/47
f 43/177/48 46/178/48 16/179/48
f 43/177/48 16/179/48 18/180/48
o cylinder
v 0.8125 0.35000000000000087 2.42861286636753e-17
v 0.6875 0.3500000000000011 3.122502256758253e-17
v 0.8125 0.3480515064608687 0.3857003597081909
v 0.6875 0.3480515064608689 0.3857003597081909
v 0.8125000000000007 0.6938625300747774 0.21486915631372722
v 0.6875000000000007 0.6938625300747776 0.21486915631372722
v 0.8125000000000007 0.6958110236139095 -0.17083120339446373
v 0.6875000000000007 0.6958110236139097 -0.17083120339446373
v 0.8125 0.35194849353913293 -0.38570035970819083
v 0.6875 0.35194849353913316 -0.38570035970819083
v 0.8124999999999993 0.006137469925224459 -0.2148691563137272
v 0.6874999999999993 0.006137469925224681 -0.2148691563137272
v 0.8124999999999993 0.004188976386092169 0.17083120339446353
v 0.6874999999999993 0.004188976386092391 0.17083120339446353
vt 0.265625 0.3671875
vt 0.2109375 0.453125
vt 0.1640625 0.3671875
vt 0.078125 0.234375
vt 0.171875 0.234375
vt 0.171875 0.265625
vt 0.078125 0.265625
vt 0.4296875 0.2421875
vt 0.484375 0.3203125
vt 0.3828125 0.3203125
vt 0.2109375 0.2890625
vt 0.265625 0.3671875
vt 0.1640625 0.3671875
vt 0.1875 0.234375
vt 0.28125 0.234375
vt 0.28125 0.265625
vt 0.1875 0.265625
vt 0.484375 0.3203125
vt 0.4296875 0.40625
vt 0.3828125 0.3203125
vt 0.1171875 0.2890625
vt 0.2109375 0.2890625
vt 0.1640625 0.3671875
vt 0.5625 0.375
vt 0.65625 0.375
vt 0.65625 0.40625
vt 0.5625 0.40625
vt 0.4296875 0.40625
vt 0.3359375 0.40625
vt 0.3828125 0.3203125
vt 0.0625 0.3671875
vt 0.1171875 0.2890625
vt 0.1640625 0.3671875
vt 0.71875 0.265625
vt 0.8125 0.265625
vt 0.8125 0.296875
vt 0.71875 0.296875
vt 0.3359375 0.40625
vt 0.28125 0.3203125
vt 0.3828125 0.3203125
vt 0.1171875 0.453125
vt 0.0625 0.3671875
vt 0.1640625 0.3671875
vt 0.671875 0.375
vt 0.765625 0.375
vt 0.765625 0.40625
vt 0.671875 0.40625
vt 0.28125 0.3203125
vt 0.3359375 0.2421875
vt 0.3828125 0.3203125
vt 0.2109375 0.453125
vt 0.1171875 0.453125
vt 0.1640625 0.3671875
vt 0.640625 0.640625
vt 0.734375 0.640625
vt 0.734375 0.671875
vt 0.640625 0.671875
vt 0.3359375 0.2421875
vt 0.4296875 0.2421875
vt 0.3828125 0.3203125
vn 1 -1.818210814371857e-15 -2.3365851690742873e-17
vn 8.365287179477669e-16 0.4429060519233978 0.8965680281883962
vn -1 1.818210814371857e-15 2.3365851690742873e-17
vn 1 -1.818210814371857e-15 -2.3365851690742873e-17
vn 1.776614602073009e-15 0.9999872397393967 0.005051767847250368
vn -1 1.818210814371857e-15 2.3365851690742873e-17
vn 1 -1.818210814371857e-15 -2.3365851690742873e-17
vn 8.942495832334822e-16 0.5299192642332048 -0.8480480961564262
vn -1 1.818210814371857e-15 2.3365851690742873e-17
vn 1 -1.818210814371857e-15 -2.3365851690742873e-17
vn -8.365287179477669e-16 -0.4429060519233978 -0.8965680281883961
vn -1 1.818210814371857e-15 2.3365851690742873e-17
vn 1 -1.818210814371857e-15 -2.3365851690742873e-17
vn -1.7766146020730088e-15 -0.9999872397393967 -0.005051767847250866
vn -1 1.818210814371857e-15 2.3365851690742873e-17
vn 1 -1.818210814371857e-15 -2.3365851690742873e-17
vn -8.942495832334828e-16 -0.5299192642332051 0.848048096156426
vn -1 1.818210814371857e-15 2.3365851690742873e-17
usemtl m_9ea6b693-e482-f3cb-2fb4-ff29ab2254f3
f 51/181/49 49/182/49 47/183/49
f 49/184/50 51/185/50 52/186/50
f 49/184/50 52/186/50 50/187/50
f 50/188/51 52/189/51 48/190/51
f 53/191/52 51/192/52 47/193/52
f 51/194/53 53/195/53 54/196/53
f 51/194/53 54/196/53 52/197/53
f 52/198/54 54/199/54 48/200/54
f 55/201/55 53/202/55 47/203/55
f 53/204/56 55/205/56 56/206/56
f 53/204/56 56/206/56 54/207/56
f 54/208/57 56/209/57 48/210/57
f 57/211/58 55/212/58 47/213/58
f 55/214/59 57/215/59 58/216/59
f 55/214/59 58/216/59 56/217/59
f 56/218/60 58/219/60 48/220/60
f 59/221/61 57/222/61 47/223/61
f 57/224/62 59/225/62 60/226/62
f 57/224/62 60/226/62 58/227/62
f 58/228/63 60/229/63 48/230/63
f 49/231/64 59/232/64 47/233/64
f 59/234/65 49/235/65 50/236/65
f 59/234/65 50/236/65 60/237/65
f 60/238/66 50/239/66 48/240/66